<svg xmlns="http://www.w3.org/2000/svg" width="130.955" height="127.401" viewBox="0 0 130.955 127.401">
  <g id="Group_4125" data-name="Group 4125" transform="translate(-282.405 -156.514)">
    <g id="Group_4122" data-name="Group 4122">
      <path id="Path_13830" data-name="Path 13830" d="M412.624,193.29c-.275.186-.544.35-.807.5-4.842-1.53-8.925-5.279-12.459-8.82-3.3-3.311-6.054-7.08-9.2-10.526-3.631-3.982-10.332-10.267-16.295-8.385-4.054-4.162-9.834-6.041-15.609-7.415-8.984-2.141-17.791-2.461-26.744.063A57.87,57.87,0,0,0,307.9,172.425,73.321,73.321,0,0,1,295.384,182a52.828,52.828,0,0,1-6,3.048c-1.95.839-4.266,1.755-6.4,1.267-.162-.035-.256.221-.1.282a5.864,5.864,0,0,0,.76.231c-.092.009-.172.108-.1.193a7.378,7.378,0,0,0,6.889,2.468,21.744,21.744,0,0,0-2.542,2.566c-3.2,3.846-3.4,8.5-3.651,13.272-.007.139.187.125.223.015.123-.38.226-.767.32-1.154a.1.1,0,0,0,.119-.052,25.741,25.741,0,0,1,4.781-6.389c-3.216,7.132-2.787,15.134-.155,22.684,1.712,4.9,4.463,9.252,7.225,13.609,3.119,4.912,5.857,9.94,8.505,15.116a.432.432,0,0,0,.172.181,21.857,21.857,0,0,0,6.335,9.439c3.574,3.172,8.077,4.959,12.545,6.459a79.156,79.156,0,0,0,32.678,3.671,32.751,32.751,0,0,0,23.994-13.473c3.264-4.4,5.512-9.436,8.3-14.127,3.074-5.172,7.652-9.337,10.252-14.817a16.307,16.307,0,0,0,1.024-8.5,17.482,17.482,0,0,1,.71,2.946.109.109,0,0,0,.112.1c-.054.185-.115.367-.165.554-.022.09.1.115.139.049,3.656-5.677,7.254-13.957,4.2-20.455,1.883,1.491,3.485,3.314,3.717,5.8-.036.191-.066.387-.108.575a.128.128,0,0,0,.239.082c.016-.039.028-.078.041-.118a.078.078,0,0,0,.059-.062c.01-.053.01-.107.019-.16a11.142,11.142,0,0,0-2.177-11.223c2.24.176,4.435-.5,5.586-2.512C413.044,193.371,412.8,193.177,412.624,193.29Z" fill="#424241"/>
      <path id="Path_13831" data-name="Path 13831" d="M349.333,269.681a79.916,79.916,0,0,1-25.145-4.067c-4.441-1.491-9.051-3.316-12.683-6.539a22.155,22.155,0,0,1-6.406-9.49.8.8,0,0,1-.192-.248c-3.126-6.111-5.743-10.763-8.486-15.083-2.718-4.286-5.527-8.719-7.265-13.692-2.62-7.518-2.833-14.713-.639-20.961a22,22,0,0,0-3.252,4.712.493.493,0,0,1-.139.17c-.082.33-.174.659-.279.983a.529.529,0,0,1-.506.361h-.172l-.189-.151a.49.49,0,0,1-.134-.367l.009-.167c.251-4.854.491-9.438,3.734-13.342a21.184,21.184,0,0,1,1.731-1.84,7.475,7.475,0,0,1-6.079-2.684.483.483,0,0,1-.1-.17c-.136-.04-.272-.086-.4-.138a.522.522,0,0,1-.327-.592.554.554,0,0,1,.538-.463l.118.014a5.323,5.323,0,0,0,1.169.125,13.212,13.212,0,0,0,4.991-1.371,52.672,52.672,0,0,0,5.949-3.024,72.353,72.353,0,0,0,12.453-9.524,58.559,58.559,0,0,1,23.77-13.806c8.488-2.392,17.069-2.42,26.946-.067,5.651,1.345,11.448,3.169,15.632,7.352,4.556-1.277,10.157,1.639,16.474,8.568,1.313,1.436,2.573,2.95,3.793,4.415,1.708,2.051,3.475,4.174,5.395,6.1,3.367,3.377,7.354,7.1,12.127,8.668.207-.123.417-.253.63-.4a.638.638,0,0,1,.883.214.576.576,0,0,1-.006.589,5.665,5.665,0,0,1-5.031,2.733,11.64,11.64,0,0,1,1.654,10.939.163.163,0,0,1,0,.093l-.042.235-.088.041a.545.545,0,0,1-.895.093.506.506,0,0,1-.094-.441c.025-.109.046-.231.069-.354l.025-.14a7.148,7.148,0,0,0-2.355-4.416c2.14,6.881-2.008,14.93-4.823,19.3l-.117.182-.289.037a.475.475,0,0,1-.241-.064,12.893,12.893,0,0,1-1.148,4.658,46.171,46.171,0,0,1-5.748,8.56,59.922,59.922,0,0,0-4.522,6.291c-.966,1.625-1.883,3.323-2.771,4.966a75.007,75.007,0,0,1-5.549,9.194A33.134,33.134,0,0,1,357.032,269.3C354.5,269.554,351.909,269.681,349.333,269.681ZM291,195.81l-.948,2.1c-2.933,6.5-2.982,14.242-.143,22.388,1.708,4.886,4.492,9.278,7.185,13.526,2.758,4.343,5.386,9.015,8.523,15.149l.126.074.068.156a21.41,21.41,0,0,0,6.222,9.273c3.526,3.129,8.047,4.916,12.408,6.379a79.474,79.474,0,0,0,32.512,3.653,32.362,32.362,0,0,0,23.713-13.315,74.448,74.448,0,0,0,5.488-9.1c.892-1.65,1.813-3.356,2.787-4.995a60.75,60.75,0,0,1,4.58-6.376,45.476,45.476,0,0,0,5.655-8.409c1.277-2.692,1.215-5.705.987-8.3l-.308-3.488,1.086,3.33a18.189,18.189,0,0,1,.664,2.621c2.9-4.742,6.594-12.746,3.589-19.138l-.723-1.537,1.333,1.054a9.7,9.7,0,0,1,3.7,5.1,10.674,10.674,0,0,0-2.447-9.609l-.729-.758,1.047.082c.214.017.428.025.639.025h0a5.248,5.248,0,0,0,4.005-1.562h0l-.154.092-.171-.055c-5.019-1.586-9.147-5.436-12.622-8.92-1.944-1.948-3.722-4.084-5.442-6.149-1.214-1.457-2.47-2.964-3.769-4.388-6.118-6.709-11.653-9.612-15.88-8.274l-.234.075-.172-.176c-4.054-4.161-9.8-5.971-15.415-7.306-9.744-2.323-18.189-2.3-26.544.058a57.759,57.759,0,0,0-23.441,13.622,73.165,73.165,0,0,1-12.591,9.626,53.387,53.387,0,0,1-6.041,3.072,16.5,16.5,0,0,1-4.365,1.376l.863.211-1.821.173a7.059,7.059,0,0,0,6.169,1.918l1.291-.149-.985.848a21.577,21.577,0,0,0-2.5,2.518c-2.723,3.281-3.215,7.154-3.463,11.278a26.706,26.706,0,0,1,4.662-6.118Z" fill="#301000"/>
    </g>
    <path id="Path_13832" data-name="Path 13832" d="M332.722,158.78a59.39,59.39,0,0,1,13.791-1.324c8.31.158,17.638,1.659,22.965,8.7a.4.4,0,0,1-.3.623,77.566,77.566,0,0,0-8.863-.17c5.957-.5,14.384,3.551,18.079,8.226a22.077,22.077,0,0,1,3.291,5.522,32.331,32.331,0,0,0-2.773-6.082c-1.334-2-3.506-3.351-4.608-5.5a.407.407,0,0,1,.2-.6c3.758-1.819,8.807,1.036,11.825,3.211,1.242.9,2.442,1.846,3.614,2.829-3.681-3.99-10.232-9.986-16.074-8.143-4.054-4.162-9.834-6.041-15.609-7.415-8.984-2.141-17.791-2.461-26.744.063a51.366,51.366,0,0,0-6.327,2.247A66.173,66.173,0,0,1,332.722,158.78Z" fill="#501f00" opacity="0.6" style="mix-blend-mode: multiply;isolation: isolate"/>
    <path id="Path_13833" data-name="Path 13833" d="M412.86,193.3a5.735,5.735,0,0,1-5.129.6c-3.742-1.158-6.722-3.969-10.425-5.2,4.7,4.391,11.193,7.3,12.211,14.324a.4.4,0,0,1-.729.252c-2.179-3.506-4.444-7.568-8.731-8.382,3.774,5.287,7.155,11.831,3.535,18.072a.4.4,0,0,1-.757-.15c-.506-5.331-1.4-13.216-6.408-16.387a58.8,58.8,0,0,1,2.83,7.445c.658,2.658.161,5.318-.235,7.97a.4.4,0,0,1-.792-.054c-.2-2.832-.463-7.071-2.661-9.288a18.9,18.9,0,0,1,.311,9.582c-.715,3.39-2.829,5.97-4.7,8.792a.4.4,0,0,1-.715-.355c3.767-9.756,3.931-21.822-2.18-30.083a.353.353,0,0,1-.325-.09c-2.42-2.245-6.534-2.62-9.686-2.448a57.481,57.481,0,0,1-9.965.073,171.3,171.3,0,0,1-20.592-3.4c-3.367-.8-6.743-1.634-10.168-2.157-3.6-.547-7.348-1.4-10.992-1.44-7.162-.084-14.384,3.515-20.633,6.686a.4.4,0,0,1-.294.031c-.474.466-.938.942-1.373,1.438-2.321,2.658-4.71,6.183-5.413,9.715-.655,3.28-.072,6.67-.828,9.938-.734,3.154-1.87,6.019-1.323,9.316.075.443-.675.6-.774.158-1.108-4.935-1.317-9.313.772-13.8a12.706,12.706,0,0,0-4.793,6.06c-.16.474-.925.345-.782-.159,1.6-5.6,4.689-10.431,7.681-15.352a23.044,23.044,0,0,0-10.276,11.565.4.4,0,0,1-.755-.153c.322-6.572,3.9-11.988,8.415-16.49-3.827,2.379-7.758,4.824-9.648,8.9a.4.4,0,0,1-.748-.26c.756-4.187,3.437-7.022,6.721-9.518,2.691-2.043,6.022-3.975,8.491-6.5a23.468,23.468,0,0,1-10.038,5.274,14.368,14.368,0,0,1-6.895-.271,7.509,7.509,0,0,0,6.373,1.924,21.744,21.744,0,0,0-2.542,2.566c-3.2,3.846-3.4,8.5-3.651,13.272-.007.139.187.125.223.015.123-.38.226-.767.32-1.154a.1.1,0,0,0,.119-.052,25.741,25.741,0,0,1,4.781-6.389c-3.216,7.132-2.787,15.134-.155,22.684,1.712,4.9,4.463,9.252,7.225,13.609,3.119,4.912,5.857,9.94,8.505,15.116a.432.432,0,0,0,.172.181,21.857,21.857,0,0,0,6.335,9.439c3.574,3.172,8.077,4.959,12.545,6.459a79.156,79.156,0,0,0,32.678,3.671,32.751,32.751,0,0,0,23.994-13.473c3.264-4.4,5.512-9.436,8.3-14.127,3.074-5.172,7.652-9.337,10.252-14.817a16.307,16.307,0,0,0,1.024-8.5,17.482,17.482,0,0,1,.71,2.946.109.109,0,0,0,.112.1c-.054.185-.115.367-.165.554-.022.09.1.115.139.049,3.656-5.677,7.254-13.957,4.2-20.455,1.883,1.491,3.485,3.314,3.717,5.8-.036.191-.066.387-.108.575a.128.128,0,0,0,.239.082c.016-.039.028-.078.041-.118a.078.078,0,0,0,.059-.062c.01-.053.01-.107.019-.16a11.142,11.142,0,0,0-2.177-11.223c2.24.176,4.435-.5,5.586-2.512A.19.19,0,0,0,412.86,193.3Z" fill="#424241" opacity="0.5" style="mix-blend-mode: multiply;isolation: isolate"/>
    <g id="Group_4123" data-name="Group 4123">
      <path id="Path_13834" data-name="Path 13834" d="M309.784,244.97a17.535,17.535,0,0,0-2.447-6.52,30.172,30.172,0,0,0-2.736-5.2c-.694-1.106-1.827-2.87-3.317-2.934-2.982-.131-4.464,5.121-4.39,7.434.053,1.693,1.181,3.252,2.062,4.6,1.332,2.05,1.915,4.519,3.024,6.684,1.232,2.412,4.24,4.466,6.961,3.215a.356.356,0,0,0,.566-.076C310.686,250.253,310.156,247.046,309.784,244.97Z" fill="#fbd0b4"/>
      <path id="Path_13835" data-name="Path 13835" d="M309.784,244.97a17.535,17.535,0,0,0-2.447-6.52,30.172,30.172,0,0,0-2.736-5.2c-.647-1.034-1.69-2.632-3.042-2.886a8.2,8.2,0,0,1,2.012,6.829.4.4,0,0,1-.469.311c-1.474-.326-3.666-1.766-4.955-.031a3.713,3.713,0,0,0-.693,2.374,21.571,21.571,0,0,0,1.5,2.508c1.332,2.05,1.915,4.519,3.024,6.684,1.232,2.412,4.24,4.466,6.961,3.215a.356.356,0,0,0,.566-.076C310.686,250.253,310.156,247.046,309.784,244.97Z" fill="#fbd0b4" style="mix-blend-mode: multiply;isolation: isolate"/>
      <path id="Path_13836" data-name="Path 13836" d="M300.544,239.991c.151.371,1.664,5.235,1.842,5.1.943-.723,1.9,1.992,2.142,2.441.881,1.647,1.593,3.373,2.356,5.078a4.087,4.087,0,0,0,1.9-.293c-1.1-2.911-2.657-5.6-3.945-8.446-.681-1.507-1.158-4.036-2.435-5.118a3.914,3.914,0,0,0-3.613-.615A3.391,3.391,0,0,1,300.544,239.991Z" fill="#edb89a" style="mix-blend-mode: multiply;isolation: isolate"/>
      <path id="Path_13837" data-name="Path 13837" d="M298.628,238.1c-.034.015,0,.06.026.053,2.505-.548,3.886,1.38,4.906,3.691a.217.217,0,0,0-.239.084,8.574,8.574,0,0,0-1.31,2.754c-.031.1.105.123.153.052.524-.816,1.007-1.661,1.548-2.464a.184.184,0,0,0,.015-.036,43.8,43.8,0,0,0,2.054,4.965c.058.094.2.017.165-.082C305.077,244.2,303.5,235.593,298.628,238.1Z" fill="#9e5116"/>
      <path id="Path_13838" data-name="Path 13838" d="M309.784,244.97a17.535,17.535,0,0,0-2.447-6.52,30.172,30.172,0,0,0-2.736-5.2c-.694-1.106-1.827-2.87-3.317-2.934-2.982-.131-4.464,5.121-4.39,7.434.053,1.693,1.181,3.252,2.062,4.6,1.332,2.05,1.915,4.519,3.024,6.684,1.232,2.412,4.24,4.466,6.961,3.215a.356.356,0,0,0,.566-.076C310.686,250.253,310.156,247.046,309.784,244.97Zm-.91,6.71a19.287,19.287,0,0,1-2.736-.194c-1.815-.381-2.873-1.946-3.644-3.482a62.432,62.432,0,0,0-3.919-7.161,6.031,6.031,0,0,1-1.125-4.592c.285-1.607,1.7-4.8,3.5-5.08,1.567-.24,3.19,2.6,3.959,3.628a22.951,22.951,0,0,1,1.742,2.919.084.084,0,0,0-.01.115C309.284,241.882,309.429,247.076,308.874,251.68Z" fill="#9e5116"/>
    </g>
    <g id="Group_4124" data-name="Group 4124">
      <path id="Path_13839" data-name="Path 13839" d="M381.747,252.651a.349.349,0,0,0,.566,0c2.869.877,5.575-1.562,6.471-4.119.809-2.295,1.055-4.82,2.1-7.029.691-1.459,1.6-3.152,1.426-4.838-.241-2.3-2.409-7.307-5.35-6.78-1.469.262-2.355,2.167-2.893,3.351a30.344,30.344,0,0,0-2.014,5.518,17.47,17.47,0,0,0-1.547,6.792C380.411,247.65,380.319,250.9,381.747,252.651Z" fill="#fbd0b4"/>
      <path id="Path_13840" data-name="Path 13840" d="M380.506,245.546a17.47,17.47,0,0,1,1.547-6.792,30.344,30.344,0,0,1,2.014-5.518c.5-1.112,1.323-2.834,2.63-3.264a8.184,8.184,0,0,0-1.081,7.035.4.4,0,0,0,.508.244c1.418-.52,3.4-2.242,4.906-.691a3.7,3.7,0,0,1,1,2.254,21.228,21.228,0,0,1-1.149,2.689c-1.045,2.209-1.291,4.734-2.1,7.029-.9,2.557-3.6,5-6.471,4.119a.349.349,0,0,1-.566,0C380.319,250.9,380.411,247.65,380.506,245.546Z" fill="#fbd0b4" style="mix-blend-mode: multiply;isolation: isolate"/>
      <path id="Path_13841" data-name="Path 13841" d="M388.993,239.37c-.1.389-.946,5.41-1.141,5.3-1.036-.589-1.619,2.229-1.8,2.708-.654,1.75-1.124,3.557-1.652,5.348a4.087,4.087,0,0,1-1.927-.036c.7-3.029,1.881-5.909,2.775-8.9.475-1.584.609-4.155,1.729-5.4a3.915,3.915,0,0,1,3.5-1.094A3.39,3.39,0,0,0,388.993,239.37Z" fill="#edb89a" style="mix-blend-mode: multiply;isolation: isolate"/>
      <path id="Path_13842" data-name="Path 13842" d="M390.638,237.235c.036.012.011.06-.022.059-2.553-.209-3.663,1.888-4.363,4.312a.216.216,0,0,1,.248.055,8.592,8.592,0,0,1,1.666,2.551c.045.09-.09.138-.146.074-.625-.74-1.218-1.51-1.863-2.234-.011-.01-.012-.024-.018-.034a43.125,43.125,0,0,1-1.373,5.193c-.041.1-.188.044-.174-.059C385.063,244.149,385.47,235.408,390.638,237.235Z" fill="#9e5116"/>
      <path id="Path_13843" data-name="Path 13843" d="M381.747,252.651a.349.349,0,0,0,.566,0c2.869.877,5.575-1.562,6.471-4.119.809-2.295,1.055-4.82,2.1-7.029.691-1.459,1.6-3.152,1.426-4.838-.241-2.3-2.409-7.307-5.35-6.78-1.469.262-2.355,2.167-2.893,3.351a30.344,30.344,0,0,0-2.014,5.518,17.47,17.47,0,0,0-1.547,6.792C380.411,247.65,380.319,250.9,381.747,252.651Zm.911-14.6a.09.09,0,0,0-.03-.116,22.893,22.893,0,0,1,1.34-3.125c.624-1.125,1.851-4.157,3.435-4.128,1.822.034,3.655,3.009,4.151,4.563a6.026,6.026,0,0,1-.494,4.7,62.462,62.462,0,0,0-2.926,7.623c-.556,1.627-1.4,3.315-3.143,3.938a18.747,18.747,0,0,1-2.688.56C381.136,247.583,380.583,242.416,382.658,238.053Z" fill="#9e5116"/>
    </g>
    <path id="Path_13844" data-name="Path 13844" d="M384.858,200.071c-1.119-1.917-3.4-3.543-5.1-4.912a47.688,47.688,0,0,0-6.4-4.292A31.235,31.235,0,0,0,359.98,186.6a88.63,88.63,0,0,0-15.45.771,79.667,79.667,0,0,0-15.255,2.727,49.7,49.7,0,0,0-14.5,7.192,50.389,50.389,0,0,0-11.136,11.47c-2.183,3.084-1.241,6.875-.254,10.328,1.194,8.48,1.682,17.029,2.149,25.586.259,4.733.4,9.741,2.074,14.224a25.062,25.062,0,0,0,6.672,9.243c3.086,2.879,6.8,5.119,10.315,7.426a67.866,67.866,0,0,0,12.657,6.912,18.807,18.807,0,0,0,12.218.744,31,31,0,0,0,5.78-2.444,58.715,58.715,0,0,0,6.024-3.349,32.662,32.662,0,0,0,6.567-4.139c2.528-1.949,5.124-3.767,7.7-5.645a18.555,18.555,0,0,0,8.027-13.17c.936-7.539.471-15.205.742-22.779.288-7.96.776-15.893,1.4-23.828C386.13,205.184,386.206,202.37,384.858,200.071Z" fill="#fad6be"/>
    <path id="Path_13845" data-name="Path 13845" d="M382.028,249.118c-.8,3.276-1.73,8.012-3.547,10.9-1.533,2.435-24.841,23.316-37.5,20.833-6.8-1.335-13.529-5.741-19.113-9.806-4.653-3.389-9.09-7.222-11.608-12.517-4.509-9.482-3.155-20.464-5.839-30.34.5,5.483.812,10.985,1.113,16.49.259,4.733.4,9.741,2.074,14.224a25.062,25.062,0,0,0,6.672,9.243c3.086,2.879,6.8,5.119,10.315,7.426a67.866,67.866,0,0,0,12.657,6.912,18.807,18.807,0,0,0,12.218.744,31,31,0,0,0,5.78-2.444,58.715,58.715,0,0,0,6.024-3.349,32.662,32.662,0,0,0,6.567-4.139c2.528-1.949,5.124-3.767,7.7-5.645a18.555,18.555,0,0,0,8.027-13.17c.764-6.161.6-12.406.658-18.618A106.647,106.647,0,0,1,382.028,249.118Z" fill="#efc2a7" style="mix-blend-mode: multiply;isolation: isolate"/>
    <path id="Path_13846" data-name="Path 13846" d="M384.858,200.071c-1.119-1.917-3.4-3.543-5.1-4.912a47.688,47.688,0,0,0-6.4-4.292A31.235,31.235,0,0,0,359.98,186.6a88.63,88.63,0,0,0-15.45.771,79.667,79.667,0,0,0-15.255,2.727,49.7,49.7,0,0,0-14.5,7.192,50.389,50.389,0,0,0-11.136,11.47c-2.183,3.084-1.241,6.875-.254,10.328.436,3.1.778,6.206,1.057,9.319,2.95-6.484,9.916-12.788,17.045-12.182,8.862,2.186,17.856-.016,26.365-2.539a32.507,32.507,0,0,0,19.381-1.91,11.869,11.869,0,0,1-3.914,3.159c6.716.715,13.8-.155,19.312-4.9a48.025,48.025,0,0,1-3.493,14.8.8.8,0,0,1,.6-.137c1.638-1.476,3.428-2.906,5.124-4.469q.361-6.187.849-12.363C386.13,205.184,386.206,202.37,384.858,200.071Z" fill="#edb89a" style="mix-blend-mode: multiply;isolation: isolate"/>
    <path id="Path_13847" data-name="Path 13847" d="M384.858,200.071c-1.119-1.917-3.4-3.543-5.1-4.912a47.688,47.688,0,0,0-6.4-4.292A31.235,31.235,0,0,0,359.98,186.6a88.63,88.63,0,0,0-15.45.771,79.667,79.667,0,0,0-15.255,2.727,49.7,49.7,0,0,0-14.5,7.192,50.389,50.389,0,0,0-11.136,11.47c-2.183,3.084-1.241,6.875-.254,10.328,1.194,8.48,1.682,17.029,2.149,25.586.259,4.733.4,9.741,2.074,14.224a25.062,25.062,0,0,0,6.672,9.243c3.086,2.879,6.8,5.119,10.315,7.426a67.866,67.866,0,0,0,12.657,6.912,18.807,18.807,0,0,0,12.218.744,31,31,0,0,0,5.78-2.444,58.715,58.715,0,0,0,6.024-3.349,32.662,32.662,0,0,0,6.567-4.139c2.528-1.949,5.124-3.767,7.7-5.645a18.555,18.555,0,0,0,8.027-13.17c.936-7.539.471-15.205.742-22.779.288-7.96.776-15.893,1.4-23.828C386.13,205.184,386.206,202.37,384.858,200.071ZM383.6,227.908c-.487,7.334-.208,14.681-.606,22.015-.182,3.353-.428,6.793-1.826,9.891a18.691,18.691,0,0,1-5.725,6.68c-2.289,1.815-4.765,3.388-7.07,5.189a63.476,63.476,0,0,1-7.113,5.066c-.457.247-.911.491-1.369.744-.041.024-.086.048-.129.07,0,0,0,.006-.008.006a57.919,57.919,0,0,1-10.512,5c-4.891,1.526-9.65.318-14.183-1.7a75.126,75.126,0,0,1-11.778-7,71.016,71.016,0,0,1-9.295-7.22,22.754,22.754,0,0,1-6.317-10.321c-1.282-4.7-1.2-9.969-1.44-14.8a175.644,175.644,0,0,0-2.085-20.318.162.162,0,0,0,.1-.182,44,44,0,0,1-1.2-7.449c-.076-2.613,1.281-4.424,2.861-6.359a51.835,51.835,0,0,1,11.084-10.334,50.621,50.621,0,0,1,13.292-6.081c4.687-1.447,9.473-1.878,14.324-2.369a110.126,110.126,0,0,1,12.923-.779A31.063,31.063,0,0,1,371.016,191a43.922,43.922,0,0,1,11.389,8.152,7.4,7.4,0,0,1,2.344,5.657,56.568,56.568,0,0,1-.371,6.357c-.035.426.578.58.672.135h0Q384.151,219.588,383.6,227.908Z" fill="#a04c0b"/>
    <path id="Path_13848" data-name="Path 13848" d="M390.813,195.35a11.981,11.981,0,0,0-5.984-7.938,15.418,15.418,0,0,0-8.325-1.374c-2.357-4.868-7.759-8.427-12.383-10.682-5.989-2.924-12.816-3.893-19.421-3.775a70.245,70.245,0,0,0-21.711,3.907c-4.313,1.525-10.133,4.037-12.626,8.273a25.617,25.617,0,0,0-6.352,6.629c-3.324,5.137-4.283,11.21-5.148,17.154a.128.128,0,0,0,.25.051c.076-.248.143-.5.218-.752a28.287,28.287,0,0,1,4.749-7.573,24.657,24.657,0,0,0-4.356,13.838,2.932,2.932,0,0,0,.058,2.09.258.258,0,0,0,0,.028.109.109,0,0,0,.076.089c.01.011.013.024.022.035a.048.048,0,0,0,.078-.025v0a.1.1,0,0,0,.066-.084c.008-.1.025-.2.037-.3a31.3,31.3,0,0,1,4.227-10.138,18.612,18.612,0,0,1,2.575-3.014,25.516,25.516,0,0,0-3.876,5.859,27.061,27.061,0,0,0-2.384,8.036c-.409,3.193.281,6.5.761,9.642a.121.121,0,0,0,.242-.017c.005-.055,0-.109,0-.166a.164.164,0,0,0,.211-.106,29.488,29.488,0,0,1,5.356-11.341,20.925,20.925,0,0,1,2.39-2.492c-2.007,2.249-3.948,5.036-4.552,7.929a.149.149,0,0,0,.023.117c-.052.091-.115.172-.158.266a.14.14,0,0,0,.23.154c2.055-2.438,5.327-3.315,8.278-4.158,3.467-.994,6.824-2.249,10.224-3.44,2.9-1.013,5.844-1.863,8.72-2.929-3.028,2.108-6.214,3.891-10.018,4.365a.1.1,0,0,0,.012.2c.314-.026.63-.064.946-.107,8.137,1.131,16.9-.258,24.824-2.269a43.345,43.345,0,0,0,16.577-8.558,40.418,40.418,0,0,1-3.166,2.709,44.391,44.391,0,0,1-9.988,5.674c-.188.032-.377.061-.565.1-.105.021-.1.144-.035.2a.086.086,0,0,0,.11.1c.076-.023.148-.05.223-.072a95.662,95.662,0,0,0,9.72-.259,37.452,37.452,0,0,0,8.6-2.14,23.428,23.428,0,0,0,7.03-4.24,26.95,26.95,0,0,1-8.527,8.287.089.089,0,0,0-.034.115c-.2.058-.4.115-.607.176a.044.044,0,0,0,0,.084c4.16.471,8.641-1.707,11.961-4.01a20.035,20.035,0,0,0,4.1-3.784,55.416,55.416,0,0,1,.394,8.718,23.587,23.587,0,0,1-1.613,8.38.131.131,0,0,0,.08.166c-.355.317-.715.629-1.082.926a.16.16,0,0,0,.178.265c6.113-3.844,9.774-10.682,10.834-17.744A19.3,19.3,0,0,0,390.813,195.35Z" fill="#424241"/>
    <path id="Path_13849" data-name="Path 13849" d="M390.813,195.35a11.981,11.981,0,0,0-5.984-7.938,11,11,0,0,0-1.224-.541c.144.109.291.211.427.331a18.23,18.23,0,0,1,4.331,6.428c2.69,5.961,2.349,11.773.226,17.846l0,.007h0a1.024,1.024,0,0,0-.034.1c-.153.434-.845.174-.75-.26,1.067-4.92.477-11.5-3.115-15.375A11.127,11.127,0,0,1,383.455,202c-1.223,1.963-3,3.471-4.258,5.4-.225.348-.9.213-.75-.257a27.155,27.155,0,0,0,1.02-13.412c-.571,3.284-1.589,6.511-4.073,8.882-3.76,3.583-8.935,5.2-13.79,6.692-.363.109-.728-.341-.433-.641,2.6-2.657,5.4-5.385,6.463-9.067a24.222,24.222,0,0,0,.814-8.517c-2.351,5.326-7.5,9.359-12.238,12.469a48.219,48.219,0,0,1-23.24,8.234c-.369.022-.621-.541-.25-.73a41.352,41.352,0,0,0,15.962-14.041,34.893,34.893,0,0,1-7.314,5.115,57.587,57.587,0,0,1-11.8,3.763c-7.148,1.705-14.58,3.528-20.244,8.5-.3.264-.779-.178-.582-.509a40.025,40.025,0,0,1,14.115-13.865c-7.863,2.818-15.949,6.245-19.421,13.958-.215.479-.893.12-.717-.355,3.021-8,7.7-15.077,14.639-19.8-6.12,2.648-12,6.514-14.833,12.608-.222.478-.88.117-.714-.356,1.706-4.844,4.238-9.729,7.927-13.348a32.845,32.845,0,0,0-7.584,7.137.4.4,0,0,1-.691-.344c1.116-3.818,2.094-7.718,4.438-11.012.837-1.172,1.763-2.271,2.709-3.353a24.943,24.943,0,0,0-4.6,5.233c-3.324,5.137-4.283,11.21-5.148,17.154a.128.128,0,0,0,.25.051c.076-.248.143-.5.218-.752a28.287,28.287,0,0,1,4.749-7.573,24.657,24.657,0,0,0-4.356,13.838,2.932,2.932,0,0,0,.058,2.09.258.258,0,0,0,0,.028.109.109,0,0,0,.076.089c.01.011.013.024.022.035a.048.048,0,0,0,.078-.025v0a.1.1,0,0,0,.066-.084c.008-.1.025-.2.037-.3a31.3,31.3,0,0,1,4.227-10.138,18.612,18.612,0,0,1,2.575-3.014,25.516,25.516,0,0,0-3.876,5.859,27.061,27.061,0,0,0-2.384,8.036c-.409,3.193.281,6.5.761,9.642a.121.121,0,0,0,.242-.017c.005-.055,0-.109,0-.166a.164.164,0,0,0,.211-.106,29.488,29.488,0,0,1,5.356-11.341,20.925,20.925,0,0,1,2.39-2.492c-2.007,2.249-3.948,5.036-4.552,7.929a.149.149,0,0,0,.023.117c-.052.091-.115.172-.158.266a.14.14,0,0,0,.23.154c2.055-2.438,5.327-3.315,8.278-4.158,3.467-.994,6.824-2.249,10.224-3.44,2.9-1.013,5.844-1.863,8.72-2.929-3.028,2.108-6.214,3.891-10.018,4.365a.1.1,0,0,0,.012.2c.314-.026.63-.064.946-.107,8.137,1.131,16.9-.258,24.824-2.269a43.345,43.345,0,0,0,16.577-8.558,40.418,40.418,0,0,1-3.166,2.709,44.391,44.391,0,0,1-9.988,5.674c-.188.032-.377.061-.565.1-.105.021-.1.144-.035.2a.086.086,0,0,0,.11.1c.076-.023.148-.05.223-.072a95.662,95.662,0,0,0,9.72-.259,37.452,37.452,0,0,0,8.6-2.14,23.428,23.428,0,0,0,7.03-4.24,26.95,26.95,0,0,1-8.527,8.287.089.089,0,0,0-.034.115c-.2.058-.4.115-.607.176a.044.044,0,0,0,0,.084c4.16.471,8.641-1.707,11.961-4.01a20.035,20.035,0,0,0,4.1-3.784,55.416,55.416,0,0,1,.394,8.718,23.587,23.587,0,0,1-1.613,8.38.131.131,0,0,0,.08.166c-.355.317-.715.629-1.082.926a.16.16,0,0,0,.178.265c6.113-3.844,9.774-10.682,10.834-17.744A19.3,19.3,0,0,0,390.813,195.35Z" fill="#501f00" opacity="0.6" style="mix-blend-mode: multiply;isolation: isolate"/>
    <path id="Path_13850" data-name="Path 13850" d="M364.294,188.352c-3.166,4.854-7.4,9.672-13.1,11.438-.5.156-.791-.486-.48-.838,3.715-4.195,7.325-9.184,8.474-14.765a38.169,38.169,0,0,1-9.744,6.2c-7.907,3.7-16.442,6.491-25.252,6.422-.468,0-.726-.725-.247-.935a50.224,50.224,0,0,0,12.038-7.474,25.458,25.458,0,0,0,5.659-5.873c-2.467,1.05-4.959,2.034-7.5,2.9-2.938,1-5.971,1.693-8.887,2.741-2.041.732-4.141,1.512-6.319,1a.5.5,0,0,1-.308-.73c2.353-3.868,6.883-5.829,9.96-9.137a45,45,0,0,0-12.982,4.795c2.164-2.073,4.28-4.135,6.6-6.051-9.168,3.4-16.669,9.7-19.081,19.152a22.027,22.027,0,0,1,7.971-6.593c1.367-.711,2.806-1.34,4.236-1.991-.605.533-1.185,1.086-1.723,1.62a21.154,21.154,0,0,0-4.615,6.024.119.119,0,0,0,.014.112c.552-.254,1.118-.48,1.681-.683,1.989-.723,4-1.375,6.018-1.977q.951-.291,1.918-.551c1.241-.347,2.486-.685,3.739-1a.822.822,0,0,1,.357-.012,44.654,44.654,0,0,0,5.982-1.777,82.388,82.388,0,0,1-7.248,6.254c-1.225.854-2.463,1.707-3.666,2.615a.107.107,0,0,0-.041.086c-.627.428-1.267.844-1.908,1.256a19.576,19.576,0,0,0-6.084,3.953c.533-.249,1.079-.47,1.624-.691,4.831-2.866,10.4-3.883,15.842-5.18a40.272,40.272,0,0,0-5.644,3.24,85.892,85.892,0,0,0-7.607,6.307,25.237,25.237,0,0,1,8.349-3.928c1.97-.578,3.955-1.087,5.948-1.559,2.1-.591,4.242-1.11,6.406-1.628,5.355-1.279,11.269-2.78,15.862-6.017a41.727,41.727,0,0,1-11.614,13.217.117.117,0,0,0,.01.189q-1.339.576-2.7,1.1c-.1.036-.073.2.039.19a28.225,28.225,0,0,0,8.172-2.584A42.453,42.453,0,0,0,361.2,196.541a24.682,24.682,0,0,0,6.859-14.806A44.817,44.817,0,0,1,364.294,188.352Z" fill="#424241" opacity="0.5" style="mix-blend-mode: screen;isolation: isolate"/>
    <path id="Path_13851" data-name="Path 13851" d="M389.433,207.083a18.565,18.565,0,0,0-1.261-14.861,20.207,20.207,0,0,0-2.31-3.36,25.691,25.691,0,0,0-6.793-5.337,18.9,18.9,0,0,1,3.1,11.324c0,.071-.014.146-.016.216-.357-4.728-2.138-9.675-5.373-12.9-.32-.167-.637-.344-.954-.519-.2-.065-.4-.116-.6-.17,2.449,3.357.653,9.295-.732,12.6a17.062,17.062,0,0,0-3.9-10.194c1.877,6.551,1.712,15.64-2.543,21.041a17.555,17.555,0,0,0,3.795-2.165,18.957,18.957,0,0,0,4.155-4.795,15.839,15.839,0,0,0,2.259-9.39c.082,1.18,1,2.658,1.372,3.8a28.845,28.845,0,0,1,1.108,4.481,14.789,14.789,0,0,1-1.182,8.571,19.2,19.2,0,0,0,1.709-2.61c.3-.5.561-1.013.809-1.533a21.122,21.122,0,0,0,.209-13.98c.367,1.093,1.607,2.039,2.293,2.963A24.8,24.8,0,0,1,389.433,207.083Z" fill="#424241" opacity="0.5" style="mix-blend-mode: screen;isolation: isolate"/>
    <path id="Path_13852" data-name="Path 13852" d="M383.46,184.7c-.16-.14-2.055-1.4-1.818-1.213,8.88,7.007,10.86,15.1,10.425,21.565a27.221,27.221,0,0,1-3.1,10.442,24.232,24.232,0,0,1-3.337,4.821,21.674,21.674,0,0,1-2.119,2.069q-.652.558-1.352,1.056c-1.33.979.455-.345.557-.437a.094.094,0,0,0,.041-.088c-.159-.338.536-1.778.648-2.145a17.956,17.956,0,0,0,.453-2.084c.213-1.189.3-2.4.388-3.6a58.305,58.305,0,0,0-.35-9.432c0-.013-.009-.02-.016-.031a11.863,11.863,0,0,0,1.6-6.079c0-.064-.089-.064-.1-.007-.4,1.424-.788,2.881-1.317,4.264a15.855,15.855,0,0,1-2.022,3.092,24.91,24.91,0,0,1-5.056,3.893,22.316,22.316,0,0,1-4.621,2.049,13.647,13.647,0,0,1-2.953.549c1.867-.167-1.689.205-1.146-.026a17.915,17.915,0,0,0,4.217-3.217,28.114,28.114,0,0,0,3.816-4.347,13.829,13.829,0,0,0,3.214-11.325c-.017-.093-.163-.055-.157.032.234,3.756-1.632,7.447-3.541,10.679a27.3,27.3,0,0,1-10.606,5.1c-4.1,1.061-8.183.988-12.373,1.02-.387,0-.85-.027-1.268,0a.79.79,0,0,0,.174-.043c1.573-.674,3.112-1.4,4.627-2.2a40.459,40.459,0,0,0,8.66-6.259c.221-.209,5.818-6.306,4.718-13.706-.628,14.456-13.018,18.967-17.352,20.693a64.816,64.816,0,0,1-15.176,3.524,59.394,59.394,0,0,1-7.942.527c-1.223,0-2.443-.068-3.662-.162-.6-.047-1.275-.215-1.9-.238.447-.088.886-.211,1.322-.332a19.309,19.309,0,0,0,2.514-.926c1.806-.774,8.632-3.342,18.2-11.926.324-.291-8.814,6.867-13.632,8.793-6.873,2.746-14.032,4.813-21.1,7a14.764,14.764,0,0,0-5.564,2.916c.029-.131.064-.279.109-.467a8.087,8.087,0,0,1,.951-2.42c6.572-10.416,12.678-12.969,13.975-14.45a41.685,41.685,0,0,0-9.62,6.787c-1.882,1.715-5.035,6.426-6.309,8.626a28.488,28.488,0,0,0-1.687,3.584c-.25.617-.461,1.246-.674,1.875a21.716,21.716,0,0,1-.6,2.26,21.325,21.325,0,0,1-.29-2.434c-.155-.99-.269-1.983-.355-2.984a20.884,20.884,0,0,1,.737-7.106c1-3.879,3.123-8.55,12.67-16.4a28.4,28.4,0,0,0-7.834,5.94,31.983,31.983,0,0,0-4.55,6.492,30.371,30.371,0,0,0-1.383,3.57c-.087.264-.357,1.618-.6,2.543-.051-.647.138-1.334.153-1.983a25.013,25.013,0,0,1,.705-5.078,37.783,37.783,0,0,1,4.668-9.953c.118-.172-1.662,1.758-1.782,1.891a25.789,25.789,0,0,0-2.7,3.645c-.448.718-.84,1.471-1.227,2.224-.1.186-.246.61-.412,1.057.119-.713.291-1.443.31-1.566.152-.972.331-1.939.516-2.9a44.661,44.661,0,0,1,1.495-5.693,27.549,27.549,0,0,1,5.062-8.78,44.774,44.774,0,0,1,17.785-12.312,14.837,14.837,0,0,0-1.779.466,40.535,40.535,0,0,0-16.717,11.8,28.338,28.338,0,0,0-5.126,8.866,43.491,43.491,0,0,0-1.634,6.42c-.184.961-1.257,4.5-.7,5.324.11.165.546.034.67-.043.7-.434,1.191-2.463,1.6-3.254.146-.281.3-.555.461-.832a26.4,26.4,0,0,0-1.531,4.941c-.347,1.692-.246,3.436-.562,5.121a2.277,2.277,0,0,0,.28,1.727c.1.15.477.041.6-.006a.663.663,0,0,0,.184-.111,22.189,22.189,0,0,0-.139,4.127c.077,1.248.28,2.492.471,3.726.09.576.041,1.955.5,2.348a.664.664,0,0,0,.727-.084,2.27,2.27,0,0,0,.359-.445,44.44,44.44,0,0,1,1.678-5.057c.289-.721.621-1.42.975-2.1a3.323,3.323,0,0,0-.325,1.906c.044.147.321.1.422.093.156-.023.392-.033.506-.162a11.01,11.01,0,0,1,3.672-2.594,66.09,66.09,0,0,1,7.335-2.357c4.829-1.556,9.663-3.2,14.45-4.918a29.659,29.659,0,0,1-4.41,2.4,16.756,16.756,0,0,1-4.223,1.124.609.609,0,0,0-.417.248c-.03.035-.065.086-.018.127.515.45,2.07.151,2.685.218a46.536,46.536,0,0,0,5.961.219,71.255,71.255,0,0,0,13.361-1.676,50.622,50.622,0,0,0,15.889-6.039c-.885.623-1.786,1.224-2.724,1.782a48.909,48.909,0,0,1-4.4,2.25c-.633.291-1.621.322-2.1.847a.1.1,0,0,0-.039.091.42.42,0,0,0,.375.316c1.046.062,2.156-.091,3.214-.085a52.2,52.2,0,0,0,8.393-.473,29.972,29.972,0,0,0,12.713-4.933c-.01.018-.02.031-.029.049s-.006.036-.012.053a31.293,31.293,0,0,1-3.364,3.754c-1.2,1.14-2.845,2.728-4.468,3.2-.082.022-.27.084-.262.2l.006.083c.005.086.162.1.217.1,5.666.464,11.492-2.659,15.448-6.694.157-.147.319-.291.464-.445a58.778,58.778,0,0,1,.229,9.393,25.613,25.613,0,0,1-.981,5.566c-.012.031-.528,1.389-.531,1.385.144.3-.965.857-1.032,1.267-.013.086.047.121.127.137.912.178,1.629-.59,2.307-1.117a22.5,22.5,0,0,0,4.21-4.227,28.255,28.255,0,0,0,5.179-12.537C393.786,199.535,391.4,191.634,383.46,184.7Z" fill="#301000"/>
    <path id="Path_13853" data-name="Path 13853" d="M365.443,164.034A24.908,24.908,0,0,0,353.8,158.7a20.9,20.9,0,0,0-2.877-.284c-9.106-1.786-19.022.708-27.123,5.012-5.867,3.116-10.842,7.524-16.065,11.571-5.787,4.488-11.736,8.436-18.714,10.818a.084.084,0,0,0-.063.1.179.179,0,0,0,.121.324c7.66-.678,14.123-5.119,20.324-9.3a88.583,88.583,0,0,1,15.08-8.232,68.706,68.706,0,0,0-6.025,4.468c-5.4,4.324-10.252,9.537-16.228,13.082-.137.082,0,.269.136.2a50.246,50.246,0,0,0,8.746-6.05c6.8-3.794,13.415-7.861,20.774-10.512a53.145,53.145,0,0,1,11.723-2.689,48.375,48.375,0,0,1,12.3.357c.6.217,1.2.435,1.8.649.15.053.332-.149.171-.258s-.347-.221-.519-.332a.131.131,0,0,0-.076-.189c-.156-.057-.314-.1-.471-.157a27.163,27.163,0,0,0-13.3-3.627,63.622,63.622,0,0,1,8.278-.718,67.869,67.869,0,0,1,13.128,1.509.3.3,0,0,0,.131-.006.666.666,0,0,0,.088.038A.27.27,0,0,0,365.443,164.034Z" fill="#424241" opacity="0.5" style="mix-blend-mode: screen;isolation: isolate"/>
    <path id="Path_13854" data-name="Path 13854" d="M406.019,191.519c-9.422-5.115-13.779-16.034-23.576-20.654a.1.1,0,0,0-.088.178c4.69,2.778,8.283,7.284,11.843,11.315,3.215,3.643,7.032,7.687,11.681,9.434A.154.154,0,0,0,406.019,191.519Z" fill="#424241" opacity="0.5" style="mix-blend-mode: screen;isolation: isolate"/>
  </g>
</svg>
