<svg xmlns="http://www.w3.org/2000/svg" xmlns:xlink="http://www.w3.org/1999/xlink" width="560.352" height="764.139" viewBox="0 0 560.352 764.139">
  <defs>
    <linearGradient id="linear-gradient" x1="0.5" x2="0.5" y2="1" gradientUnits="objectBoundingBox">
      <stop offset="0" stop-color="#feb600"/>
      <stop offset="1" stop-color="#f09819"/>
    </linearGradient>
    <linearGradient id="linear-gradient-4" x1="0.506" y1="-0.008" x2="0.506" xlink:href="#linear-gradient"/>
  </defs>
  <g id="Group_3672" data-name="Group 3672" transform="translate(2182.352 -1692.861)">
    <g id="Group_3197" data-name="Group 3197" transform="translate(-2182.352 1692.861)">
      <path id="Path_7975" data-name="Path 7975" d="M368.28,398.937c-14.335,40.635-48.682,12.115-48.682,12.115,0-13.569-3.821-16.821-6.007-17.577-.207-.056-.4-.112-.6-.169a3.2,3.2,0,0,0-.929-.039c-3.563-1.059-7.126-2.286-10.654-3.667-26.175-10.054-50.61-27.346-65.633-42.013a6.7,6.7,0,0,1-2.874-6.294s-11.6-12.928-12.735-15.119c-6.211-11.964-1.324-14.5-1.324-14.5-8.879-11.339,1.2-14.194,1.2-14.194s-1.479-3.44,3.958-6.085c6.677-3.232,22.285,1.813,36.757,8.107a209.346,209.346,0,0,0,30.977,10.546c4.387,1.134,7.02,1.644,7.02,1.644-11.358-14.5-1.324-18.88-1.324-18.88s10.531,11.527,26.381,15.4c29.358,7.182,38.959,29.9,39.441,45.265a31.993,31.993,0,0,1-.429,6.88C360.245,374.709,368.28,398.937,368.28,398.937Z" transform="translate(-215.184 20.844)" fill="#eea886"/>
      <path id="Path_7976" data-name="Path 7976" d="M276.138,314.347s1.739,15.743,10,26.382c-4.7-5.292-12.218-14.872-15.452-25.116,0,0-14.268-10.168-16.589-16.121,4.387,1.134,7.02,1.644,7.02,1.644A96.746,96.746,0,0,0,276.138,314.347Z" transform="translate(-177.542 31.405)" fill="#dc8f6a"/>
      <path id="Path_7977" data-name="Path 7977" d="M274.366,322.768a26.684,26.684,0,0,1-3.941-4.138C272.558,321.011,274.09,322.5,274.366,322.768Z" transform="translate(-161.744 53.619)" fill="#ff7f6a"/>
      <path id="Path_7978" data-name="Path 7978" d="M231.1,338.193c.86-4.723,6.6-3.779,10.612,0s16.347,13.066,21.225,14.25,1.4-35.246,5.735-42.914c0,0-5.162,0-15.775-5.354s-23.989-14.539-34.652-9.79c0,0,4.824-2.494,15.436,3.176s29.543,15.119,29.543,15.119,2.581,5.374-1.149,10.088-36.149-22.7-45.034-14.19c0,0,8.037.951,13.2,4.416s26.672,15.75,30.115,16.378,1.719,11.655-1.722,13.23c0,0-14.915-7.409-21.225-11.264S231.1,338.193,231.1,338.193Z" transform="translate(-213.386 23.943)" fill="#dc8f6a"/>
      <path id="Path_7979" data-name="Path 7979" d="M319.891,365.045C305.557,405.68,271.21,377.16,271.21,377.16c0-13.569-3.821-16.821-6.007-17.577,12.511,3.4,26.69,4.972,33.9-3.874,9.534-11.679-1.926-26.346-2.306-27.046.38.529,12.047,0,18.069-9.071a32,32,0,0,1-.429,6.88C311.856,340.817,319.891,365.045,319.891,365.045Z" transform="translate(-166.796 54.735)" fill="#dc8f6a"/>
      <path id="Path_7980" data-name="Path 7980" d="M415.7,629.2c-36.6,47.231-70.091,51.066-97.625,14.177-22.147-29.654-40.9-185.935-47.393-245.94-1.566-14.609-2.426-23.511-2.426-23.511,27.052,12.454,48.682-12.115,48.682-12.115l7.108,27.631,42.075,163.575C432.512,352.678,514.6,322.382,514.6,322.382,524.1,367.7,452.3,581.986,415.7,629.2Z" transform="translate(-163.842 57.974)" fill="#d18219"/>
      <path id="Path_7981" data-name="Path 7981" d="M639.89,413.963c-2.41-22.487-14.331-40.738-29.926-55.267C592.123,342.08,569.5,330.333,550.9,322.623a254.45,254.45,0,0,0-35.063-11.845s-.74,36.769-39.164,34.356c-7.494-.465-14.462-14.957-13.036-25.332a148.479,148.479,0,0,0-22.96,10.086c-27.042,14.375-69.706,45.7-80.788,103.78-.74,3.8-1.338,7.748-1.779,11.787-3.162,28.85-8.5,163.813,17.412,273.478H620.369c10.835-52.806,16.723-112.288,19.521-165.367Z" transform="translate(-79.538 44.505)" fill="#6f4700"/>
      <path id="Path_7982" data-name="Path 7982" d="M403.889,331.21l11.724,25.417,3.384,18.9s-23.46,164.539-23.46,283.4l12.308,16.536,19.29-13.23S414.355,588.681,428.582,378l9.5-19.014,36.132-25.514S422.388,310.987,403.889,331.21Z" transform="translate(-40.708 58.429)" fill="#f6921e"/>
      <path id="Path_7983" data-name="Path 7983" d="M426.489,360.619c12.17-12.835,35.606-35,37.855-46.7,3.211-16.713-49.467-4.728-49.467-4.728s-8.474,21.735-9.137,36.382l7.183,12.32Z" transform="translate(-30.836 37.829)" fill="#b88636"/>
      <path id="Path_7984" data-name="Path 7984" d="M410.8,409.3s1.1,17.107,12.686,17.107A55.687,55.687,0,0,0,463.544,409.3c.474-24,1.281-45.818,2.251-65.206q.658-13.331,1.407-25.1c3.115-50.045,6.88-78.235,6.88-78.235s-55.649,10.626-59.625,57.812q-1,11.736-1.708,22.586c-1.987,29.544-2.6,54.2-2.286,74.7C410.528,400.557,410.642,405.026,410.8,409.3Z" transform="translate(-26.344 -36.768)" fill="#eea886"/>
      <path id="Path_7985" data-name="Path 7985" d="M467.2,276.967q-.738,11.765-1.407,25.1c-11.543,20.4-30.684,46.432-55.332,51.764-.317-20.5.3-45.157,2.286-74.7Z" transform="translate(-26.344 5.26)" fill="#dc8f6a"/>
      <g id="Group_2554" data-name="Group 2554" transform="translate(288.97)">
        <path id="Path_8018" data-name="Path 8018" d="M29.742.115C45.926.022,58.937,20.784,58.8,46.488S45.439,93.105,29.255,93.2.06,72.529.195,46.825,13.558.208,29.742.115Z" transform="matrix(0.998, -0.059, 0.059, 0.998, 13.661, 149.514)" fill="#404041"/>
        <path id="Path_7986" data-name="Path 7986" d="M563.4,253.8a253.242,253.242,0,0,1-5.965,48.962c-5.629,26.086-14.744,51.648-24.982,74.353-9.906,21.949-24.9,46.179-43.561,63.916-11.578,11.013-24.561,19.535-38.618,23.476-22.608,6.318-47.871-4.367-58.973-27.379-10.152-21.1-7.988-46.838-7.689-69.83.634-51.339-20.162-106.2-6.756-156.683,3.766-14.164,11.683-25,23.523-32.037,40.694-24.153,121.659-23.63,150.952,21.817,8.041,12.461,11.454,27.977,11.982,43.24C563.433,247,563.469,250.4,563.4,253.8Z" transform="translate(-352.116 -127.368)" fill="#eea886"/>
        <path id="Path_7987" data-name="Path 7987" d="M500.125,227.524c-5.629,26.086-14.744,51.648-24.982,74.353-9.906,21.949-24.9,46.179-43.561,63.916,53.132-55.822,39.724-137.342,39.724-137.342Z" transform="translate(-294.807 -52.13)" fill="#dc8f6a"/>
        <path id="Path_7988" data-name="Path 7988" d="M459.153,261.664a89.331,89.331,0,0,1-3.791,8.734c-.155.285-.317.575-.474.92-6.63,13.414-21.158,36.19-42.685,36.19a26.4,26.4,0,0,1-7.738-1.1c-21.789-6.646-17.421-41.795-17.421-41.795a10.979,10.979,0,0,0,2.158,2.662c4,3.874,14.317,10.116,37.263,5.432,2.949-.575,6.16-1.387,9.632-2.368a.373.373,0,0,1,.212-.058A186.722,186.722,0,0,0,459.153,261.664Z" transform="translate(-338.241 -12.503)" fill="#8d031e"/>
        <path id="Path_7989" data-name="Path 7989" d="M454.26,251.946c13.093-19.166,43.181-30.624,53.659-11.352,7.758,14.265,3.929,32.517-4.212,43.636-11.563,15.778-44.834,19.95-54.151-5.5C446.207,269.589,448.7,260.081,454.26,251.946Z" transform="translate(-278.881 -48.497)" fill="#ff9d76"/>
        <path id="Path_7990" data-name="Path 7990" d="M458.415,273.067s6.789-23.128,16.07-32.616c9.428-9.641,21.36-5.493,23.153,16.186,0,0-5.979-5.268-10.052-2.4,0,0,9.019,23.323-15.785,28.82C471.8,283.054,471.046,267.814,458.415,273.067Z" transform="translate(-268.848 -42.821)" fill="#e27954"/>
        <path id="Path_7991" data-name="Path 7991" d="M448.225,267.019c-6.63,13.414-21.158,36.19-42.685,36.19a26.4,26.4,0,0,1-7.738-1.1,11.4,11.4,0,0,1-3.9-6.072c-2.473-9.939,9-22.026,25.9-27.629.634-.233,1.265-.462,1.895-.631a48.873,48.873,0,0,1,7.738-1.737.373.373,0,0,1,.212-.058C436.7,264.878,443.175,265.288,448.225,267.019Z" transform="translate(-331.579 -8.204)" fill="#b52445"/>
        <path id="Path_7992" data-name="Path 7992" d="M457.916,261.664a89.322,89.322,0,0,1-3.791,8.734c-43.159,28.2-66.16,6.294-66.16,6.294v-9.418C393.49,272.647,411.176,282.53,457.916,261.664Z" transform="translate(-337.004 -12.503)" fill="#fff"/>
        <g id="Group_2548" data-name="Group 2548" transform="translate(46.881 157.076)">
          <path id="Path_7993" data-name="Path 7993" d="M392.955,301.609c-2.754,0-5.184-.631-6.353-2.5-2.314-3.684,1.645-9.185,2.947-10.994,11.6-16.132,14.7-60.157,10.176-65.954a2.018,2.018,0,0,1,.189-2.664,1.616,1.616,0,0,1,2.426.205c6.158,7.891,2.361,53.448-10.091,70.755-2.908,4.043-3.136,5.992-2.813,6.506,1.1,1.752,8.523.676,14.494-1.392a1.7,1.7,0,0,1,2.16,1.236,1.932,1.932,0,0,1-1.125,2.37C402.778,299.939,397.436,301.609,392.955,301.609Z" transform="translate(-385.89 -219.047)" fill="#dc8f6a"/>
        </g>
        <g id="Group_2549" data-name="Group 2549" transform="translate(101.746 161.425)">
          <path id="Path_7994" data-name="Path 7994" d="M442.222,239.542c0,9.11-5.076,16.67-11.753,18.182a10.644,10.644,0,0,1-2.461.283c-7.864,0-14.23-8.258-14.23-18.466s6.367-18.483,14.23-18.483a10.645,10.645,0,0,1,2.461.283C437.146,222.855,442.222,230.432,442.222,239.542Z" transform="translate(-413.777 -221.059)" fill="#fff"/>
          <path id="Path_7995" data-name="Path 7995" d="M439.794,239.39c0,9.11-5.076,16.67-11.753,18.182-6.677-1.513-11.753-9.073-11.753-18.182s5.076-16.687,11.753-18.2C434.718,222.7,439.794,230.28,439.794,239.39Z" transform="translate(-411.349 -220.907)" fill="#2f2e41"/>
          <path id="Path_7996" data-name="Path 7996" d="M423.515,227.411a3.63,3.63,0,1,1-3.614-3.969A3.8,3.8,0,0,1,423.515,227.411Z" transform="translate(-411.349 -218.293)" fill="#fff"/>
        </g>
        <g id="Group_2550" data-name="Group 2550" transform="translate(31.619 163.683)">
          <path id="Path_7997" data-name="Path 7997" d="M406.58,240.587c0,9.11-5.076,16.67-11.753,18.182a10.644,10.644,0,0,1-2.461.283c-7.864,0-14.232-8.26-14.232-18.466S384.5,222.1,392.365,222.1a10.529,10.529,0,0,1,2.461.283C401.5,223.9,406.58,231.477,406.58,240.587Z" transform="translate(-378.133 -222.104)" fill="#fff"/>
          <path id="Path_7998" data-name="Path 7998" d="M404.151,240.435c0,9.11-5.076,16.67-11.753,18.182-6.677-1.513-11.753-9.073-11.753-18.182s5.076-16.687,11.753-18.2C399.075,223.748,404.151,231.325,404.151,240.435Z" transform="translate(-375.704 -221.952)" fill="#2f2e41"/>
          <path id="Path_7999" data-name="Path 7999" d="M387.87,228.456a3.629,3.629,0,1,1-3.612-3.969A3.8,3.8,0,0,1,387.87,228.456Z" transform="translate(-375.704 -219.338)" fill="#fff"/>
        </g>
        <g id="Group_2551" data-name="Group 2551" transform="translate(86.738 130.86)">
          <path id="Path_8000" data-name="Path 8000" d="M456.184,220.847a2.4,2.4,0,0,1-1.462-.5c-20.113-15.218-44.674-3.187-44.92-3.064a2.489,2.489,0,0,1-3.419-1.4,2.954,2.954,0,0,1,1.275-3.755c1.112-.56,27.5-13.466,49.992,3.55a3.014,3.014,0,0,1,.661,3.943A2.514,2.514,0,0,1,456.184,220.847Z" transform="translate(-406.149 -206.913)" fill="#2f2e41"/>
        </g>
        <g id="Group_2552" data-name="Group 2552" transform="translate(20.433 129.625)">
          <path id="Path_8001" data-name="Path 8001" d="M375.028,219.147a2.419,2.419,0,0,1-1.4-.454,3.009,3.009,0,0,1-.765-3.922,16.1,16.1,0,0,1,10.453-7.984c11.175-2.565,24.209,6.761,24.758,7.158a3.011,3.011,0,0,1,.732,3.926,2.446,2.446,0,0,1-3.575.808c-.116-.086-11.814-8.44-20.868-6.34a10.941,10.941,0,0,0-7.165,5.512A2.529,2.529,0,0,1,375.028,219.147Z" transform="translate(-372.448 -206.342)" fill="#2f2e41"/>
        </g>
        <path id="Path_8002" data-name="Path 8002" d="M581.408,223.079s.818-21.071-36.952-41.393-108.295-6.929-134.082,0c0,0,13.646-29.658,0-34.809-16.694-6.3-21.856,45.989-21.856,45.989s-1.81-43.469-17.827-31.5-9.015,54.055,15.019,72.7c0,0,54.881-20.538,116.036,0,0,0,8.31,58.309,36.972,72.994l-.616,61.667s16.5-40.518,43.3-38.893C581.408,329.836,614.254,245.732,581.408,223.079Z" transform="translate(-362.062 -146.35)" fill="#0c0c0c"/>
        <g id="Group_2553" data-name="Group 2553" transform="translate(113.297 20.057)">
          <path id="Path_8017" data-name="Path 8017" d="M47.525.882C73.085.31,93.485,13.047,93.089,29.33s-21.436,29.948-47,30.52S.134,47.685.529,31.4,21.965,1.453,47.525.882Z" transform="matrix(0.257, -0.966, 0.966, 0.257, 52.264, 221.354)" fill="#404041"/>
          <path id="Path_8003" data-name="Path 8003" d="M511.931,312.346s16.727-152.519-96.8-151.151c0,0,2.349-5.562,28.162-5.562s113.737,27.413,88.418,156.713C531.714,312.346,523.836,304.678,511.931,312.346Z" transform="translate(-411.323 -155.633)" fill="#6d6e70"/>
          <path id="Path_8004" data-name="Path 8004" d="M498.135,251.192s-20.363,63.147-78.614,60.95" transform="translate(-407.079 -44.715)" fill="none" stroke="#6d6e70" stroke-linecap="round" stroke-linejoin="round" stroke-width="1.749"/>
          <path id="Path_8005" data-name="Path 8005" d="M425.019,286.95h-7.278a4.784,4.784,0,0,1-4.545-4.991h0a4.784,4.784,0,0,1,4.545-4.991h7.278a4.785,4.785,0,0,1,4.547,4.991h0A4.785,4.785,0,0,1,425.019,286.95Z" transform="translate(-413.197 -14.798)" fill="#404041"/>
          <path id="Path_8006" data-name="Path 8006" d="M499.65,259.566c-2.32,18.93-14.2,34.273-26.539,34.273s-20.457-15.343-18.14-34.273,14.2-34.273,26.538-34.273S501.968,240.638,499.65,259.566Z" transform="translate(-373.165 -74.777)" fill="#808184"/>
        </g>
      </g>
      <path id="Path_8007" data-name="Path 8007" d="M419,336.247l-22.161,43.469s-10.451-42.469,27.914-72.764C424.75,306.952,417.329,323.019,419,336.247Z" transform="translate(-40.708 40.064)" fill="#d18219"/>
      <path id="Path_8008" data-name="Path 8008" d="M419.737,341.124l20.638-15.049-19.153-4.252s-8.442,8.414-10.038,17.381Z" transform="translate(-25.569 57.324)" fill="#b88636"/>
      <path id="Path_8009" data-name="Path 8009" d="M458.746,303.612s-8.879,33.634-42.459,40.213l21.16,51.555S484.452,363.257,492,331.808C492,331.808,473.018,297.415,458.746,303.612Z" transform="translate(-20.634 35.32)" fill="#d18219"/>
      <path id="Path_8010" data-name="Path 8010" d="M324.046,368.259c-14.834,16.009-44.674,10.129-53.364,7.995-1.566-14.609-2.426-23.511-2.426-23.511,27.052,12.454,48.682-12.115,48.682-12.115Z" transform="translate(-163.842 79.152)" fill="#d18219"/>
      <path id="Path_8011" data-name="Path 8011" d="M259.01,336.307c3.443,1.21,7.417,2.571,11.582,3.706a3.2,3.2,0,0,0-.929-.039C266.1,338.915,262.538,337.688,259.01,336.307Z" transform="translate(-172.787 74.137)" fill="#ff7f6a"/>
      <path id="Path_8012" data-name="Path 8012" d="M519.617,361.062a111.587,111.587,0,0,0-10.107-16.778S490.4,387.727,481.5,443.167s18.6,236.874,18.6,236.874l19.521.7Z" transform="translate(40.735 83.396)" fill="#d18219"/>
      <path id="Path_8013" data-name="Path 8013" d="M426.571,381.588s23.652,6.909,82.105.493l-8.912,70.073-37.9,14.8s-35.1-8.983-36.558-14.8C420.861,434.39,426.571,381.588,426.571,381.588Z" transform="translate(-9.547 104.696)" fill="rgba(0,0,0,0.51)"/>
    </g>
    <g id="Group_3198" data-name="Group 3198" transform="translate(-2124.07 2159.204) rotate(2)">
      <rect id="Rectangle_9" data-name="Rectangle 9" width="9.899" height="18.275" transform="translate(366 29.029)" fill="url(#linear-gradient)"/>
      <path id="Path_57" data-name="Path 57" d="M337.355,18.505h-9.712L319.55.23h9.914Z" transform="translate(87.004 28.799)" fill="url(#linear-gradient)"/>
      <path id="Path_58" data-name="Path 58" d="M243.877,18.505h-9.712L226.07.23h9.916Z" transform="translate(168.621 28.799)" fill="url(#linear-gradient)"/>
      <path id="Path_59" data-name="Path 59" d="M93.24,0l12.789.084L99.785,15.321Z" transform="translate(284.593 29)" fill="url(#linear-gradient-4)"/>
      <path id="Path_60" data-name="Path 60" d="M412.64.33l13,.015-6.431,15.426Z" transform="translate(5.728 28.712)" fill="url(#linear-gradient)"/>
      <line id="Line_6" data-name="Line 6" x2="65.359" transform="translate(366 50.002)" fill="none" stroke="#f29e13" stroke-miterlimit="10" stroke-width="1"/>
      <path id="Path_61" data-name="Path 61" d="M0,194.047V187.36H2.319a3.379,3.379,0,0,1,1.994.491A1.7,1.7,0,0,1,5,189.31a1.422,1.422,0,0,1-.48,1.135,2.211,2.211,0,0,1-1.367.46l1.88,3.136H3.548l-1.9-3.385a3.265,3.265,0,0,0,1.577-.393,1.126,1.126,0,0,0,.461-1,1.337,1.337,0,0,0-.456-1.111,2.184,2.184,0,0,0-1.377-.365h-.54v6.257Z" transform="translate(366.368 -134.595)" fill="#fff"/>
      <path id="Path_62" data-name="Path 62" d="M64.771,193.81H63.14v-6.45h1.631Z" transform="translate(310.227 -134.496)" fill="#fff"/>
      <path id="Path_63" data-name="Path 63" d="M110.7,190.868v2.186a4.654,4.654,0,0,1-1.275.753,3.828,3.828,0,0,1-1.369.252,3.457,3.457,0,0,1-2.52-.938,3.411,3.411,0,0,1,2.416-5.846,3.233,3.233,0,0,1,1.512.331,2.754,2.754,0,0,1,1.065,1l-.412.273a2.318,2.318,0,0,0-.8-.887,2.04,2.04,0,0,0-1.1-.3,1.975,1.975,0,0,0-1.658.8,3.572,3.572,0,0,0-.612,2.2,3.291,3.291,0,0,0,.586,2.083,1.958,1.958,0,0,0,1.638.731,2.386,2.386,0,0,0,.758-.117,1.743,1.743,0,0,0,.607-.339v-2.191Z" transform="translate(272.812 -134.338)" fill="#fff"/>
      <path id="Path_64" data-name="Path 64" d="M176.831,190.909v3.173h-1.3V187.36h1.3v3.066h2.934V187.36h1.291v6.722h-1.291v-3.173Z" transform="translate(209.861 -134.304)" fill="#fff"/>
      <path id="Path_65" data-name="Path 65" d="M241.663,194.046v-6.185H239.81v-.5h5.01v.5h-1.853v6.185Z" transform="translate(153.587 -134.234)" fill="#fff"/>
      <path id="Path_66" data-name="Path 66" d="M300.458,194.279l-1.443-3.611-1.385,3.611-2.83-6.919h1.336l1.844,4.68.765-1.986-1.115-2.694h1.326l1.825,4.6,1.723-4.6h.658Z" transform="translate(105.611 -134.18)" fill="#fff"/>
      <path id="Path_67" data-name="Path 67" d="M369.11,193.994l2.867-6.764,2.985,6.764h-1.379l-.727-1.765h-2.406l-.722,1.765Zm1.518-2.183h2.032l-1.012-2.419Z" transform="translate(41.303 -134.015)" fill="#fff"/>
      <path id="Path_68" data-name="Path 68" d="M428.016,194.112v-3.268l-2.337-3.484h1.529l1.762,2.772,1.889-2.772h.783l-2.331,3.3v3.445Z" transform="translate(-7.261 -134.097)" fill="#fff"/>
      <path id="Path_69" data-name="Path 69" d="M489.13,192.525a1.771,1.771,0,0,0,.6.625,1.486,1.486,0,0,0,.789.225,1.338,1.338,0,0,0,.931-.326,1.061,1.061,0,0,0,.359-.829q0-.814-1.6-1.393h-.017a3.083,3.083,0,0,1-1.223-.711,1.431,1.431,0,0,1-.361-1,1.709,1.709,0,0,1,.622-1.361,2.377,2.377,0,0,1,1.6-.532,2.7,2.7,0,0,1,1.292.3,1.87,1.87,0,0,1,.822.838l-.471.282a1.391,1.391,0,0,0-1.369-.93,1.23,1.23,0,0,0-.851.3,1,1,0,0,0-.33.78.876.876,0,0,0,.271.651,3.16,3.16,0,0,0,1.022.553,4.211,4.211,0,0,1,1.554.868,1.52,1.52,0,0,1,.383,1.063,1.771,1.771,0,0,1-.667,1.416,2.535,2.535,0,0,1-1.687.558,2.979,2.979,0,0,1-1.274-.252,2.5,2.5,0,0,1-.931-.783Z" transform="translate(-62.177 -133.915)" fill="#fff"/>
    </g>
  </g>
</svg>
