<svg id="Group_7321" data-name="Group 7321" xmlns="http://www.w3.org/2000/svg" width="279.748" height="391.008" viewBox="0 0 279.748 391.008">
  <path id="Path_22068" data-name="Path 22068" d="M575.611,380.709l-78.7-23.2-78.7,23.2-51.76,301.933S492.8,634.134,496.906,543.463c4.1,90.671,130.464,139.179,130.464,139.179Z" transform="translate(-357.031 -315.16)" fill="#1f2b55" fill-rule="evenodd"/>
  <path id="Rectangle_1224" data-name="Rectangle 1224" d="M19.384,0H140.636A19.384,19.384,0,0,1,160.02,19.384V131.1a0,0,0,0,1,0,0H0a0,0,0,0,1,0,0V19.384A19.384,19.384,0,0,1,19.384,0Z" transform="translate(59.864)" fill="#1f2b55"/>
  <path id="Path_22069" data-name="Path 22069" d="M568.178,517.121c-17.881-21.643-23.526-95.047-23.526-95.047l-41.062-25.409-41.066,25.409s-5.645,73.4-23.526,95.047C428.326,530.04,363.713,551,363.713,551v59.285H643.461V551S578.848,530.04,568.178,517.121Z" transform="translate(-363.713 -219.277)" fill="#f1cda8" fill-rule="evenodd"/>
  <path id="Path_22070" data-name="Path 22070" d="M477.175,422.074l-41.062-25.409L396.8,420.991q-1.019,2.121-2.035,4.345c-.476,5.131-1.576,15.812-3.493,28.3,12.863,8.3,42.752,25.437,64.261,21.136,8.408-1.683,18.271-4,27.961-6.425C478.913,444.587,477.175,422.074,477.175,422.074Z" transform="translate(-296.237 -219.277)" fill="#e3b58e" fill-rule="evenodd"/>
  <path id="Path_22071" data-name="Path 22071" d="M424.739,386.424s7.656-13.177,19.888-10.353,2.566,43.29-19.888,45.642Z" transform="translate(-214.284 -270.674)" fill="#f1cda8" fill-rule="evenodd"/>
  <path id="Path_22072" data-name="Path 22072" d="M401.724,386.424s-7.659-13.177-19.892-10.353-2.566,43.29,19.892,45.642Z" transform="translate(-332.428 -270.674)" fill="#f1cda8" fill-rule="evenodd"/>
  <path id="Path_22073" data-name="Path 22073" d="M455.655,364.235s-30.572,44.556-71.848,50.2v47.812a70.575,70.575,0,0,0,70.579,70.579h0a70.577,70.577,0,0,0,70.579-70.579V413.981C484.982,406.3,455.655,364.235,455.655,364.235Z" transform="translate(-314.511 -298.686)" fill="#f1cda8" fill-rule="evenodd"/>
  <path id="Path_22074" data-name="Path 22074" d="M568.178,445.9c-3.549-4.293-6.6-10.642-9.242-18.033-43.728,12.65-93.643,2.038-109.952-2.117-2.8,8.3-6.1,15.45-9.987,20.15-10.67,12.918-75.283,33.879-75.283,33.879v59.285H643.461V479.78S578.848,458.82,568.178,445.9Z" transform="translate(-363.713 -148.057)" fill="#e9c17a" fill-rule="evenodd"/>
  <g id="Group_7320" data-name="Group 7320" transform="translate(87.182 100.123)">
    <path id="Path_22075" data-name="Path 22075" d="M403.881,431.834a1.412,1.412,0,0,1,0-2.824c.076,0,7.446-.066,10.16-4.083,1.966-2.914-1.214-25.623-4.1-40.821a1.413,1.413,0,0,1,2.776-.531c1.2,6.3,7,37.993,3.666,42.932C412.824,431.772,404.244,431.834,403.881,431.834Z" transform="translate(-355.992 -354.252)" fill="#a5764f"/>
    <path id="Path_22076" data-name="Path 22076" d="M405.368,390.088c0,4.728-2.687,8.563-6,8.563s-6-3.835-6-8.563,2.683-8.559,6-8.559S405.368,385.36,405.368,390.088Z" transform="translate(-378.277 -356.462)" fill="#1f2b55" fill-rule="evenodd"/>
    <path id="Path_22077" data-name="Path 22077" d="M391.813,388.995a2.819,2.819,0,0,1-2.349-4.383c.252-.379,6.3-9.346,16.205-10.27,6.428-.621,12.825,2.3,18.967,8.632a2.822,2.822,0,0,1-4.049,3.931c-4.894-5.038-9.729-7.356-14.4-6.939-7.242.672-11.974,7.7-12.018,7.766A2.821,2.821,0,0,1,391.813,388.995Z" transform="translate(-388.993 -374.26)" fill="#1f2b55"/>
    <path id="Path_22078" data-name="Path 22078" d="M411.7,390.088c0,4.728,2.686,8.563,6,8.563s6-3.835,6-8.563-2.686-8.559-6-8.559S411.7,385.36,411.7,390.088Z" transform="translate(-333.404 -356.462)" fill="#1f2b55" fill-rule="evenodd"/>
    <path id="Path_22079" data-name="Path 22079" d="M442.606,388.994a2.814,2.814,0,0,1-2.352-1.255h0c-.048-.072-4.863-7.128-12.06-7.777-4.662-.41-9.48,1.914-14.363,6.942a2.822,2.822,0,0,1-4.049-3.931c6.142-6.328,12.539-9.249,18.971-8.632,9.9.924,15.95,9.891,16.2,10.27a2.819,2.819,0,0,1-2.349,4.383Z" transform="translate(-340.043 -374.26)" fill="#1f2b55"/>
    <path id="Path_22080" data-name="Path 22080" d="M420.461,409.61a43.268,43.268,0,0,1-21.94-6.17A1.411,1.411,0,0,1,400.1,401.1c.783.528,19.474,12.739,39.607-.021a1.411,1.411,0,0,1,1.51,2.383A38.192,38.192,0,0,1,420.461,409.61Z" transform="translate(-367.192 -309.133)" fill="#1f2b55"/>
  </g>
  <path id="Path_22081" data-name="Path 22081" d="M520.51,449.553a22.735,22.735,0,0,1-4.1-3.652c-3.549-4.293-6.6-10.642-9.242-18.033-43.728,12.65-93.643,2.038-109.952-2.117-2.8,8.3-6.1,15.45-9.987,20.15a18.3,18.3,0,0,1-2.369,2.3l54.2,90.86h28.065Z" transform="translate(-311.942 -148.057)" fill="#f7ebdd"/>
</svg>
