<svg id="Group_7317" data-name="Group 7317" xmlns="http://www.w3.org/2000/svg" width="294.701" height="400.06" viewBox="0 0 294.701 400.06">
  <path id="Path_22039" data-name="Path 22039" d="M371.4,77.364l-2.9-.39L365.318,68.4a16.507,16.507,0,0,0-15.481-10.77h-66.62S266.747,53.4,260.632,47.278s-20.233-9.411-25.485,0,6.194,24.468,6.194,24.468a22.789,22.789,0,0,0-15.626,21.633V175.6l85.732,69.165,74.29-67.755V93.731A16.512,16.512,0,0,0,371.4,77.364Z" transform="translate(-158.377 -41.391)" fill="#1f2b55" fill-rule="evenodd"/>
  <path id="Path_22040" data-name="Path 22040" d="M423.986,221.519a22.314,22.314,0,0,1-16.374-19.1L397.27,100.086l-43.732-3.169-43.732,3.169L299.464,202.417a22.309,22.309,0,0,1-16.374,19.1l-76.9,25.209v58.761h294.7V246.728Z" transform="translate(-206.189 94.571)" fill="#f1cda8" fill-rule="evenodd"/>
  <path id="Path_22041" data-name="Path 22041" d="M410.212,129.881l-.048.014c-58.73,16.164-113.249,0-113.249,0l-.069.024A22.611,22.611,0,0,1,283.09,140.8l-76.9,25.209v58.761h294.7V166.012l-76.9-25.209A22.594,22.594,0,0,1,410.212,129.881Z" transform="translate(-206.189 175.287)" fill="#e9c17a"/>
  <path id="Path_22042" data-name="Path 22042" d="M336.689,182.829l-8.363-82.742-43.732-3.169-43.732,3.169-6.518,64.479C258.968,178.08,301.5,195.937,336.689,182.829Z" transform="translate(-137.246 94.571)" fill="#e3b58e" fill-rule="evenodd"/>
  <path id="Path_22043" data-name="Path 22043" d="M269.382,123.046s22.116-9.591,25.409-31.972-22.585-17.357-25.409-6.394Z" transform="translate(-51.454 41.805)" fill="#f1cda8" fill-rule="evenodd"/>
  <path id="Path_22044" data-name="Path 22044" d="M246.7,123.046s-22.116-9.591-25.409-31.972S243.876,73.717,246.7,84.68Z" transform="translate(-169.927 41.805)" fill="#f1cda8" fill-rule="evenodd"/>
  <path id="Path_22045" data-name="Path 22045" d="M344.679,62.12s-21.812,11.556-47.222,15.436S248.78,72.38,248.78,72.38c-1.762,23.292-15.077,40.7-15.077,40.7L228.45,139.9v30.651c0,37.838,31.6,75.362,70.579,75.362h0c38.98,0,70.579-37.524,70.579-75.362V137.9l-7.452-27.41C342.158,87.553,344.679,62.12,344.679,62.12Z" transform="translate(-151.68 9.367)" fill="#f1cda8" fill-rule="evenodd"/>
  <g id="Group_7316" data-name="Group 7316" transform="translate(94.658 108.315)">
    <path id="Path_22046" data-name="Path 22046" d="M248.524,130.37a1.41,1.41,0,0,1,0-2.821c.072,0,7.446-.069,10.156-4.083,1.966-2.914-1.214-25.627-4.1-40.828a1.411,1.411,0,1,1,2.773-.524c1.2,6.3,7,37.993,3.666,42.932C257.467,130.311,248.89,130.37,248.524,130.37Z" transform="translate(-200.638 -52.794)" fill="#a5764f"/>
    <path id="Path_22047" data-name="Path 22047" d="M250.011,88.626c0,4.728-2.683,8.559-6,8.559s-6-3.831-6-8.559,2.687-8.559,6-8.559S250.011,83.9,250.011,88.626Z" transform="translate(-222.923 -55.003)" fill="#1f2b55" fill-rule="evenodd"/>
    <path id="Path_22048" data-name="Path 22048" d="M236.457,87.531a2.783,2.783,0,0,1-1.555-.469,2.827,2.827,0,0,1-.8-3.914c.255-.379,6.3-9.346,16.205-10.27,6.425-.607,12.829,2.3,18.971,8.632a2.823,2.823,0,0,1-4.052,3.931c-4.894-5.038-9.735-7.339-14.395-6.942-7.242.676-11.974,7.7-12.022,7.77A2.815,2.815,0,0,1,236.457,87.531Z" transform="translate(-233.637 -72.799)" fill="#1f2b55"/>
    <path id="Path_22049" data-name="Path 22049" d="M256.34,88.626c0,4.728,2.686,8.559,6,8.559s6-3.831,6-8.559-2.686-8.559-6-8.559S256.34,83.9,256.34,88.626Z" transform="translate(-178.047 -55.003)" fill="#1f2b55" fill-rule="evenodd"/>
    <path id="Path_22050" data-name="Path 22050" d="M287.251,87.531a2.81,2.81,0,0,1-2.352-1.255h0c-.048-.072-4.863-7.128-12.063-7.777-4.666-.4-9.477,1.914-14.36,6.942a2.822,2.822,0,1,1-4.049-3.931c6.142-6.328,12.529-9.239,18.967-8.632,9.9.924,15.953,9.891,16.205,10.27a2.823,2.823,0,0,1-.793,3.914A2.783,2.783,0,0,1,287.251,87.531Z" transform="translate(-184.687 -72.799)" fill="#1f2b55"/>
    <path id="Path_22051" data-name="Path 22051" d="M265.1,108.148a43.284,43.284,0,0,1-21.94-6.17,1.411,1.411,0,0,1,1.576-2.342c.786.524,19.471,12.736,39.607-.021A1.411,1.411,0,1,1,285.857,102,38.177,38.177,0,0,1,265.1,108.148Z" transform="translate(-211.837 -7.674)" fill="#1f2b55"/>
  </g>
  <path id="Path_22052" data-name="Path 22052" d="M370.7,140.8a22.606,22.606,0,0,1-13.774-10.922l-.048.014c-58.73,16.164-113.249,0-113.249,0l-.069.021A22.6,22.6,0,0,1,229.805,140.8l-1.855.61c12.139,8.273,38.721,21.957,80.377,20.5,33.872-1.186,59.737-9.677,75.707-16.743Z" transform="translate(-152.905 175.287)" fill="#f7ebdd"/>
</svg>
