<svg id="Group_7319" data-name="Group 7319" xmlns="http://www.w3.org/2000/svg" width="294.701" height="386.303" viewBox="0 0 294.701 386.303">
  <path id="Path_22053" data-name="Path 22053" d="M379.6,368.825a8.558,8.558,0,0,1-8.559-8.559v-5.114a8.561,8.561,0,0,0-8.563-8.559H287.854c-32.979,0-63.13,22.426-63.13,55.405l3.418,61.051,7.039,28.937,89.988,18,57.875-28.234,5.121-31.741,3.418-60.716C391.582,378.354,384.329,368.825,379.6,368.825Z" transform="translate(-160.804 -346.592)" fill="#1f2b55" fill-rule="evenodd"/>
  <path id="Path_22054" data-name="Path 22054" d="M423.986,522.731a22.314,22.314,0,0,1-16.374-19.1L397.27,401.3l-43.732-3.169L309.806,401.3,299.464,503.629a22.309,22.309,0,0,1-16.374,19.1l-76.9,25.209V606.7h294.7V547.94Z" transform="translate(-206.189 -220.398)" fill="#f1cda8" fill-rule="evenodd"/>
  <path id="Path_22055" data-name="Path 22055" d="M410.212,431.093l-.048.014c-58.73,16.164-113.249,0-113.249,0l-.069.024a22.612,22.612,0,0,1-13.756,10.884l-76.9,25.209v58.761h294.7V467.224l-76.9-25.209A22.6,22.6,0,0,1,410.212,431.093Z" transform="translate(-206.189 -139.682)" fill="#e9c17a"/>
  <path id="Path_22056" data-name="Path 22056" d="M336.689,484.041,328.326,401.3l-43.732-3.169L240.863,401.3l-6.518,64.482C258.968,479.292,301.5,497.149,336.689,484.041Z" transform="translate(-137.246 -220.398)" fill="#e3b58e" fill-rule="evenodd"/>
  <path id="Path_22057" data-name="Path 22057" d="M269.382,424.257s22.116-9.591,25.409-31.972-22.585-17.357-25.409-6.394Z" transform="translate(-51.454 -273.163)" fill="#f1cda8" fill-rule="evenodd"/>
  <path id="Path_22058" data-name="Path 22058" d="M246.7,424.257s-22.116-9.591-25.409-31.972,22.588-17.357,25.409-6.394Z" transform="translate(-169.927 -273.163)" fill="#f1cda8" fill-rule="evenodd"/>
  <path id="Path_22059" data-name="Path 22059" d="M351.124,397.961a52.026,52.026,0,0,1-5.79-23.292S342.509,360.2,328.749,360.2c-15.177,0-24.844,21.6-45.173,31.762-22.585,11.291-36.348,3.528-36.348,3.528s-6.628,16.584-12.7,25.409l-6.073,25.406v33.124c0,37.838,31.6,75.362,70.579,75.362h0c38.98,0,70.579-37.524,70.579-75.362V442.072l-6.983-25.389A149.83,149.83,0,0,1,351.124,397.961Z" transform="translate(-151.68 -313.266)" fill="#f1cda8" fill-rule="evenodd"/>
  <g id="Group_7318" data-name="Group 7318" transform="translate(94.658 107.957)">
    <path id="Path_22060" data-name="Path 22060" d="M248.524,435.469a1.411,1.411,0,0,1,0-2.821c.072,0,7.442-.069,10.156-4.083,1.966-2.918-1.214-25.627-4.1-40.825a1.412,1.412,0,1,1,2.773-.531c1.2,6.3,7,37.993,3.666,42.932C257.467,435.407,248.89,435.469,248.524,435.469Z" transform="translate(-200.638 -357.894)" fill="#a5764f"/>
    <path id="Path_22061" data-name="Path 22061" d="M250.011,393.726c0,4.724-2.683,8.559-6,8.559s-6-3.835-6-8.559,2.687-8.563,6-8.563S250.011,389,250.011,393.726Z" transform="translate(-222.923 -360.103)" fill="#1f2b55" fill-rule="evenodd"/>
    <path id="Path_22062" data-name="Path 22062" d="M236.457,392.627a2.824,2.824,0,0,1-2.352-4.383c.255-.379,6.3-9.346,16.205-10.27,6.425-.6,12.829,2.3,18.971,8.632a2.823,2.823,0,0,1-4.052,3.932c-4.894-5.038-9.735-7.356-14.395-6.942-7.242.676-11.974,7.7-12.022,7.77A2.815,2.815,0,0,1,236.457,392.627Z" transform="translate(-233.637 -377.896)" fill="#1f2b55"/>
    <path id="Path_22063" data-name="Path 22063" d="M256.34,393.726c0,4.724,2.686,8.559,6,8.559s6-3.835,6-8.559-2.686-8.563-6-8.563S256.34,389,256.34,393.726Z" transform="translate(-178.047 -360.103)" fill="#1f2b55" fill-rule="evenodd"/>
    <path id="Path_22064" data-name="Path 22064" d="M287.251,392.627a2.819,2.819,0,0,1-2.352-1.255h0c-.048-.072-4.863-7.132-12.063-7.776-4.666-.411-9.477,1.914-14.36,6.942a2.822,2.822,0,1,1-4.049-3.932c6.142-6.328,12.529-9.232,18.967-8.632,9.9.924,15.953,9.891,16.205,10.27a2.822,2.822,0,0,1-2.349,4.383Z" transform="translate(-184.687 -377.896)" fill="#1f2b55"/>
    <path id="Path_22065" data-name="Path 22065" d="M265.1,413.242a43.3,43.3,0,0,1-21.94-6.166,1.411,1.411,0,0,1,1.576-2.342c.786.524,19.471,12.739,39.607-.021a1.411,1.411,0,1,1,1.511,2.383A38.171,38.171,0,0,1,265.1,413.242Z" transform="translate(-211.837 -312.771)" fill="#1f2b55"/>
  </g>
  <path id="Path_22066" data-name="Path 22066" d="M364.161,440.832a22.562,22.562,0,0,1-10.587-9.739l-.048.014c-58.73,16.164-113.249,0-113.249,0l-.069.024a22.576,22.576,0,0,1-10.887,9.846c8.059,3.935,32.365,13.96,70.948,13.96C333.282,454.937,354.273,446.253,364.161,440.832Z" transform="translate(-149.55 -139.682)" fill="#f7ebdd"/>
  <path id="Path_22067" data-name="Path 22067" d="M220.878,485.336H414.265V447.694H220.878Z" transform="translate(-170.222 -99.033)" fill="#f7ebdd"/>
</svg>
