<svg xmlns="http://www.w3.org/2000/svg" viewBox="0 0 500 500"><g id="background-simple--inject-35"><path d="M415.34,324.94s37.13-44.87,27.13-123S381.07,101.26,348.23,101,284,136.83,239.7,144.11,134,130.72,84.06,148.2,29.8,270.79,70.5,312.18,197.58,351.94,249,341.55,377.5,372.69,415.34,324.94Z" style="fill:#FCB514"></path><path d="M415.34,324.94s37.13-44.87,27.13-123S381.07,101.26,348.23,101,284,136.83,239.7,144.11,134,130.72,84.06,148.2,29.8,270.79,70.5,312.18,197.58,351.94,249,341.55,377.5,372.69,415.34,324.94Z" style="fill:#fff;opacity:0.7000000000000001"></path></g><g id="Clouds--inject-35"><path d="M269.83,116.11c-4.79-2.61-7-.44-8.71-2.61s4.79-7.84-8.27-13.49c0,0-.87-12.19-18.71-12.63s-13.06,12.19-17.85,15.24-6.09-1.74-10.88,1.3-2.61,9.14-6.53,10-9.14-3.91-13.92-.87-4.79,5.66-7,5.66-6.53-1.74-9.14,0-5.66,3.92-5.66,3.92H273.31S274.61,118.72,269.83,116.11Z" style="fill:#FCB514"></path><path d="M269.83,116.11c-4.79-2.61-7-.44-8.71-2.61s4.79-7.84-8.27-13.49c0,0-.87-12.19-18.71-12.63s-13.06,12.19-17.85,15.24-6.09-1.74-10.88,1.3-2.61,9.14-6.53,10-9.14-3.91-13.92-.87-4.79,5.66-7,5.66-6.53-1.74-9.14,0-5.66,3.92-5.66,3.92H273.31S274.61,118.72,269.83,116.11Z" style="fill:#FCB514"></path><path d="M269.83,116.11c-4.79-2.61-7-.44-8.71-2.61s4.79-7.84-8.27-13.49c0,0-.87-12.19-18.71-12.63s-13.06,12.19-17.85,15.24-6.09-1.74-10.88,1.3-2.61,9.14-6.53,10-9.14-3.91-13.92-.87-4.79,5.66-7,5.66-6.53-1.74-9.14,0-5.66,3.92-5.66,3.92H273.31S274.61,118.72,269.83,116.11Z" style="fill:#fff;opacity:0.7000000000000001"></path><path d="M403.41,163c-2.64-1.45-3.84-.24-4.8-1.45s2.64-4.32-4.57-7.45c0,0-.48-6.73-10.34-7s-7.21,6.73-9.85,8.42-3.37-1-6,.72-1.44,5-3.61,5.53-5.05-2.17-7.69-.49-2.64,3.13-3.85,3.13-3.6-1-5,0-3.13,2.16-3.13,2.16h60.82S406.06,164.39,403.41,163Z" style="fill:#fff;opacity:0.8"></path><path d="M118.2,217.63c-2.64-1.44-3.85-.24-4.81-1.44s2.65-4.33-4.56-7.46c0,0-.48-6.73-10.34-7s-7.21,6.73-9.86,8.42-3.36-1-6,.72-1.45,5-3.61,5.53-5-2.17-7.69-.48-2.65,3.12-3.85,3.12-3.6-1-5.05,0-3.12,2.16-3.12,2.16h60.81S120.85,219.07,118.2,217.63Z" style="fill:#fff;opacity:0.8"></path></g><g id="Buildings--inject-35"><polygon points="253.09 305.53 251.48 139 284.33 138.68 283.37 311.01 253.09 305.53" style="fill:#fff;stroke:#263238;stroke-linecap:round;stroke-linejoin:round"></polygon><line x1="255.44" y1="142.46" x2="255.7" y2="210.46" style="fill:none;stroke:#263238;stroke-linecap:round;stroke-linejoin:round;stroke-width:0.75px"></line><line x1="260.26" y1="142.72" x2="260.26" y2="225.45" style="fill:none;stroke:#263238;stroke-linecap:round;stroke-linejoin:round;stroke-width:0.75px"></line><line x1="265.61" y1="142.46" x2="266.15" y2="226.52" style="fill:none;stroke:#263238;stroke-linecap:round;stroke-linejoin:round;stroke-width:0.75px"></line><line x1="272.3" y1="143.26" x2="272.3" y2="225.45" style="fill:none;stroke:#263238;stroke-linecap:round;stroke-linejoin:round;stroke-width:0.75px"></line><line x1="278.46" y1="143.53" x2="278.46" y2="286.77" style="fill:none;stroke:#263238;stroke-linecap:round;stroke-linejoin:round;stroke-width:0.75px"></line><line x1="253.03" y1="149.95" x2="281.94" y2="150.22" style="fill:none;stroke:#263238;stroke-linecap:round;stroke-linejoin:round;stroke-width:0.75px"></line><line x1="253.3" y1="160.66" x2="281.68" y2="161.46" style="fill:none;stroke:#263238;stroke-linecap:round;stroke-linejoin:round;stroke-width:0.75px"></line><line x1="253.83" y1="171.64" x2="281.14" y2="172.98" style="fill:none;stroke:#263238;stroke-linecap:round;stroke-linejoin:round;stroke-width:0.75px"></line><line x1="253.56" y1="182.62" x2="281.68" y2="184.49" style="fill:none;stroke:#263238;stroke-linecap:round;stroke-linejoin:round;stroke-width:0.75px"></line><line x1="253.83" y1="193.33" x2="280.87" y2="196.27" style="fill:none;stroke:#263238;stroke-linecap:round;stroke-linejoin:round;stroke-width:0.75px"></line><polygon points="284.33 138.68 309.78 139 307.85 293.94 283.37 311.01 284.33 138.68" style="fill:#263238;stroke:#263238;stroke-linecap:round;stroke-linejoin:round"></polygon><line x1="307.16" y1="142.72" x2="307.16" y2="225.45" style="fill:none;stroke:#fff;stroke-linecap:round;stroke-linejoin:round;stroke-width:0.75px"></line><line x1="301.81" y1="142.46" x2="301.87" y2="237.15" style="fill:none;stroke:#fff;stroke-linecap:round;stroke-linejoin:round;stroke-width:0.75px"></line><line x1="295.12" y1="143.26" x2="295.25" y2="240.62" style="fill:none;stroke:#fff;stroke-linecap:round;stroke-linejoin:round;stroke-width:0.75px"></line><line x1="288.96" y1="143.53" x2="288.96" y2="286.77" style="fill:none;stroke:#fff;stroke-linecap:round;stroke-linejoin:round;stroke-width:0.75px"></line><line x1="309.11" y1="149.89" x2="285.48" y2="150.22" style="fill:none;stroke:#fff;stroke-linecap:round;stroke-linejoin:round;stroke-width:0.75px"></line><line x1="309.11" y1="161.23" x2="285.74" y2="161.46" style="fill:none;stroke:#fff;stroke-linecap:round;stroke-linejoin:round;stroke-width:0.75px"></line><line x1="309.74" y1="171.62" x2="286.28" y2="172.98" style="fill:none;stroke:#fff;stroke-linecap:round;stroke-linejoin:round;stroke-width:0.75px"></line><line x1="308.8" y1="183.28" x2="285.74" y2="184.49" style="fill:none;stroke:#fff;stroke-linecap:round;stroke-linejoin:round;stroke-width:0.75px"></line><line x1="308.8" y1="193.99" x2="286.55" y2="196.27" style="fill:none;stroke:#fff;stroke-linecap:round;stroke-linejoin:round;stroke-width:0.75px"></line><line x1="308.17" y1="205.02" x2="285.92" y2="207.3" style="fill:none;stroke:#fff;stroke-linecap:round;stroke-linejoin:round;stroke-width:0.75px"></line><line x1="308.17" y1="214.78" x2="285.29" y2="218.32" style="fill:none;stroke:#fff;stroke-linecap:round;stroke-linejoin:round;stroke-width:0.75px"></line><line x1="307.16" y1="225.45" x2="284.66" y2="229.35" style="fill:none;stroke:#fff;stroke-linecap:round;stroke-linejoin:round;stroke-width:0.75px"></line><rect x="280.45" y="84" width="2.23" height="35.12" style="fill:#fff;stroke:#263238;stroke-linecap:round;stroke-linejoin:round"></rect><polygon points="267.39 125.27 267.28 116.86 294.84 117.3 295.06 125.83 267.39 125.27" style="fill:#fff;stroke:#263238;stroke-linecap:round;stroke-linejoin:round"></polygon><polygon points="282.44 125.49 282.44 117.3 294.84 117.3 295.06 125.83 282.44 125.49" style="fill:#263238;stroke:#263238;stroke-linecap:round;stroke-linejoin:round"></polygon><polygon points="251.48 139 258.24 131.27 284.33 130.95 284.33 138.68 251.48 139" style="fill:#fff;stroke:#263238;stroke-linecap:round;stroke-linejoin:round"></polygon><polygon points="284.33 130.95 303.98 131.59 309.78 139 284.33 138.68 284.33 130.95" style="fill:#263238;stroke:#263238;stroke-linecap:round;stroke-linejoin:round"></polygon><polygon points="258.24 131.27 258.24 125.47 284.32 125.27 284.33 130.95 258.24 131.27" style="fill:#fff;stroke:#263238;stroke-linecap:round;stroke-linejoin:round"></polygon><polygon points="284.32 125.27 304.02 125.94 303.98 131.59 284.33 130.95 284.32 125.27" style="fill:#263238;stroke:#263238;stroke-linecap:round;stroke-linejoin:round"></polygon><polygon points="383.36 285.14 402.94 289.54 404.41 250.88 419.58 244.02 440.63 248.92 439.65 311.57 450.91 313.53 449.93 416.78 394.62 399.19 350.08 385.97 383.36 285.14" style="fill:#263238"></polygon><polygon points="305.99 196.7 362.5 201.49 381.02 196.38 323.87 191.91 305.99 196.7" style="fill:#fff;stroke:#263238;stroke-linecap:round;stroke-linejoin:round"></polygon><polygon points="362.5 201.49 360.9 295.35 379.42 286.73 381.02 196.38 362.5 201.49" style="fill:#263238;stroke:#263238;stroke-linecap:round;stroke-linejoin:round"></polygon><polygon points="305.99 196.7 305.67 283.54 360.9 295.35 362.5 201.49 305.99 196.7" style="fill:#fff;stroke:#263238;stroke-linecap:round;stroke-linejoin:round"></polygon><polygon points="353.36 223.31 311.27 219.23 311.27 201.77 353.36 205.85 353.36 223.31" style="fill:#FCB514;stroke:#263238;stroke-miterlimit:10"></polygon><text transform="matrix(1, 0.1, 0, 1, 316.07, 215.16)" style="font-size:9.638489723205566px;fill:#263238;font-family:Antonio-Bold, Antonio;font-weight:700"><tspan style="letter-spacing:-0.013203868959433599em">W</tspan><tspan x="6.41" y="0">ANTED</tspan></text><polygon points="295.93 244.75 332.33 249.3 354.12 239.72 319.4 235.65 295.93 244.75" style="fill:#fff;stroke:#263238;stroke-linecap:round;stroke-linejoin:round"></polygon><polygon points="302.69 244.22 330.63 247.71 347.36 240.36 320.71 237.23 302.69 244.22" style="fill:#fff;stroke:#263238;stroke-linecap:round;stroke-linejoin:round;stroke-width:0.75px"></polygon><polygon points="295.93 244.75 294.98 318.5 330.41 328.07 332.33 249.3 295.93 244.75" style="fill:#fff;stroke:#263238;stroke-linecap:round;stroke-linejoin:round"></polygon><polygon points="332.33 249.3 354.12 239.72 352.68 318.26 330.41 328.07 332.33 249.3" style="fill:#263238;stroke:#263238;stroke-linecap:round;stroke-linejoin:round"></polygon><polygon points="209.22 339.66 206.12 248.25 175.85 242.82 178.76 331.87 209.22 339.66" style="fill:#fff;stroke:#263238;stroke-linecap:round;stroke-linejoin:round"></polygon><line x1="178.06" y1="275.25" x2="205.37" y2="281.95" style="fill:none;stroke:#263238;stroke-linecap:round;stroke-linejoin:round;stroke-width:0.75px"></line><line x1="179.4" y1="278.47" x2="205.64" y2="285.16" style="fill:none;stroke:#263238;stroke-linecap:round;stroke-linejoin:round;stroke-width:0.75px"></line><line x1="179.67" y1="295.6" x2="205.91" y2="302.29" style="fill:none;stroke:#263238;stroke-linecap:round;stroke-linejoin:round;stroke-width:0.75px"></line><line x1="178.33" y1="292.92" x2="205.64" y2="300.15" style="fill:none;stroke:#263238;stroke-linecap:round;stroke-linejoin:round;stroke-width:0.75px"></line><polygon points="206.12 248.25 230.96 241.27 232.12 320.47 209.22 339.66 206.12 248.25" style="fill:#263238;stroke:#263238;stroke-linecap:round;stroke-linejoin:round"></polygon><polygon points="175.85 242.82 210.39 234.67 230.96 241.27 206.12 248.25 175.85 242.82" style="fill:#fff;stroke:#263238;stroke-linecap:round;stroke-linejoin:round"></polygon><polygon points="178.37 247.87 203.73 252.05 204.08 270.46 179 265.71 178.37 247.87" style="fill:#FCB514;stroke:#263238;stroke-linecap:round;stroke-linejoin:round"></polygon><text transform="matrix(1.01, 0.16, 0, 1, 182.16, 256.68)" style="font-size:6.425660133361816px;fill:#263238;font-family:Antonio-Bold, Antonio;font-weight:700">WE ARE<tspan x="0.24" y="7.1">HIRING</tspan></text><polygon points="212.33 209.84 216.15 339.17 248.35 348.09 246.48 214.49 212.33 209.84" style="fill:#fff;stroke:#263238;stroke-linecap:round;stroke-linejoin:round"></polygon><line x1="216.98" y1="220.1" x2="220.08" y2="330.36" style="fill:none;stroke:#263238;stroke-linecap:round;stroke-linejoin:round;stroke-width:0.75px"></line><line x1="216.79" y1="213.52" x2="216.89" y2="216.81" style="fill:none;stroke:#263238;stroke-linecap:round;stroke-linejoin:round;stroke-width:0.75px"></line><line x1="222.06" y1="214.81" x2="224.45" y2="331.13" style="fill:none;stroke:#263238;stroke-linecap:round;stroke-linejoin:round;stroke-width:0.75px"></line><line x1="227.41" y1="216.09" x2="229.07" y2="332.67" style="fill:none;stroke:#263238;stroke-linecap:round;stroke-linejoin:round;stroke-width:0.75px"></line><line x1="232.55" y1="216.74" x2="234.21" y2="333.18" style="fill:none;stroke:#263238;stroke-linecap:round;stroke-linejoin:round;stroke-width:0.75px"></line><line x1="238.11" y1="218.45" x2="239.6" y2="335.5" style="fill:none;stroke:#263238;stroke-linecap:round;stroke-linejoin:round;stroke-width:0.75px"></line><line x1="243.75" y1="236.57" x2="245" y2="335.75" style="fill:none;stroke:#263238;stroke-linecap:round;stroke-linejoin:round;stroke-width:0.75px"></line><line x1="243.57" y1="218.58" x2="243.7" y2="231.87" style="fill:none;stroke:#263238;stroke-linecap:round;stroke-linejoin:round;stroke-width:0.75px"></line><polygon points="277.14 207.51 313.88 289.48 313.88 366.92 272.4 349.77 277.14 207.51" style="fill:#263238"></polygon><line x1="296.18" y1="258.5" x2="296.18" y2="282.84" style="fill:none;stroke:#fff;stroke-linecap:round;stroke-linejoin:round;stroke-width:0.75px"></line><polygon points="246.48 214.49 277.14 207.51 277.14 355.6 247.65 348.17 246.48 214.49" style="fill:#263238;stroke:#263238;stroke-linecap:round;stroke-linejoin:round"></polygon><line x1="270.96" y1="220.73" x2="271.86" y2="343.44" style="fill:none;stroke:#fff;stroke-linecap:round;stroke-linejoin:round;stroke-width:0.75px"></line><line x1="270.92" y1="213.18" x2="270.94" y2="216.81" style="fill:none;stroke:#fff;stroke-linecap:round;stroke-linejoin:round;stroke-width:0.75px"></line><line x1="265.57" y1="215.02" x2="266.71" y2="342.67" style="fill:none;stroke:#fff;stroke-linecap:round;stroke-linejoin:round;stroke-width:0.75px"></line><line x1="260.43" y1="216.2" x2="261.17" y2="342.67" style="fill:none;stroke:#fff;stroke-linecap:round;stroke-linejoin:round;stroke-width:0.75px"></line><line x1="254.86" y1="218.49" x2="255.83" y2="340" style="fill:none;stroke:#fff;stroke-linecap:round;stroke-linejoin:round;stroke-width:0.75px"></line><line x1="249.41" y1="219.19" x2="250.86" y2="338.66" style="fill:none;stroke:#fff;stroke-linecap:round;stroke-linejoin:round;stroke-width:0.75px"></line><polygon points="212.33 209.84 245.71 204.01 277.14 207.51 246.48 214.49 212.33 209.84" style="fill:#fff;stroke:#263238;stroke-linecap:round;stroke-linejoin:round"></polygon><polygon points="219.09 209.71 245.5 205.11 270.38 207.87 246.12 213.4 219.09 209.71" style="fill:#fff;stroke:#263238;stroke-linecap:round;stroke-linejoin:round;stroke-width:0.75px"></polygon><polygon points="248.6 237.17 276.04 229.06 276.04 245.59 248.6 254.63 248.6 237.17" style="fill:#FCB514;stroke:#263238;stroke-miterlimit:10"></polygon><text transform="matrix(1.19, -0.37, 0.01, 1, 254.27, 247.89)" style="font-size:10.076800346374512px;fill:#263238;font-family:Antonio-Bold, Antonio;font-weight:700">JOB</text><polygon points="307.41 278.52 276.37 292.11 318.38 300.83 343.11 283.96 307.41 278.52" style="fill:#fff;stroke:#263238;stroke-linecap:round;stroke-linejoin:round"></polygon><polygon points="307.73 280.07 281 291.77 317.18 299.28 338.48 284.75 307.73 280.07" style="fill:#fff;stroke:#263238;stroke-linecap:round;stroke-linejoin:round;stroke-width:0.75px"></polygon><polygon points="276.37 292.11 277.14 355.6 317.89 365.69 318.38 300.83 276.37 292.11" style="fill:#fff;stroke:#263238;stroke-linecap:round;stroke-linejoin:round"></polygon><polygon points="282.87 347.03 282.51 336.41 306.59 342.78 306.59 353.4 282.87 347.03" style="fill:#263238"></polygon><polygon points="279.78 301.08 308.15 307.32 308.54 327.94 280.48 321.08 279.78 301.08" style="fill:#FCB514;stroke:#263238;stroke-linecap:round;stroke-linejoin:round"></polygon><text transform="matrix(1, 0.21, 0, 1, 283.65, 311.12)" style="font-size:7.496600151062012px;fill:#263238;font-family:Antonio-Bold, Antonio;font-weight:700">WE ARE<tspan x="0.28" y="7.1">HIRING</tspan></text><polygon points="318.67 264.94 317.89 365.69 360.19 377.33 363.3 272.7 318.67 264.94" style="fill:#fff;stroke:#263238;stroke-linecap:round;stroke-linejoin:round"></polygon><line x1="324.2" y1="269.48" x2="323.23" y2="357.3" style="fill:none;stroke:#263238;stroke-linecap:round;stroke-linejoin:round;stroke-width:0.75px"></line><line x1="329.75" y1="270.87" x2="329.25" y2="359.78" style="fill:none;stroke:#263238;stroke-linecap:round;stroke-linejoin:round;stroke-width:0.75px"></line><line x1="336.97" y1="272.81" x2="336.69" y2="362.61" style="fill:none;stroke:#263238;stroke-linecap:round;stroke-linejoin:round;stroke-width:0.75px"></line><line x1="345.31" y1="274.48" x2="344.48" y2="365.09" style="fill:none;stroke:#263238;stroke-linecap:round;stroke-linejoin:round;stroke-width:0.75px"></line><line x1="354.75" y1="276.15" x2="352.27" y2="366.86" style="fill:none;stroke:#263238;stroke-linecap:round;stroke-linejoin:round;stroke-width:0.75px"></line><polygon points="363.3 272.7 386.97 259.12 344.28 252.91 318.67 264.94 363.3 272.7" style="fill:#fff;stroke:#263238;stroke-linecap:round;stroke-linejoin:round"></polygon><polygon points="361.18 270.71 380.09 259.86 346 254.91 325.54 264.51 361.18 270.71" style="fill:#fff;stroke:#263238;stroke-linecap:round;stroke-linejoin:round;stroke-width:0.75px"></polygon><polygon points="386.97 259.12 383.09 380.31 360.19 377.33 363.3 272.7 386.97 259.12" style="fill:#263238;stroke:#263238;stroke-linecap:round;stroke-linejoin:round"></polygon><line x1="367.93" y1="275.4" x2="365.43" y2="373.23" style="fill:none;stroke:#fff;stroke-linecap:round;stroke-linejoin:round;stroke-width:0.75px"></line><line x1="374.19" y1="271.15" x2="371.97" y2="367.57" style="fill:none;stroke:#fff;stroke-linecap:round;stroke-linejoin:round;stroke-width:0.75px"></line><line x1="380.85" y1="266.43" x2="379.18" y2="365.44" style="fill:none;stroke:#fff;stroke-linecap:round;stroke-linejoin:round;stroke-width:0.75px"></line><polygon points="329.35 290.79 329.35 310.75 319.69 309.19 320.56 303.32 310.02 311.99 320.31 321.04 320.62 316.67 336.83 320.41 337.45 294.54 329.35 290.79" style="fill:#FCB514;stroke:#263238;stroke-linecap:round;stroke-linejoin:round"></polygon><path d="M322.5,316.07a1.19,1.19,0,1,1-1.18-1.19A1.18,1.18,0,0,1,322.5,316.07Z" style="fill:#fff;stroke:#263238;stroke-linecap:round;stroke-linejoin:round"></path><circle cx="326.18" cy="317.32" r="1.19" style="fill:#fff;stroke:#263238;stroke-linecap:round;stroke-linejoin:round"></circle><path d="M332.24,318.56a1.19,1.19,0,1,1-1.19-1.19A1.19,1.19,0,0,1,332.24,318.56Z" style="fill:#fff;stroke:#263238;stroke-linecap:round;stroke-linejoin:round"></path><path d="M337.11,319.81a1.19,1.19,0,1,1-1.19-1.19A1.19,1.19,0,0,1,337.11,319.81Z" style="fill:#fff;stroke:#263238;stroke-linecap:round;stroke-linejoin:round"></path><path d="M337.67,313.81a1.19,1.19,0,1,1-1.19-1.19A1.19,1.19,0,0,1,337.67,313.81Z" style="fill:#fff;stroke:#263238;stroke-linecap:round;stroke-linejoin:round"></path><path d="M337.9,307.13a1.19,1.19,0,1,1-1.19-1.19A1.19,1.19,0,0,1,337.9,307.13Z" style="fill:#fff;stroke:#263238;stroke-linecap:round;stroke-linejoin:round"></path><path d="M338.24,300.51a1.19,1.19,0,1,1-1.19-1.19A1.19,1.19,0,0,1,338.24,300.51Z" style="fill:#fff;stroke:#263238;stroke-linecap:round;stroke-linejoin:round"></path><path d="M338.12,295.13a1.19,1.19,0,1,1-1.18-1.19A1.18,1.18,0,0,1,338.12,295.13Z" style="fill:#fff;stroke:#263238;stroke-linecap:round;stroke-linejoin:round"></path><path d="M334.73,292.75a1.19,1.19,0,1,1-1.19-1.18A1.19,1.19,0,0,1,334.73,292.75Z" style="fill:#fff;stroke:#263238;stroke-linecap:round;stroke-linejoin:round"></path><circle cx="329.64" cy="290.83" r="1.19" style="fill:#fff;stroke:#263238;stroke-linecap:round;stroke-linejoin:round"></circle><path d="M330.49,297.32a1.19,1.19,0,1,1-1.19-1.19A1.19,1.19,0,0,1,330.49,297.32Z" style="fill:#fff;stroke:#263238;stroke-linecap:round;stroke-linejoin:round"></path><path d="M330.15,303.81a1.19,1.19,0,1,1-1.19-1.19A1.18,1.18,0,0,1,330.15,303.81Z" style="fill:#fff;stroke:#263238;stroke-linecap:round;stroke-linejoin:round"></path><path d="M329.82,310.29a1.19,1.19,0,1,1-1.19-1.19A1.19,1.19,0,0,1,329.82,310.29Z" style="fill:#fff;stroke:#263238;stroke-linecap:round;stroke-linejoin:round"></path><path d="M321.44,309.27a1.19,1.19,0,1,1-1.19-1.18A1.19,1.19,0,0,1,321.44,309.27Z" style="fill:#fff;stroke:#263238;stroke-linecap:round;stroke-linejoin:round"></path><path d="M321.67,303.5a1.19,1.19,0,1,1-1.19-1.19A1.19,1.19,0,0,1,321.67,303.5Z" style="fill:#fff;stroke:#263238;stroke-linecap:round;stroke-linejoin:round"></path><path d="M311.64,311.88a1.19,1.19,0,1,1-1.19-1.19A1.19,1.19,0,0,1,311.64,311.88Z" style="fill:#fff;stroke:#263238;stroke-linecap:round;stroke-linejoin:round"></path><path d="M321.49,321.84a1.19,1.19,0,1,1-1.19-1.19A1.19,1.19,0,0,1,321.49,321.84Z" style="fill:#fff;stroke:#263238;stroke-linecap:round;stroke-linejoin:round"></path><path d="M315.37,316.07a1.19,1.19,0,1,1-1.18-1.19A1.18,1.18,0,0,1,315.37,316.07Z" style="fill:#fff;stroke:#263238;stroke-linecap:round;stroke-linejoin:round"></path><path d="M316.17,307.92a1.19,1.19,0,1,1-1.19-1.19A1.19,1.19,0,0,1,316.17,307.92Z" style="fill:#fff;stroke:#263238;stroke-linecap:round;stroke-linejoin:round"></path></g><g id="Character--inject-35"><polyline points="63.16 345.83 153.7 305.37 409.43 377.24 356.6 417.23" style="fill:#fff;stroke:#263238;stroke-linecap:round;stroke-linejoin:round"></polyline><polyline points="82.6 350.92 155.94 318.15 363.08 376.37 320.29 408.75" style="fill:#fff;stroke:#263238;stroke-linecap:round;stroke-linejoin:round"></polyline><polyline points="155.94 318.15 155.94 327.3 353.61 383.17 363.08 376.37 159.08 319.33" style="fill:#263238"></polyline><polyline points="82.6 360.07 155.94 327.3 353.12 382.71" style="fill:none;stroke:#263238;stroke-linecap:round;stroke-linejoin:round"></polyline><polygon points="462.3 416.78 409.43 377.24 357.18 416.78 462.3 416.78" style="fill:#263238"></polygon><ellipse cx="141.26" cy="364.5" rx="35.73" ry="16.47" style="fill:#FCB514"></ellipse><ellipse cx="141.26" cy="364.5" rx="35.73" ry="16.47" style="fill:#fff;opacity:0.5"></ellipse><path d="M150,166.24s2.5,6,2,9-7.24,5.5-8.24,6-6.24-1.75-6.24-7.5S147,161.5,150,166.24Z" style="fill:#fff;stroke:#263238;stroke-linecap:round;stroke-linejoin:round"></path><path d="M147.07,150l14.06-1.63a5,5,0,0,1,5.52,4.49h0a5,5,0,0,1-4.84,5.41l-13,.27Z" style="fill:#263238"></path><path d="M148.73,147s3-1,5,0,3.75,2.5,3.5,3.5-1.75.75-3.75,1-4.15,1.63-4.57.57S148.73,147,148.73,147Z" style="fill:#fff;stroke:#263238;stroke-linecap:round;stroke-linejoin:round"></path><path d="M156.11,151.33l14.15-.36a5,5,0,0,1,5.09,5h0a5,5,0,0,1-5.31,5l-13-.91Z" style="fill:#263238"></path><path d="M150.65,151.33l7.22.16a4.17,4.17,0,0,1,1.61,3,19.47,19.47,0,0,1-.65,5.14h-7.7a6.64,6.64,0,0,1-2.24-3.21C148.25,154.37,150.65,151.33,150.65,151.33Z" style="fill:#263238"></path><path d="M148,183.94s9.09,1.09,13.74,1.52,15.16-5.48,21.06-7c7-1.83,10.69,2.14,12.52,4.58S210,194.32,210,194.32l2.44,6.72-10.38,3.36s-4-4.89-10.08-12.52-8.8-11.51-13.71-8.5-11.93,8.5-17.43,7.28S148,183.94,148,183.94Z" style="fill:#263238"></path><path d="M152,357.27l.72.24,14.78,4.84s1.87,1.06,1.33,2.67-16,3.47-22.17,3.47-10.15-.53-10.15-2.94S152,357.27,152,357.27Z" style="fill:#FCB514;stroke:#263238;stroke-linecap:round;stroke-linejoin:round"></path><path d="M168.86,365a2,2,0,0,0-.46-1.94,83,83,0,0,1-17.84,2.84,105.17,105.17,0,0,1-13.9.28c.69,1.85,4.48,2.29,10,2.29C152.83,368.49,168.33,366.62,168.86,365Z" style="fill:#fff;stroke:#263238;stroke-linecap:round;stroke-linejoin:round"></path><path d="M125.05,348.19s7.74-3.21,9.08-.54-1.87,6.68-3.74,7.48-3.21,1.34-4.27,2.67-4.28,4.55-7.75,4-3.48-5.07-3.21-5.88S125.05,348.19,125.05,348.19Z" style="fill:#FCB514;stroke:#263238;stroke-linecap:round;stroke-linejoin:round"></path><path d="M133.43,347c-.22,2.17-.85,4.55-2.44,5.44-3.21,1.78-4.63,1.42-7.48,5a7.65,7.65,0,0,1-7.28,2.56l-.32.23a3.39,3.39,0,0,0,2.46,1.64c3.47.54,6.68-2.67,7.75-4s2.4-1.87,4.27-2.67,5.08-4.81,3.74-7.48A1.56,1.56,0,0,0,133.43,347Z" style="fill:#fff;stroke:#263238;stroke-linecap:round;stroke-linejoin:round"></path><path d="M118.9,236.51s-2.14,8.82-.53,12.82,1.87,10.42,2.14,12.56-2.68,20-3.75,29.39-5.61,19.77-3.74,26.45.27,31,.81,34.73,1.6,7,2.4,7.48,3.74.8,6.15-.27,4-9.08,4.54-11.48,2.67-30.46,3.47-34.74,3.21-23.51,3.21-23.51,2.13,15.77,1.6,20-2.41,12.56-1.6,20,2.13,35.26,2.13,35.26a11.17,11.17,0,0,0,3.74,1.34c1.34,0,11.49-6.95,12.56-9.35s0-6.68,0-6.68,1.87-42.48,3.74-56.91-2.4-53.7-2.4-53.7S132.26,244.79,118.9,236.51Z" style="fill:#263238"></path><polyline points="133.33 286.74 129.86 267.24 123.98 257.08" style="fill:none;stroke:#fff;stroke-linecap:round;stroke-linejoin:round"></polyline><path d="M151,145a23,23,0,0,1,1.26,5.31c0,1.76-1,3-.76,4.29s2.27,3.28.51,6.56-.26,8.08-2.78,9.09a16.26,16.26,0,0,1-5.3,1l-.76,5.55-12.62-4V162.68s5.3.25,7.32-2.28,1.51-7.82,2.52-11.36,5.05-5.8,6.82-5.8S151,145,151,145Z" style="fill:#fff;stroke:#263238;stroke-linecap:round;stroke-linejoin:round"></path><path d="M154.62,140.43A7.54,7.54,0,0,1,151,145c-2.53,1.52-5.81,1-5.81,2.28s2.27,1,1.51,4.29a11,11,0,0,1-3,5.3s2.28,2.78,0,3.28-2.77,3.79-5.55,4.55-5.3,2.77-7.57.75-9.6-10.35-10.61-15.9,4.55-11.36,4.55-11.36-.25-3.28,1.77-4.55,7.42-1.69,7.93-3.71c2.12-8.4,16.69-.49,19.25,3.95A9.2,9.2,0,0,1,154.62,140.43Z" style="fill:#263238"></path><path d="M150,138.58A6.15,6.15,0,0,1,147,144c-3.24,1.8-10.45.36-13,3.78s-.72,8.82-4.5,9.72" style="fill:none;stroke:#fff;stroke-linecap:round;stroke-linejoin:round;stroke-width:0.5px"></path><path d="M144.46,149.92s-3.43,1.08-4.87,3.24-2.16,7.2-6.48,8.46" style="fill:none;stroke:#fff;stroke-linecap:round;stroke-linejoin:round;stroke-width:0.5px"></path><path d="M143.93,161.41s-2-6.06-4.8-4.54-.5,6.06,1,7.32,3.28-.5,3.28-.5" style="fill:#fff;stroke:#263238;stroke-linecap:round;stroke-linejoin:round"></path><path d="M124.49,173.78a27.86,27.86,0,0,0-7.72,8.45c-3,5.3.9,29.93,1.91,36.49s-1.26,17.42.51,20.45,7.57,5.55,13.12,6.06,14.14-.25,17.42-1.26,5.05-3.79,5.05-5.05-.25-16.66-.25-19.95-.25-26.76-2.27-31.3a19.29,19.29,0,0,0-8.84-9.09C140.39,177.07,129,171.51,124.49,173.78Z" style="fill:#FCB514;stroke:#263238;stroke-linecap:round;stroke-linejoin:round"></path><path d="M146.88,203.79s-2.7,2.45-10.32,3.44" style="fill:none;stroke:#263238;stroke-miterlimit:10"></path><path d="M141.44,214.31a13.33,13.33,0,0,1-2.42,2" style="fill:none;stroke:#263238;stroke-miterlimit:10"></path><path d="M147.86,203.79a39.11,39.11,0,0,1-4.55,8.31" style="fill:none;stroke:#263238;stroke-miterlimit:10"></path><path d="M146.63,231.05a29.14,29.14,0,0,1-18.42,11s10.81.25,17.93-7.37" style="fill:none;stroke:#263238;stroke-linecap:round;stroke-linejoin:round"></path><path d="M126.76,169.49s7.32.51,12.12,3.28,8.08,5.56,9.84,6.06,5.05.76,4,1-2.27.51-4.79,1.26-6.06-.75-11.36-3.28-11.11-4-12.12-4S124.74,169.49,126.76,169.49Z" style="fill:#FCB514;stroke:#263238;stroke-linecap:round;stroke-linejoin:round"></path><path d="M169.68,194.74s8.39,5.61,9.62,9.78" style="fill:none;stroke:#263238;stroke-linecap:round;stroke-linejoin:round"></path><path d="M169.17,185.65,160.34,165a19.41,19.41,0,0,0-3.79-3.28,1.6,1.6,0,0,1-.51-2.53s2.53.51,2.53-.5a30.17,30.17,0,0,0-.51-5c-.25-.76-1-1.27-1-2s1.77-1.77,3.79-1.26,1.68.21,1.68.21c2.89-.64,3.45,0,4.89,2.56a14.11,14.11,0,0,1,1.26,6.31c0,1.27-1.52,5.05-1.52,5.05l10.86,21Z" style="fill:#fff;stroke:#263238;stroke-linecap:round;stroke-linejoin:round"></path><path d="M170.18,191.46s-3.28,0-3-.76-.75-3.54-.75-4.8,2.27-2.78,5-3.28,5.81.5,6.82.76,1.26,2.27,2,3.53,1.26,2.78.76,3.79a3.94,3.94,0,0,1-2,1.51Z" style="fill:#FCB514;stroke:#263238;stroke-linecap:round;stroke-linejoin:round"></path><path d="M133.83,187.67s1.77-6.06,5.3-7.32,7.83.5,12.12,3.28,18.43,11.11,18.43,11.11l-1.52-6.06s9.09-2.78,11.36,1.51,3.79,19.95,3.79,22-5.3,3.78-8.58,3.53-32.32-14.64-32.32-14.64" style="fill:#FCB514;stroke:#263238;stroke-linecap:round;stroke-linejoin:round"></path><path d="M173.4,197.16a13.53,13.53,0,0,1,6.64,4.42" style="fill:none;stroke:#263238;stroke-linecap:round;stroke-linejoin:round"></path></g></svg>