<svg xmlns="http://www.w3.org/2000/svg" xmlns:xlink="http://www.w3.org/1999/xlink" viewBox="0 0 515.06 228.23"><defs><style>.cls-1{fill:url(#New_Gradient_Swatch_1);}.cls-2{fill:url(#New_Gradient_Swatch_1-2);}.cls-3{fill:url(#New_Gradient_Swatch_1-3);}.cls-4{fill:url(#New_Gradient_Swatch_1-4);}.cls-5{fill:url(#New_Gradient_Swatch_1-5);}.cls-6{fill:none;stroke-miterlimit:10;stroke-width:3px;stroke:url(#New_Gradient_Swatch_1-6);}.cls-7{fill:#191919;}</style><linearGradient id="New_Gradient_Swatch_1" x1="39" y1="0.23" x2="39" y2="144.23" gradientUnits="userSpaceOnUse"><stop offset="0" stop-color="#feb600"/><stop offset="1" stop-color="#f09819"/></linearGradient><linearGradient id="New_Gradient_Swatch_1-2" x1="389.7" y1="0.23" x2="389.7" y2="144.23" xlink:href="#New_Gradient_Swatch_1"/><linearGradient id="New_Gradient_Swatch_1-3" x1="296.23" y1="0.23" x2="296.23" y2="144.23" xlink:href="#New_Gradient_Swatch_1"/><linearGradient id="New_Gradient_Swatch_1-4" x1="144.27" y1="-0.95" x2="144.27" y2="120.72" gradientTransform="matrix(0.98, 0.01, 0.01, 0.99, 1.68, 0.44)" xlink:href="#New_Gradient_Swatch_1"/><linearGradient id="New_Gradient_Swatch_1-5" x1="463.85" y1="0.33" x2="463.85" y2="122" xlink:href="#New_Gradient_Swatch_1"/><linearGradient id="New_Gradient_Swatch_1-6" x1="257.5" y1="163.99" x2="257.5" y2="166.99" xlink:href="#New_Gradient_Swatch_1"/></defs><title>Asset 9</title><g id="Layer_2" data-name="Layer 2"><g id="_5" data-name="5"><rect class="cls-1" y="0.23" width="78" height="144"/><polygon class="cls-2" points="459.85 144.23 383.32 144.23 319.55 0.23 397.67 0.23 459.85 144.23"/><polygon class="cls-3" points="366.38 144.23 289.85 144.23 226.07 0.23 304.2 0.23 366.38 144.23"/><polygon class="cls-4" points="93.24 0 194.01 0.66 144.81 120.72 93.24 0"/><polygon class="cls-5" points="412.64 0.33 515.06 0.45 464.39 122 412.64 0.33"/><line class="cls-6" y1="165.49" x2="515" y2="165.49"/><path class="cls-7" d="M0,228.23V187.36H13.57q7.71,0,11.67,3t4,8.92a8.88,8.88,0,0,1-2.81,6.94q-2.8,2.53-8,2.81l11,19.17H20.76L9.64,207.51q6.52-.44,9.23-2.4t2.7-6.1q0-4.56-2.67-6.79c-1.78-1.48-4.46-2.23-8.06-2.23H7.68v38.24Z"/><path class="cls-7" d="M70.76,228.23H63.14V187.36h7.62Z"/><path class="cls-7" d="M141.05,209v13.21a27.62,27.62,0,0,1-7.59,4.55,22.49,22.49,0,0,1-8.15,1.52q-9.27,0-15-5.67t-5.73-14.87a19.93,19.93,0,0,1,5.78-14.61,19.33,19.33,0,0,1,14.33-5.85,19,19,0,0,1,9,2,16.5,16.5,0,0,1,6.34,6.07L137.58,197a13.94,13.94,0,0,0-4.76-5.36,12,12,0,0,0-6.55-1.79,11.69,11.69,0,0,0-9.87,4.86q-3.63,4.88-3.64,13.28,0,8.09,3.49,12.59A11.58,11.58,0,0,0,126,225a14,14,0,0,0,4.51-.71,10.33,10.33,0,0,0,3.61-2.05V209Z"/><path class="cls-7" d="M183.21,208.94v19.29h-7.68V187.36h7.68V206h17.32V187.36h7.62v40.87h-7.62V208.94Z"/><path class="cls-7" d="M250.65,228.23V190.42H239.81v-3.06h29.31v3.06H258.28v37.81Z"/><path class="cls-7" d="M329.19,228.23l-8.77-21.33L312,228.23l-17.2-40.87h8.12L314.13,215l4.65-11.73L312,187.36h8.06l11.09,27.18,10.47-27.18h4Z"/><path class="cls-7" d="M369.11,228.23l17-41,17.7,41h-8.18l-4.31-10.7H377.05l-4.28,10.7Zm9-13.23h12.05l-6-14.66Z"/><path class="cls-7" d="M439.56,228.23V208.45l-13.88-21.09h9.08l10.47,16.78,11.22-16.78h4.65l-13.85,20v20.85Z"/><path class="cls-7" d="M491.67,219.82a10.63,10.63,0,0,0,3.48,3.84,8.24,8.24,0,0,0,4.57,1.38,7.48,7.48,0,0,0,5.39-2,6.71,6.71,0,0,0,2.08-5.09q0-5-9.26-8.56l-.1,0q-5-1.94-7.08-4.37a9.12,9.12,0,0,1-2.09-6.16,10.78,10.78,0,0,1,3.6-8.36,13.26,13.26,0,0,1,9.29-3.27,14.91,14.91,0,0,1,7.48,1.82,11.21,11.21,0,0,1,4.76,5.15l-2.73,1.73A8.89,8.89,0,0,0,508,191.7a8.08,8.08,0,0,0-4.87-1.48,6.88,6.88,0,0,0-4.93,1.83,6.31,6.31,0,0,0-1.91,4.79,5.55,5.55,0,0,0,1.57,4,18,18,0,0,0,5.92,3.4q6.86,2.78,9,5.33A9.68,9.68,0,0,1,515,216.1a11.15,11.15,0,0,1-3.86,8.7,14.14,14.14,0,0,1-9.77,3.43,16.4,16.4,0,0,1-7.38-1.55,14.75,14.75,0,0,1-5.39-4.81Z"/></g></g></svg>