<svg xmlns="http://www.w3.org/2000/svg" xmlns:xlink="http://www.w3.org/1999/xlink" width="2125.726" height="1861.61" viewBox="0 0 2125.726 1861.61">
  <defs>
    <filter id="freepik--path--inject-34" x="0" y="1720.554" width="2125.726" height="141.057" filterUnits="userSpaceOnUse">
      <feOffset dy="3" input="SourceAlpha"/>
      <feGaussianBlur stdDeviation="3" result="blur"/>
      <feFlood flood-opacity="0.161"/>
      <feComposite operator="in" in2="blur"/>
      <feComposite in="SourceGraphic"/>
    </filter>
  </defs>
  <g id="Group_7307" data-name="Group 7307" transform="translate(563.022 -9367.39)">
    <g id="Active_Support-rafiki" data-name="Active Support-rafiki" transform="translate(-859 9137)">
      <g id="freepik--Shadow--inject-34" transform="translate(304.978 1956.943)">
        <g transform="matrix(1, 0, 0, 1, -9, -1726.55)" filter="url(#freepik--path--inject-34)">
          <ellipse id="freepik--path--inject-34-2" data-name="freepik--path--inject-34" cx="1053.863" cy="61.528" rx="1053.863" ry="61.528" transform="translate(9 1726.55)" fill="#f5f5f5"/>
        </g>
      </g>
      <g id="freepik--Table--inject-34" transform="translate(514.784 1486.295)">
        <rect id="Rectangle_1212" data-name="Rectangle 1212" width="1688.062" height="191.107" fill="#ffc100"/>
        <rect id="Rectangle_1213" data-name="Rectangle 1213" width="362.104" height="191.107" transform="translate(1326.012)" opacity="0.3"/>
        <rect id="Rectangle_1214" data-name="Rectangle 1214" width="186.379" height="341.069" transform="translate(0 191.107)" fill="#ffc100"/>
        <path id="Path_21902" data-name="Path 21902" d="M94.72,353.49v19.078l131.971,39.841v282.15h54.354V353.49Z" transform="translate(-94.666 -162.382)" opacity="0.3"/>
        <rect id="Rectangle_1215" data-name="Rectangle 1215" width="186.379" height="341.069" transform="translate(1501.737 191.107)" fill="#ffc100"/>
        <rect id="Rectangle_1216" data-name="Rectangle 1216" width="186.379" height="341.069" transform="translate(1501.737 191.107)" opacity="0.2"/>
        <path id="Path_21903" data-name="Path 21903" d="M371,353.49v19.078l132.025,39.841v282.15h54.354V353.49Z" transform="translate(1130.737 -162.382)" opacity="0.3"/>
        <rect id="Rectangle_1217" data-name="Rectangle 1217" width="186.379" height="341.069" transform="translate(1139.633 191.107)" fill="#ffc100"/>
        <path id="Path_21904" data-name="Path 21904" d="M304.38,353.49v19.078l132.025,39.841v282.15h54.354V353.49Z" transform="translate(835.253 -162.382)" opacity="0.3"/>
        <rect id="Rectangle_1218" data-name="Rectangle 1218" width="186.379" height="341.069" transform="translate(362.104 191.107)" fill="#ffc100"/>
        <rect id="Rectangle_1219" data-name="Rectangle 1219" width="186.379" height="341.069" transform="translate(362.104 191.107)" opacity="0.2"/>
        <path id="Path_21905" data-name="Path 21905" d="M161.33,353.49v19.078l132.025,39.841v282.15h54.354V353.49Z" transform="translate(200.774 -162.382)" opacity="0.3"/>
      </g>
      <g id="freepik--Character--inject-34" transform="translate(705.163 499.427)">
        <path id="Path_21906" data-name="Path 21906" d="M1223.793,902.611H191.725a23.263,23.263,0,0,1-23.372-25l42.5-674.475a27.177,27.177,0,0,1,26.579-25H1269.45a23.263,23.263,0,0,1,23.372,25l-42.5,674.475a27.177,27.177,0,0,1-26.525,25Z" transform="translate(41.256 46.699)" fill="#263238"/>
        <path id="Path_21907" data-name="Path 21907" d="M1223.793,902.611H191.725a23.263,23.263,0,0,1-23.372-25l42.5-674.475a27.177,27.177,0,0,1,26.579-25H1269.45a23.263,23.263,0,0,1,23.372,25l-42.5,674.475a27.177,27.177,0,0,1-26.525,25Z" transform="translate(41.256 46.699)" opacity="0.6"/>
        <path id="Path_21908" data-name="Path 21908" d="M1222.373,902.611H190.36a23.264,23.264,0,0,1-23.426-25l42.5-674.475a27.177,27.177,0,0,1,26.579-25H1268.03a23.209,23.209,0,0,1,23.372,25l-42.5,674.474a27.177,27.177,0,0,1-26.524,25Z" transform="translate(34.957 46.699)" fill="#263238"/>
        <path id="Path_21909" data-name="Path 21909" d="M1385.762,313H157.749a29.948,29.948,0,0,0-27.177,16.8,8.588,8.588,0,0,0,7.881,12.284H1404.786a8.588,8.588,0,0,0,7.881-12.284A29.84,29.84,0,0,0,1385.762,313Z" transform="translate(-129.736 644.897)" fill="#263238"/>
        <path id="Path_21910" data-name="Path 21910" d="M525.966,313H351.328a29.785,29.785,0,0,0-26.905,16.8,8.588,8.588,0,0,0,7.827,12.284H544.99a8.588,8.588,0,0,0,7.881-12.284A29.84,29.84,0,0,0,525.966,313Z" transform="translate(730.06 644.898)" opacity="0.6"/>
        <path id="Path_21911" data-name="Path 21911" d="M380.907,323.376H335.793a3.968,3.968,0,0,1-3.913-3.968h0a3.968,3.968,0,0,1,3.914-3.968h45.113a3.968,3.968,0,0,1,3.968,3.968h0A3.968,3.968,0,0,1,380.907,323.376Z" transform="translate(766.846 655.72)" fill="#ffc100"/>
        <path id="Path_21912" data-name="Path 21912" d="M274.177,323.376H229.118a3.968,3.968,0,0,1-3.968-3.968h0a3.968,3.968,0,0,1,3.968-3.968h45.059a3.968,3.968,0,0,1,3.968,3.968h0a3.968,3.968,0,0,1-3.968,3.968Z" transform="translate(293.46 655.72)" fill="#fff" opacity="0.7"/>
        <rect id="Rectangle_1220" data-name="Rectangle 1220" width="36.036" height="7.936" rx="0.6" transform="translate(1161.668 971.16)" fill="#ffc100"/>
        <path id="Path_21913" data-name="Path 21913" d="M171.176,820.88l39.461-625.774a10.49,10.49,0,0,1,10.327-9.675H1240.041a8.969,8.969,0,0,1,9.077,9.675L1209.712,820.88a10.545,10.545,0,0,1-10.382,9.675H180.307a9.077,9.077,0,0,1-9.131-9.675Z" transform="translate(53.978 79.077)" fill="#fff"/>
        <path id="Path_21914" data-name="Path 21914" d="M766.62,181.88,427.181,827.058H176.774a9.023,9.023,0,0,1-9.131-9.729L207.1,191.609a10.545,10.545,0,0,1,10.327-9.729Z" transform="translate(38.27 63.333)" fill="#ffc100" opacity="0.1"/>
        <path id="Path_21915" data-name="Path 21915" d="M670.653,181.88,333.991,807.764H255.5L592.162,181.88Z" transform="translate(428.073 82.626)" fill="#ffc100" opacity="0.1"/>
        <path id="Path_21916" data-name="Path 21916" d="M721.368,191.321l-39.451,607a10.359,10.359,0,0,1-10.325,9.438H285.78L625.132,181.883h86.944a9.216,9.216,0,0,1,6.8,2.72,8.654,8.654,0,0,1,2.489,6.718Z" transform="translate(562.376 82.627)" fill="#ffc100" opacity="0.1"/>
        <rect id="Rectangle_1221" data-name="Rectangle 1221" width="35.493" height="15.056" rx="1.27" transform="translate(648.908 266.622) rotate(10.92)" fill="#fff"/>
      </g>
    </g>
    <g id="Group_7303" data-name="Group 7303" transform="translate(327 2625.529)">
      <path id="Path_22006" data-name="Path 22006" d="M411.234,487.084s26.951,53.159,50.889,53.159c33.789-18.977,58.116-53.159,58.116-53.159.98-35.072,2.647-66.964,4.651-95.3Q526.25,372.3,527.8,355.1c6.436-73.141,14.218-114.343,14.218-114.343s-115,15.531-123.215,84.494q-2.073,17.152-3.529,33.01c-4.106,43.179-5.379,79.214-4.724,109.176C410.681,474.307,410.916,480.838,411.234,487.084Z" transform="translate(-174.217 6800.425)" fill="#eea886"/>
      <path id="Path_22007" data-name="Path 22007" d="M527.8,276.967q-1.525,21.339-2.907,45.523C501.036,359.5,461.481,406.7,410.547,416.377c-.655-37.183.618-81.9,4.724-135.487Z" transform="translate(-174.217 6838.953)" fill="#dc8f6a"/>
      <g id="Group_7186" data-name="Group 7186" transform="translate(111.821 6741.861)">
        <g id="Group_7184" data-name="Group 7184" transform="translate(0)">
          <path id="Path_8018" data-name="Path 8018" d="M42.524,0C65.815-.133,84.538,29.746,84.345,66.737s-19.232,67.088-42.522,67.221S-.192,104.213,0,67.222,19.233.134,42.524,0Z" transform="matrix(0.998, -0.059, 0.059, 0.998, 19.948, 215.317)" fill="#404041"/>
          <path id="Path_7986" data-name="Path 7986" d="M647.3,293.8a364.448,364.448,0,0,1-8.585,70.462c-8.1,37.541-21.218,74.327-35.952,107-14.256,31.587-40.594,58.7-63.185,86.165-19.254,13.661-32.438,19.579-52.668,25.251-34.631,5.05-67.257-28.2-67.257-28.2s-23.48-16.649-31.09-97.345c.912-73.883-29.016-152.828-9.723-225.485,5.419-20.383,16.813-35.98,33.852-46.105,58.564-34.758,175.082-34.006,217.238,31.4,11.572,17.933,16.484,40.262,17.243,62.228C647.345,284.013,647.4,288.907,647.3,293.8Z" transform="translate(-343.235 -111.851)" fill="#eea886"/>
          <path id="Path_7987" data-name="Path 7987" d="M530.224,227.524c-8.1,37.542-21.218,74.327-35.953,107-14.256,31.587-35.828,66.457-62.689,91.983,76.464-80.335,57.168-197.651,57.168-197.651Z" transform="translate(-234.746 24.889)" fill="#dc8f6a"/>
          <path id="Path_7988" data-name="Path 7988" d="M490.975,261.664a128.569,128.569,0,0,1-5.456,12.569c-.224.41-.456.827-.682,1.325-9.542,19.3-30.448,52.082-61.429,52.082a38,38,0,0,1-11.136-1.586c-31.357-9.565-25.072-60.148-25.072-60.148a15.8,15.8,0,0,0,3.106,3.831c5.756,5.575,20.6,14.559,53.626,7.817,4.244-.827,8.865-2,13.862-3.408a.537.537,0,0,1,.306-.084A268.723,268.723,0,0,0,490.975,261.664Z" transform="translate(-316.968 96.908)" fill="#8d031e"/>
          <path id="Path_7989" data-name="Path 7989" d="M456.989,261.3c18.843-27.582,62.143-44.071,77.222-16.338,11.164,20.529,5.654,46.8-6.062,62.8-16.64,22.706-64.521,28.71-77.93-7.914C445.4,286.686,448.993,273,456.989,261.3Z" transform="translate(-204.599 31.491)" fill="#ff9d76"/>
          <path id="Path_7990" data-name="Path 7990" d="M458.415,289.543s9.771-33.285,23.126-46.939c13.568-13.875,30.74-7.9,33.319,23.294,0,0-8.6-7.581-14.465-3.458,0,0,12.979,33.564-22.716,41.475C477.679,303.916,476.592,281.984,458.415,289.543Z" transform="translate(-185.605 41.808)" fill="#e27954"/>
          <path id="Path_7991" data-name="Path 7991" d="M472.225,267.744c-9.542,19.3-30.448,52.082-61.429,52.082a37.995,37.995,0,0,1-11.136-1.586,16.4,16.4,0,0,1-5.606-8.738C390.495,295.2,407,277.8,431.32,269.74c.912-.336,1.821-.665,2.727-.908a70.336,70.336,0,0,1,11.136-2.5.537.537,0,0,1,.306-.084C455.636,264.662,464.957,265.253,472.225,267.744Z" transform="translate(-304.356 104.722)" fill="#b52445"/>
          <path id="Path_7992" data-name="Path 7992" d="M488.633,261.664a128.547,128.547,0,0,1-5.456,12.569c-62.111,40.586-95.213,9.058-95.213,9.058V269.736C395.917,277.47,421.368,291.693,488.633,261.664Z" transform="translate(-314.626 96.908)" fill="#fff"/>
          <g id="Group_2548" data-name="Group 2548" transform="translate(67.467 226.052)">
            <path id="Path_7993" data-name="Path 7993" d="M396.057,337.863c-3.964,0-7.461-.908-9.142-3.592-3.33-5.3,2.367-13.219,4.241-15.821,16.7-23.216,21.153-86.573,14.644-94.915a2.9,2.9,0,0,1,.272-3.834,2.326,2.326,0,0,1,3.491.3c8.862,11.356,3.4,76.917-14.522,101.825-4.185,5.818-4.513,8.623-4.049,9.363,1.586,2.522,12.265.973,20.859-2a2.441,2.441,0,0,1,3.109,1.779,2.781,2.781,0,0,1-1.62,3.411C410.194,335.46,402.506,337.863,396.057,337.863Z" transform="translate(-385.89 -219.047)" fill="#dc8f6a"/>
          </g>
          <g id="Group_2549" data-name="Group 2549" transform="translate(146.424 232.31)">
            <path id="Path_7994" data-name="Path 7994" d="M454.713,247.658c0,13.11-7.3,23.99-16.914,26.167a15.317,15.317,0,0,1-3.542.407c-11.317,0-20.479-11.885-20.479-26.574s9.162-26.6,20.479-26.6a15.318,15.318,0,0,1,3.542.407C447.408,223.643,454.713,234.548,454.713,247.658Z" transform="translate(-413.777 -221.059)" fill="#fff"/>
            <path id="Path_7995" data-name="Path 7995" d="M450.116,247.382c0,13.11-7.3,23.99-16.914,26.167-9.609-2.177-16.914-13.057-16.914-26.167s7.3-24.015,16.914-26.192C442.811,223.367,450.116,234.272,450.116,247.382Z" transform="translate(-409.18 -220.783)" fill="#2f2e41"/>
            <path id="Path_7996" data-name="Path 7996" d="M426.689,229.154a5.224,5.224,0,1,1-5.2-5.712A5.475,5.475,0,0,1,426.689,229.154Z" transform="translate(-409.18 -203.032)" fill="#fff"/>
          </g>
          <g id="Group_2550" data-name="Group 2550" transform="translate(45.503 235.559)">
            <path id="Path_7997" data-name="Path 7997" d="M419.071,248.7c0,13.11-7.3,23.99-16.914,26.167a15.318,15.318,0,0,1-3.542.407c-11.317,0-20.482-11.888-20.482-26.574s9.165-26.6,20.482-26.6a15.153,15.153,0,0,1,3.542.407C411.767,224.688,419.071,235.593,419.071,248.7Z" transform="translate(-378.133 -222.104)" fill="#fff"/>
            <path id="Path_7998" data-name="Path 7998" d="M414.473,248.427c0,13.11-7.3,23.99-16.914,26.167-9.61-2.177-16.915-13.057-16.915-26.167s7.3-24.015,16.915-26.192C407.168,224.412,414.473,235.317,414.473,248.427Z" transform="translate(-373.534 -221.828)" fill="#2f2e41"/>
            <path id="Path_7999" data-name="Path 7999" d="M391.043,230.2a5.223,5.223,0,1,1-5.2-5.712A5.475,5.475,0,0,1,391.043,230.2Z" transform="translate(-373.534 -204.077)" fill="#fff"/>
          </g>
          <g id="Group_2551" data-name="Group 2551" transform="translate(124.827 188.323)">
            <path id="Path_8000" data-name="Path 8000" d="M478.156,226.966a3.458,3.458,0,0,1-2.1-.721c-28.945-21.9-64.292-4.587-64.645-4.409a3.582,3.582,0,0,1-4.921-2.015,4.252,4.252,0,0,1,1.835-5.4c1.6-.805,39.582-19.379,71.945,5.109a4.337,4.337,0,0,1,.951,5.675A3.618,3.618,0,0,1,478.156,226.966Z" transform="translate(-406.149 -206.913)" fill="#2f2e41"/>
          </g>
          <g id="Group_2552" data-name="Group 2552" transform="translate(29.406 186.546)">
            <path id="Path_8001" data-name="Path 8001" d="M376.161,224.77a3.481,3.481,0,0,1-2.016-.653,4.33,4.33,0,0,1-1.1-5.644c3.633-6.163,8.692-10.028,15.043-11.49,16.082-3.691,34.84,9.73,35.63,10.3a4.333,4.333,0,0,1,1.053,5.65,3.52,3.52,0,0,1-5.145,1.163c-.167-.124-17-12.146-30.032-9.123-4.391,1.014-7.761,3.607-10.312,7.932A3.639,3.639,0,0,1,376.161,224.77Z" transform="translate(-372.448 -206.342)" fill="#2f2e41"/>
          </g>
          <path id="Path_8002" data-name="Path 8002" d="M677.727,256.772s1.178-30.324-53.178-59.569-155.849-9.972-192.96,0c0,0,19.638-42.682,0-50.095-24.024-9.064-31.453,66.183-31.453,66.183s-2.6-62.558-25.655-45.331S361.507,245.752,396.1,272.587c0,0,78.981-29.556,166.99,0,0,0,11.96,83.914,53.207,105.046l-.886,88.746s23.741-58.31,62.321-55.972C677.727,410.408,725,289.373,677.727,256.772Z" transform="translate(-362.062 -146.35)" fill="#0c0c0c"/>
          <g id="Group_2553" data-name="Group 2553" transform="translate(163.048 28.865)">
            <path id="Path_8017" data-name="Path 8017" d="M67.641.027c36.784-.823,66.142,17.507,65.573,40.941s-30.849,43.1-67.633,43.922S-.561,67.383.008,43.949,30.857.85,67.641.027Z" transform="matrix(0.257, -0.966, 0.966, 0.257, 76.608, 318.147)" fill="#404041"/>
            <path id="Path_8003" data-name="Path 8003" d="M554.437,381.162s24.072-219.493-139.3-217.525c0,0,3.381-8,40.528-8s163.681,39.451,127.244,225.529C582.906,381.162,571.569,370.126,554.437,381.162Z" transform="translate(-409.65 -155.633)" fill="#6d6e70"/>
            <path id="Path_8004" data-name="Path 8004" d="M532.656,251.192s-29.3,90.876-113.135,87.714" transform="translate(-401.615 45.952)" fill="none" stroke="#6d6e70" stroke-linecap="round" stroke-linejoin="round" stroke-width="1.749"/>
            <path id="Path_8005" data-name="Path 8005" d="M430.211,291.333H419.737c-3.61,0-6.54-3.215-6.54-7.183h0c0-3.968,2.93-7.183,6.54-7.183h10.473c3.613,0,6.543,3.215,6.543,7.183h0C436.754,288.118,433.823,291.333,430.211,291.333Z" transform="translate(-413.197 100.326)" fill="#404041"/>
            <path id="Path_8006" data-name="Path 8006" d="M519.443,274.617c-3.338,27.243-20.437,49.323-38.192,49.323s-29.44-22.081-26.105-49.323,20.437-49.324,38.192-49.324S522.778,247.377,519.443,274.617Z" transform="translate(-337.415 -8.683)" fill="#808184"/>
          </g>
        </g>
      </g>
      <g id="Group_7300" data-name="Group 7300" transform="translate(-60 7230.931)">
        <path id="Path_21964" data-name="Path 21964" d="M236.742,210.578l31.146,17.981s92.478,29.412,106.9,35.592-28.847,224.586-45.332,313.183S351.213,882.28,351.213,882.28H158.446v-583.1Z" transform="translate(191.019 -190.24)" fill="#2b2928"/>
        <path id="Path_21965" data-name="Path 21965" d="M239.093,210.578l-31.146,17.981s-92.478,29.412-106.9,35.592,28.847,224.586,45.329,313.183S132.639,882.28,132.639,882.28h184.75v-583.1Z" transform="translate(32.989 -190.24)" fill="#2b2928"/>
        <path id="Path_21966" data-name="Path 21966" d="M203.844,366.151l-62.372,107.9,62.372.506,63.137-.506Z" transform="translate(146.534 217.481)" fill="#e0eaf3"/>
        <path id="Path_21967" data-name="Path 21967" d="M132.3,372.116l60.543-11.909,47.143,29.278s1.984,16.873-1.984,17.865-.992,13.9-7.444,18.861-21.341,6.945-24.813,10.421-10.421,11.413-16.377,11.413S133.293,427.2,133.293,427.2Z" transform="translate(122.499 201.904)" fill="#eea886"/>
        <path id="Path_21968" data-name="Path 21968" d="M193.409,379.03l-22.3-14.092-19.567,12.148s-1.984,16.873,1.988,17.865.992,13.9,7.444,18.861c2.625,2.017,6.648,3.541,10.732,4.877,6.923-2.69,16.134-10.772,16.134-10.772Z" transform="translate(171.626 214.303)" fill="#eea886"/>
        <path id="Path_21969" data-name="Path 21969" d="M260.423,372.116,199.88,360.207l-47.143,29.278s-1.984,16.873,1.984,17.865.992,13.9,7.444,18.861,21.337,6.945,24.813,10.421,10.421,11.413,16.377,11.413S259.431,427.2,259.431,427.2Z" transform="translate(174.757 201.904)" fill="#eea886"/>
        <path id="Path_21970" data-name="Path 21970" d="M195.962,225.374s-31.8,13.926-51.509,67.039C106.141,395.677,66.117,577.727,62.037,607.659c-6.184,45.329,257.553,199.86,263.734,201.92l6.181-107.142L195.962,578.813,261.9,451.068Z" transform="translate(-61.929 -151.463)" fill="#2b2928"/>
        <path id="Path_21971" data-name="Path 21971" d="M98.947,228.236s34.227,51.886,37.272,134.182v68.067s27.424-116.8-26.424-206.2Z" transform="translate(35.085 -154.325)" fill="#201e1d"/>
        <g id="Group_7293" data-name="Group 7293" transform="translate(222.875 39.365)">
          <path id="Path_21972" data-name="Path 21972" d="M248.872,215.833l-90.443,39.108V648.006l46.375-8.686S283.088,471.536,284.887,394.1,248.872,215.833,248.872,215.833Z" transform="translate(-31.903 -215.833)" fill="#e0eaf3"/>
          <path id="Path_21973" data-name="Path 21973" d="M123.546,394.1c1.8,77.434,80.088,245.217,80.088,245.217l46.375,8.686V254.941l-90.447-39.108S121.747,316.672,123.546,394.1Z" transform="translate(-123.484 -215.833)" fill="#e0eaf3"/>
        </g>
        <path id="Path_21974" data-name="Path 21974" d="M206.861,304.22,233.394,249.5l-41.4-22.861-41.4,22.861,26.533,54.725L145.62,611.012l46.375,91.208,46.374-91.208Z" transform="translate(157.404 -148.16)" fill="#1d1b1b"/>
        <path id="Path_21991" data-name="Path 21991" d="M158.428,283.434l57.491-78.473s37.091,8.469,52.016,38.319L193.311,344.437Z" transform="translate(190.972 -204.961)" fill="#fff"/>
        <path id="Path_21992" data-name="Path 21992" d="M237.693,283.434,180.2,204.961s-37.091,8.469-52.016,38.319l74.624,101.157Z" transform="translate(111.706 -204.961)" fill="#fff"/>
        <path id="Path_21993" data-name="Path 21993" d="M112.794,372.383l-3,19.469L200.315,424.3Z" transform="translate(63.526 233.815)" fill="#201e1d"/>
        <path id="Path_21994" data-name="Path 21994" d="M271.191,371.156l3,19.469L183.67,423.076Z" transform="translate(257.124 230.6)" fill="#201e1d"/>
        <path id="Path_21995" data-name="Path 21995" d="M316.628,225.374s31.8,13.926,51.509,67.039c38.311,103.265,78.335,285.314,82.416,315.247C456.738,652.988,193,807.519,186.82,809.579l-6.181-107.142L316.628,578.813,250.694,451.068Z" transform="translate(249.182 -151.463)" fill="#2b2928"/>
        <path id="Path_21996" data-name="Path 21996" d="M250.279,228.32S216.052,280.206,213.007,362.5v68.067S185.449,313.654,239.294,224.25Z" transform="translate(315.531 -154.409)" fill="#201e1d"/>
      </g>
    </g>
  </g>
</svg>
