<svg id="Group_7315" data-name="Group 7315" xmlns="http://www.w3.org/2000/svg" width="279.748" height="394.557" viewBox="0 0 279.748 394.557">
  <path id="Path_22024" data-name="Path 22024" d="M610.728,176.536c-14.584-45.642-35.317-111.98-35.317-111.98l-83.995-4.714-84,4.714s-20.73,66.337-35.317,111.98,25.947,96.458,119.315,100.22C584.781,272.994,625.316,222.175,610.728,176.536Z" transform="translate(-350.272 -1.714)" fill="#1f2b55" fill-rule="evenodd"/>
  <path id="Rectangle_1223" data-name="Rectangle 1223" d="M0,0H174.252a0,0,0,0,1,0,0V109.989A21.108,21.108,0,0,1,153.144,131.1H21.108A21.108,21.108,0,0,1,0,109.989V0A0,0,0,0,1,0,0Z" transform="translate(227 131.097) rotate(180)" fill="#1f2b55"/>
  <path id="Path_22025" data-name="Path 22025" d="M568.178,215.909c-17.881-21.643-23.526-95.047-23.526-95.047L503.589,95.453l-41.066,25.409s-5.645,73.4-23.526,95.047c-10.67,12.918-75.283,33.879-75.283,33.879v59.285H643.461V249.789S578.848,228.828,568.178,215.909Z" transform="translate(-363.713 85.483)" fill="#f1cda8" fill-rule="evenodd"/>
  <path id="Path_22026" data-name="Path 22026" d="M477.175,120.862,436.112,95.453,396.8,119.779q-1.019,2.121-2.035,4.345c-.476,5.132-1.576,15.812-3.493,28.3,12.863,8.3,42.752,25.437,64.261,21.133,8.408-1.683,18.271-4,27.961-6.421C478.913,143.375,477.175,120.862,477.175,120.862Z" transform="translate(-296.237 85.483)" fill="#e3b58e" fill-rule="evenodd"/>
  <path id="Path_22027" data-name="Path 22027" d="M424.739,85.213s7.656-13.177,19.888-10.353,2.566,43.29-19.888,45.642Z" transform="translate(-214.284 34.087)" fill="#f1cda8" fill-rule="evenodd"/>
  <path id="Path_22028" data-name="Path 22028" d="M401.724,85.213s-7.659-13.177-19.892-10.353-2.566,43.29,19.892,45.642Z" transform="translate(-332.428 34.087)" fill="#f1cda8" fill-rule="evenodd"/>
  <path id="Path_22029" data-name="Path 22029" d="M409.544,63.023c-9.446,38.021-25.737,50.2-25.737,50.2h0v47.812a70.577,70.577,0,0,0,70.579,70.579h0a70.58,70.58,0,0,0,70.579-70.579V118.87l-9.991-30.748C452.159,98.313,409.544,63.023,409.544,63.023Z" transform="translate(-314.511 6.075)" fill="#f1cda8" fill-rule="evenodd"/>
  <path id="Path_22030" data-name="Path 22030" d="M568.178,134.941a39.708,39.708,0,0,1-4.2-6.421c-16.108,11.532-41.118,25.713-60.392,25.713s-44.287-14.181-60.4-25.713a39.717,39.717,0,0,1-4.2,6.421c-10.67,12.918-75.283,33.879-75.283,33.879v59.285H643.461V168.82S578.848,147.86,568.178,134.941Z" transform="translate(-363.713 166.451)" fill="#e9bf78" fill-rule="evenodd"/>
  <path id="Path_22031" data-name="Path 22031" d="M403.881,131.444a1.41,1.41,0,0,1,0-2.821c.076,0,7.449-.069,10.16-4.083,1.966-2.914-1.214-25.627-4.1-40.828a1.413,1.413,0,0,1,2.776-.524c1.2,6.3,7,37.993,3.666,42.932C412.824,131.385,404.244,131.444,403.881,131.444Z" transform="translate(-268.81 52.638)" fill="#a5764f"/>
  <path id="Path_22032" data-name="Path 22032" d="M405.368,89.7c0,4.728-2.687,8.559-6,8.559s-6-3.831-6-8.559,2.683-8.559,6-8.559S405.368,84.969,405.368,89.7Z" transform="translate(-291.095 50.431)" fill="#1f2b55" fill-rule="evenodd"/>
  <path id="Path_22033" data-name="Path 22033" d="M391.813,88.6a2.819,2.819,0,0,1-2.349-4.383c.252-.379,6.3-9.346,16.205-10.27,6.428-.621,12.825,2.3,18.967,8.632a2.822,2.822,0,0,1-4.049,3.931c-4.894-5.038-9.729-7.342-14.4-6.942-7.242.676-11.974,7.7-12.018,7.77A2.821,2.821,0,0,1,391.813,88.6Z" transform="translate(-301.811 32.633)" fill="#1f2b55"/>
  <path id="Path_22034" data-name="Path 22034" d="M411.7,89.7c0,4.728,2.686,8.559,6,8.559s6-3.831,6-8.559-2.686-8.559-6-8.559S411.7,84.969,411.7,89.7Z" transform="translate(-246.221 50.431)" fill="#1f2b55" fill-rule="evenodd"/>
  <path id="Path_22035" data-name="Path 22035" d="M442.606,88.6a2.815,2.815,0,0,1-2.352-1.255h0c-.048-.072-4.863-7.128-12.06-7.777-4.662-.417-9.48,1.914-14.363,6.942a2.822,2.822,0,1,1-4.049-3.931c6.142-6.325,12.539-9.253,18.971-8.632,9.9.924,15.95,9.891,16.2,10.27a2.819,2.819,0,0,1-2.349,4.383Z" transform="translate(-252.86 32.633)" fill="#1f2b55"/>
  <path id="Path_22036" data-name="Path 22036" d="M420.461,109.22a43.269,43.269,0,0,1-21.94-6.17,1.411,1.411,0,0,1,1.576-2.342c.783.524,19.474,12.739,39.607-.021a1.411,1.411,0,0,1,1.51,2.383A38.193,38.193,0,0,1,420.461,109.22Z" transform="translate(-280.009 97.76)" fill="#1f2b55"/>
  <g id="Group_7314" data-name="Group 7314" transform="translate(0 316.408)">
    <path id="Path_22037" data-name="Path 22037" d="M372.752,142.461c10.784,8.132,52.253,36.29,109.935,36.545.307,0,.6,0,.9,0,56.909,0,98.113-23.768,113.239-34.017-6.266-2.331-13.087-4.99-19.688-7.777a191.55,191.55,0,0,1-93.564,24.854h-.814c-42.063-.19-75.2-17.184-91.261-27.334C385.443,137.433,378.97,140.061,372.752,142.461Z" transform="translate(-341.58 -134.736)" fill="#f7ebdd"/>
    <path id="Path_22038" data-name="Path 22038" d="M502.73,197.171H504.1a313.347,313.347,0,0,0,139.358-32.965V144.977c-29.344,15.671-78.235,35.259-139.386,35.259-.421,0-.845,0-1.269,0-62.216-.276-111.887-24.106-138.275-40.1l-.817.269v19.064C393.157,176.135,441.934,196.9,502.73,197.171Z" transform="translate(-363.713 -121.533)" fill="#f7ebdd"/>
  </g>
</svg>
