<svg id="Group_7331" data-name="Group 7331" xmlns="http://www.w3.org/2000/svg" width="294.701" height="386.307" viewBox="0 0 294.701 386.307">
  <g id="Group_7330" data-name="Group 7330">
    <path id="Path_22122" data-name="Path 22122" d="M177.172,200.135H127.9c-30.582,0-55.374,24.068-55.374,53.754v73.5H232.546v-73.5C232.546,224.2,207.754,200.135,177.172,200.135Z" transform="translate(-5.186 -200.135)" fill="#1f2b55" fill-rule="evenodd"/>
    <path id="Path_22123" data-name="Path 22123" d="M270.8,376.275a22.305,22.305,0,0,1-16.371-19.1L244.081,254.842l-43.732-3.169-43.728,3.169L146.275,357.173a22.306,22.306,0,0,1-16.371,19.1L53,401.481v58.764H347.7V401.481Z" transform="translate(-53 -73.938)" fill="#f1cda8" fill-rule="evenodd"/>
    <path id="Path_22124" data-name="Path 22124" d="M183.5,337.585l-8.363-82.742L131.4,251.673l-43.728,3.169-6.518,64.479C105.777,332.833,148.312,350.693,183.5,337.585Z" transform="translate(15.946 -73.938)" fill="#e3b58e" fill-rule="evenodd"/>
    <path id="Path_22125" data-name="Path 22125" d="M116.193,277.8s22.116-9.591,25.409-31.972-22.585-17.353-25.409-6.394Z" transform="translate(101.735 -126.705)" fill="#f1cda8" fill-rule="evenodd"/>
    <path id="Path_22126" data-name="Path 22126" d="M93.505,277.8S71.393,268.209,68.1,245.827s22.585-17.353,25.406-6.394Z" transform="translate(-16.736 -126.705)" fill="#f1cda8" fill-rule="evenodd"/>
    <path id="Path_22127" data-name="Path 22127" d="M210.978,269.557c-8.563-12.712-24.082-38.286-22.713-54.892,0,0-30.113,26.116-53.171,30.351s-29.644,3.293-29.644,0,4.235-8.942,4.235-8.942l-12.232-4.818s-.959,31.982-18.447,43.911l-3.745,22.075v33.479c0,37.838,31.6,75.362,70.579,75.362h0c38.98,0,70.579-37.524,70.579-75.362V297.243l-5.442-27.685Z" transform="translate(1.509 -164.554)" fill="#f1cda8" fill-rule="evenodd"/>
    <g id="Group_7329" data-name="Group 7329" transform="translate(94.659 94.851)">
      <path id="Path_22128" data-name="Path 22128" d="M95.336,285.216a1.412,1.412,0,0,1,0-2.824c.076,0,7.446-.065,10.156-4.083,1.966-2.914-1.21-25.627-4.1-40.825a1.411,1.411,0,1,1,2.773-.528c1.2,6.3,7,37.99,3.666,42.928C104.275,285.154,95.7,285.216,95.336,285.216Z" transform="translate(-47.447 -207.633)" fill="#a5764f"/>
      <path id="Path_22129" data-name="Path 22129" d="M96.825,243.467c0,4.728-2.686,8.559-6,8.559s-6-3.831-6-8.559,2.686-8.559,6-8.559S96.825,238.739,96.825,243.467Z" transform="translate(-69.735 -209.84)" fill="#1f2b55" fill-rule="evenodd"/>
      <path id="Path_22130" data-name="Path 22130" d="M83.268,242.375a2.822,2.822,0,0,1-2.349-4.383c.252-.383,6.3-9.346,16.205-10.27,6.421-.624,12.825,2.3,18.967,8.628a2.822,2.822,0,1,1-4.049,3.931c-4.9-5.035-9.735-7.349-14.4-6.939-7.242.676-11.974,7.7-12.022,7.77A2.819,2.819,0,0,1,83.268,242.375Z" transform="translate(-80.448 -227.639)" fill="#1f2b55"/>
      <path id="Path_22131" data-name="Path 22131" d="M103.151,243.467c0,4.728,2.686,8.559,6,8.559s6-3.831,6-8.559-2.686-8.559-6-8.559S103.151,238.739,103.151,243.467Z" transform="translate(-24.859 -209.84)" fill="#1f2b55" fill-rule="evenodd"/>
      <path id="Path_22132" data-name="Path 22132" d="M134.061,242.374a2.814,2.814,0,0,1-2.352-1.259h0c-.048-.069-4.863-7.128-12.06-7.777-4.669-.393-9.48,1.921-14.363,6.942a2.822,2.822,0,1,1-4.049-3.931c6.142-6.325,12.529-9.249,18.971-8.628,9.9.924,15.95,9.887,16.2,10.27a2.822,2.822,0,0,1-2.349,4.383Z" transform="translate(-31.498 -227.639)" fill="#1f2b55"/>
      <path id="Path_22133" data-name="Path 22133" d="M111.916,262.987a43.323,43.323,0,0,1-21.94-6.166,1.412,1.412,0,0,1,1.573-2.345c.786.528,19.474,12.739,39.607-.017a1.41,1.41,0,1,1,1.514,2.38A38.192,38.192,0,0,1,111.916,262.987Z" transform="translate(-58.647 -162.512)" fill="#1f2b55"/>
    </g>
    <path id="Path_22134" data-name="Path 22134" d="M257.027,284.637l-.052.01c-58.73,16.167-113.249,0-113.249,0l-.069.024A22.619,22.619,0,0,1,129.9,295.559L53,320.765v58.764H347.7V320.765l-76.9-25.206A22.608,22.608,0,0,1,257.027,284.637Z" transform="translate(-53 6.777)" fill="#e9c17a"/>
  </g>
  <path id="Path_22135" data-name="Path 22135" d="M214.589,295.021a22.575,22.575,0,0,1-12.167-10.384l-.052.01c-58.73,16.167-113.249,0-113.249,0l-.069.024A22.619,22.619,0,0,1,75.3,295.559s36.935,50.95,79.159,50.95C177.21,346.509,199.167,319.727,214.589,295.021Z" transform="translate(1.604 6.777)" fill="#f7ebdd"/>
</svg>
