<svg xmlns="http://www.w3.org/2000/svg" width="641.517" height="592.617" viewBox="0 0 641.517 592.617">
  <g id="Group_245" data-name="Group 245" transform="translate(-102 -17)">
    <g id="Floor--inject-125" transform="translate(102 249.601)">
      <g id="floor--inject-125-2">
        <ellipse id="floor--inject-125-3" cx="311.79" cy="180.008" rx="311.79" ry="180.008" fill="#ebebeb"/>
        <path id="Road--inject-125" d="M743.176,477.635c-.068-41.276-24.586-82.536-73.531-115.942l-2.628-1.766L227.209,613.854h0l2.715,1.335c57.848,28.351,129.512,42.582,201.148,42.625Z" transform="translate(-119.598 -297.799)" fill="#fafafa"/>
      </g>
    </g>
    <g id="Shadows--inject-125" transform="translate(131.57 267.352)">
      <ellipse id="Shadow--inject-125" cx="54.918" cy="31.71" rx="54.918" ry="31.71" transform="translate(156.656)" fill="#e0e0e0"/>
      <ellipse id="shadow--inject-125-2" cx="80.64" cy="46.56" rx="80.64" ry="46.56" transform="translate(302.713 157.389)" opacity="0.05" style="isolation: isolate"/>
      <ellipse id="shadow--inject-125-3" cx="63.449" cy="36.636" rx="63.449" ry="36.636" transform="translate(0 147.077)" fill="#e0e0e0"/>
    </g>
    <g id="Trees--inject-125" transform="translate(109.365 17)">
      <g id="Pine--inject-125" transform="translate(150.12)">
        <path id="Path_2362" data-name="Path 2362" d="M367.858,166.056V319.724c0,1.839,1.221,3.691,3.663,5.1a19.563,19.563,0,0,0,17.636,0c2.442-1.44,3.662-3.26,3.662-5.1V166.056Z" transform="translate(-296.851 -37.95)" fill="#b16668"/>
        <path id="Path_2363" data-name="Path 2363" d="M451.335,228.041,374.056,41.4H363.283L285.989,228.1a9.893,9.893,0,0,0,7.182,13.471l1.264.244a9.866,9.866,0,0,1,7.87,10.918h0a9.894,9.894,0,0,0,12.71,10.671l3.82-1.177a9.866,9.866,0,0,1,11.892,5.357l3.849,8.473a9.878,9.878,0,0,0,14.032,4.42l14.993-8.89a9.841,9.841,0,0,1,10.054,0l14.993,8.89a9.878,9.878,0,0,0,14.031-4.424l3.834-8.472a9.881,9.881,0,0,1,11.906-5.358l3.82,1.165a9.866,9.866,0,0,0,12.694-10.656h0a9.9,9.9,0,0,1,7.883-10.915l1.264-.244a9.881,9.881,0,0,0,7.252-13.529Z" transform="translate(-285.239 -20.429)" fill="#26a970"/>
        <path id="Path_2364" data-name="Path 2364" d="M451.335,228.041,374.056,41.4H363.283L285.989,228.1a9.893,9.893,0,0,0,7.182,13.471l1.264.244a9.866,9.866,0,0,1,7.87,10.918h0a9.894,9.894,0,0,0,12.71,10.671l3.82-1.177a9.866,9.866,0,0,1,11.892,5.357l3.849,8.473a9.878,9.878,0,0,0,14.032,4.42l14.993-8.89a9.841,9.841,0,0,1,10.054,0l14.993,8.89a9.878,9.878,0,0,0,14.031-4.424l3.834-8.472a9.881,9.881,0,0,1,11.906-5.358l3.82,1.165a9.866,9.866,0,0,0,12.694-10.656h0a9.9,9.9,0,0,1,7.883-10.915l1.264-.244a9.881,9.881,0,0,0,7.252-13.529Z" transform="translate(-285.239 -20.429)" opacity="0.3" style="isolation: isolate"/>
        <path id="Path_2365" data-name="Path 2365" d="M357.333,62.453l8.617-19.618H376.72L391,76.081l46.646,112.638a5.746,5.746,0,0,1-4.867,4.624h0a7.472,7.472,0,0,0-6.2,8.226l.158,1.44a7.453,7.453,0,0,1-10.054,7.841l-3.82-1.439a7.47,7.47,0,0,0-9.478,3.935l-4.74,10.643a7.5,7.5,0,0,1-10.656,3.375l-12.81-8.617a7.47,7.47,0,0,0-7.655,0l-14.289,8.621a7.5,7.5,0,0,1-10.656-3.375l-4.74-10.643a7.471,7.471,0,0,0-9.478-3.935l-3.82,1.44a7.468,7.468,0,0,1-10.056-7.843l.172-1.44a7.472,7.472,0,0,0-6.2-8.226,5.629,5.629,0,0,1-4.136-2.758Z" transform="translate(-287.919 -20.631)" opacity="0.1" style="isolation: isolate"/>
        <path id="Path_2366" data-name="Path 2366" d="M436.616,172.565,376.568,32.727H365.8L304.188,172.565c-2.211,4.495-.948,9.851,4.007,10.67a7.472,7.472,0,0,1,6.2,8.229l-.172,1.44a7.482,7.482,0,0,0,10.053,7.855l3.82-1.439a7.471,7.471,0,0,1,9.479,3.935l4.739,10.643a7.466,7.466,0,0,0,10.656,3.375l14.29-8.531a7.472,7.472,0,0,1,7.654,0l12.81,8.531a7.469,7.469,0,0,0,10.243-2.577,7.289,7.289,0,0,0,.413-.8l4.74-10.643a7.471,7.471,0,0,1,9.479-3.935l3.82,1.439a7.468,7.468,0,0,0,10.053-7.855l-.158-1.44a7.482,7.482,0,0,1,6.2-8.243h0C437.579,182.417,438.843,177.06,436.616,172.565Z" transform="translate(-287.755 -19.21)" fill="#46c48d"/>
        <path id="Path_2367" data-name="Path 2367" d="M436.616,172.565,376.568,32.727H365.8L304.188,172.565c-2.211,4.495-.948,9.851,4.007,10.67a7.472,7.472,0,0,1,6.2,8.229l-.172,1.44a7.482,7.482,0,0,0,10.053,7.855l3.82-1.439a7.471,7.471,0,0,1,9.479,3.935l4.739,10.643a7.466,7.466,0,0,0,10.656,3.375l14.29-8.531a7.472,7.472,0,0,1,7.654,0l12.81,8.531a7.469,7.469,0,0,0,10.243-2.577,7.289,7.289,0,0,0,.413-.8l4.74-10.643a7.471,7.471,0,0,1,9.479-3.935l3.82,1.439a7.468,7.468,0,0,0,10.053-7.855l-.158-1.44a7.482,7.482,0,0,1,6.2-8.243h0C437.579,182.417,438.843,177.06,436.616,172.565Z" transform="translate(-287.755 -19.21)" opacity="0.2" style="isolation: isolate"/>
        <path id="Path_2368" data-name="Path 2368" d="M368.768,32.726H379.54L423.3,134.621a6.057,6.057,0,0,1-1.105.775l-.331.187a6.779,6.779,0,0,0-3.417,6.448h0a6.721,6.721,0,0,1-8.417,7.083l-2.614-.69a6.722,6.722,0,0,0-7.641,3.332l-3.576,6.678a6.749,6.749,0,0,1-9.048,2.786l-9.88-5.17a6.734,6.734,0,0,0-6.233,0l-9.881,5.17a6.749,6.749,0,0,1-9.048-2.786l-3.576-6.678a6.735,6.735,0,0,0-7.654-3.332l-2.6.69a6.719,6.719,0,0,1-8.415-7.08,6.739,6.739,0,0,0-3.418-6.435l-.331-.186a6.816,6.816,0,0,1-1.85-1.566Z" transform="translate(-290.724 -19.21)" opacity="0.1" style="isolation: isolate"/>
        <path id="Path_2369" data-name="Path 2369" d="M424.373,115.35,379.231,20.463l-.359-.574a5.743,5.743,0,0,0-9.966,0l-.359.589-45.138,94.87a6.72,6.72,0,0,0,2.179,9.252c.086.054.174.106.263.155l.33.186a6.75,6.75,0,0,1,3.418,6.434,6.723,6.723,0,0,0,8.416,7.081l2.6-.69a6.751,6.751,0,0,1,7.655,3.332l3.576,6.678a6.735,6.735,0,0,0,9.048,2.786l9.88-5.155a6.736,6.736,0,0,1,6.234,0l9.88,5.155a6.735,6.735,0,0,0,9.048-2.786l3.576-6.678a6.736,6.736,0,0,1,7.64-3.332l2.614.69a6.722,6.722,0,0,0,8.416-7.081h0a6.749,6.749,0,0,1,3.417-6.434l.331-.186a6.721,6.721,0,0,0,2.6-9.143c-.05-.089-.1-.177-.155-.264Z" transform="translate(-290.462 -17)" fill="#68c89e"/>
        <path id="Path_2370" data-name="Path 2370" d="M424.373,115.35,379.231,20.463l-.359-.574a5.743,5.743,0,0,0-9.966,0l-.359.589-45.138,94.87a6.72,6.72,0,0,0,2.179,9.252c.086.054.174.106.263.155l.33.186a6.75,6.75,0,0,1,3.418,6.434,6.723,6.723,0,0,0,8.416,7.081l2.6-.69a6.751,6.751,0,0,1,7.655,3.332l3.576,6.678a6.735,6.735,0,0,0,9.048,2.786l9.88-5.155a6.736,6.736,0,0,1,6.234,0l9.88,5.155a6.735,6.735,0,0,0,9.048-2.786l3.576-6.678a6.736,6.736,0,0,1,7.64-3.332l2.614.69a6.722,6.722,0,0,0,8.416-7.081h0a6.749,6.749,0,0,1,3.417-6.434l.331-.186a6.721,6.721,0,0,0,2.6-9.143c-.05-.089-.1-.177-.155-.264Z" transform="translate(-290.462 -17)" opacity="0.1" style="isolation: isolate"/>
        <path id="Path_2371" data-name="Path 2371" d="M372.805,349.2a7.669,7.669,0,0,0-15.324,0v.431a3.922,3.922,0,0,0,2.241,2.872,12.023,12.023,0,0,0,10.843,0,3.949,3.949,0,0,0,2.24-2.872V349.2Z" transform="translate(-295.393 -62.659)" fill="#37474f"/>
        <path id="Path_2372" data-name="Path 2372" d="M370.708,352.692a3.949,3.949,0,0,0,2.24-2.872v-.431a7.653,7.653,0,0,0-3.992-6.506c0,.086,3.82,4.811,1.034,7.971-1.924,2.183-8.617,2.585-11.489.862a5.2,5.2,0,0,0,1.321,1.019,12.021,12.021,0,0,0,10.887-.044Z" transform="translate(-295.536 -62.802)" fill="#263238"/>
        <path id="Path_2373" data-name="Path 2373" d="M359.122,354.061a5.415,5.415,0,0,0-10.814,0v.3a2.77,2.77,0,0,0,1.576,2.057,8.459,8.459,0,0,0,7.654,0,2.771,2.771,0,0,0,1.577-2.057.6.6,0,0,0,0-.157.5.5,0,0,0,0-.143Z" transform="translate(-294.104 -63.654)" fill="#455a64"/>
        <path id="Path_2374" data-name="Path 2374" d="M357.562,356.959a2.772,2.772,0,0,0,1.577-2.057.6.6,0,0,0,0-.157.509.509,0,0,0,0-.144,5.322,5.322,0,0,0-.359-1.795c.13,2.312-.96,3.719-4.381,4.165s-5.659-1.019-5.946-1.551a3.079,3.079,0,0,0,1.44,1.537,8.457,8.457,0,0,0,7.669,0Z" transform="translate(-294.124 -64.197)" fill="#37474f"/>
        <path id="Path_2375" data-name="Path 2375" d="M405.306,347.765a5.371,5.371,0,0,0-10.729,0,.5.5,0,0,0,0,.144.605.605,0,0,0,0,.157,2.7,2.7,0,0,0,1.566,2.039,8.429,8.429,0,0,0,7.6,0,2.74,2.74,0,0,0,1.566-2.039v-.3Z" transform="translate(-300.606 -62.773)" fill="#455a64"/>
        <path id="Path_2376" data-name="Path 2376" d="M403.766,350.647a2.74,2.74,0,0,0,1.566-2.039v-.3a5.169,5.169,0,0,0-.359-1.783c.13,2.3-.959,3.691-4.308,4.122s-5.615-1.006-5.9-1.523a3.107,3.107,0,0,0,1.439,1.523A8.432,8.432,0,0,0,403.766,350.647Z" transform="translate(-300.633 -63.314)" fill="#37474f"/>
      </g>
      <g id="Pine--inject-125-2" transform="translate(0 154.232)">
        <path id="Path_2362-2" data-name="Path 2362-2" d="M193.189,345.511V499.179c0,1.838,1.221,3.691,3.663,5.1a19.563,19.563,0,0,0,17.636,0c2.442-1.44,3.662-3.261,3.662-5.1V345.511Z" transform="translate(-122.182 -217.404)" fill="#b16668"/>
        <path id="Path_2363-2" data-name="Path 2363-2" d="M276.665,407.5,199.386,220.853H188.614l-77.294,186.7a9.9,9.9,0,0,0,7.182,13.471l1.263.244a9.866,9.866,0,0,1,7.87,10.918h0a9.9,9.9,0,0,0,12.71,10.671l3.82-1.178a9.867,9.867,0,0,1,11.891,5.357l3.849,8.473a9.885,9.885,0,0,0,14.032,4.421l14.993-8.89a9.837,9.837,0,0,1,10.054,0l14.993,8.89a9.875,9.875,0,0,0,14.031-4.424l3.835-8.473a9.88,9.88,0,0,1,11.905-5.357l3.82,1.165a9.867,9.867,0,0,0,12.695-10.655h0a9.9,9.9,0,0,1,7.883-10.915l1.264-.244a9.88,9.88,0,0,0,7.252-13.529Z" transform="translate(-110.57 -199.884)" fill="#26a970"/>
        <path id="Path_2364-2" data-name="Path 2364-2" d="M276.665,407.5,199.386,220.853H188.614l-77.294,186.7a9.9,9.9,0,0,0,7.182,13.471l1.263.244a9.866,9.866,0,0,1,7.87,10.918h0a9.9,9.9,0,0,0,12.71,10.671l3.82-1.178a9.867,9.867,0,0,1,11.891,5.357l3.849,8.473a9.885,9.885,0,0,0,14.032,4.421l14.993-8.89a9.837,9.837,0,0,1,10.054,0l14.993,8.89a9.875,9.875,0,0,0,14.031-4.424l3.835-8.473a9.88,9.88,0,0,1,11.905-5.357l3.82,1.165a9.867,9.867,0,0,0,12.695-10.655h0a9.9,9.9,0,0,1,7.883-10.915l1.264-.244a9.88,9.88,0,0,0,7.252-13.529Z" transform="translate(-110.57 -199.884)" opacity="0.3" style="isolation: isolate"/>
        <path id="Path_2365-2" data-name="Path 2365-2" d="M182.664,241.908l8.616-19.618h10.772l14.275,33.246,46.647,112.637a5.746,5.746,0,0,1-4.867,4.625h0a7.472,7.472,0,0,0-6.2,8.226l.157,1.44a7.454,7.454,0,0,1-10.053,7.841l-3.82-1.44a7.472,7.472,0,0,0-9.479,3.935l-4.739,10.642a7.5,7.5,0,0,1-9.913,3.762,7.7,7.7,0,0,1-.743-.386L200.5,398.2a7.473,7.473,0,0,0-7.655,0l-14.289,8.621a7.5,7.5,0,0,1-10.27-2.63,7.358,7.358,0,0,1-.386-.745L163.16,392.8a7.471,7.471,0,0,0-9.479-3.935l-3.82,1.44a7.468,7.468,0,0,1-10.055-7.844l.172-1.44a7.472,7.472,0,0,0-6.2-8.226,5.628,5.628,0,0,1-4.136-2.757Z" transform="translate(-113.25 -200.086)" opacity="0.1" style="isolation: isolate"/>
        <path id="Path_2366-2" data-name="Path 2366-2" d="M261.947,352.019,201.9,212.182H191.13L129.52,352.019c-2.211,4.5-.948,9.852,4.007,10.671a7.472,7.472,0,0,1,6.2,8.229l-.172,1.44a7.482,7.482,0,0,0,10.053,7.855l3.82-1.44a7.472,7.472,0,0,1,9.479,3.935l4.739,10.642a7.468,7.468,0,0,0,9.859,3.789,7.3,7.3,0,0,0,.8-.413L192.6,388.2a7.474,7.474,0,0,1,7.655,0l12.81,8.531a7.468,7.468,0,0,0,10.656-3.376l4.74-10.642a7.471,7.471,0,0,1,9.478-3.935l3.82,1.44a7.469,7.469,0,0,0,10.054-7.855l-.158-1.44a7.483,7.483,0,0,1,6.2-8.244h0C262.91,361.872,264.173,356.515,261.947,352.019Z" transform="translate(-113.086 -198.665)" fill="#46c48d"/>
        <path id="Path_2367-2" data-name="Path 2367-2" d="M261.947,352.019,201.9,212.182H191.13L129.52,352.019c-2.211,4.5-.948,9.852,4.007,10.671a7.472,7.472,0,0,1,6.2,8.229l-.172,1.44a7.482,7.482,0,0,0,10.053,7.855l3.82-1.44a7.472,7.472,0,0,1,9.479,3.935l4.739,10.642a7.468,7.468,0,0,0,9.859,3.789,7.3,7.3,0,0,0,.8-.413L192.6,388.2a7.474,7.474,0,0,1,7.655,0l12.81,8.531a7.468,7.468,0,0,0,10.656-3.376l4.74-10.642a7.471,7.471,0,0,1,9.478-3.935l3.82,1.44a7.469,7.469,0,0,0,10.054-7.855l-.158-1.44a7.483,7.483,0,0,1,6.2-8.244h0C262.91,361.872,264.173,356.515,261.947,352.019Z" transform="translate(-113.086 -198.665)" opacity="0.2" style="isolation: isolate"/>
        <path id="Path_2368-2" data-name="Path 2368-2" d="M194.1,212.181H204.87l43.759,101.895a6.1,6.1,0,0,1-1.105.775l-.331.186a6.779,6.779,0,0,0-3.417,6.448h0a6.721,6.721,0,0,1-8.417,7.082l-2.614-.689a6.721,6.721,0,0,0-7.641,3.332l-3.576,6.678a6.75,6.75,0,0,1-9.048,2.786l-9.88-5.17a6.736,6.736,0,0,0-6.234,0l-9.88,5.17a6.75,6.75,0,0,1-9.048-2.786l-3.576-6.678a6.735,6.735,0,0,0-7.654-3.332l-2.6.689a6.721,6.721,0,0,1-8.416-7.08,6.734,6.734,0,0,0-3.417-6.434l-.331-.186a6.8,6.8,0,0,1-1.85-1.565Z" transform="translate(-116.055 -198.665)" opacity="0.1" style="isolation: isolate"/>
        <path id="Path_2369-2" data-name="Path 2369-2" d="M249.7,294.8l-45.142-94.886-.359-.575a5.745,5.745,0,0,0-9.967,0l-.359.589L148.739,294.8a6.721,6.721,0,0,0,2.179,9.252q.129.08.263.155l.33.187a6.75,6.75,0,0,1,3.418,6.434,6.721,6.721,0,0,0,8.416,7.08l2.6-.689a6.75,6.75,0,0,1,7.655,3.332l3.576,6.678a6.735,6.735,0,0,0,9.048,2.786l9.88-5.156a6.739,6.739,0,0,1,6.233,0l9.881,5.156a6.735,6.735,0,0,0,9.048-2.786l3.576-6.678a6.734,6.734,0,0,1,7.64-3.332l2.614.689a6.721,6.721,0,0,0,8.415-7.08h0a6.75,6.75,0,0,1,3.418-6.434l.331-.187a6.722,6.722,0,0,0,2.6-9.144c-.05-.089-.1-.176-.156-.263Z" transform="translate(-115.793 -196.455)" fill="#68c89e"/>
        <path id="Path_2370-2" data-name="Path 2370-2" d="M249.7,294.8l-45.142-94.886-.359-.575a5.745,5.745,0,0,0-9.967,0l-.359.589L148.739,294.8a6.721,6.721,0,0,0,2.179,9.252q.129.08.263.155l.33.187a6.75,6.75,0,0,1,3.418,6.434,6.721,6.721,0,0,0,8.416,7.08l2.6-.689a6.75,6.75,0,0,1,7.655,3.332l3.576,6.678a6.735,6.735,0,0,0,9.048,2.786l9.88-5.156a6.739,6.739,0,0,1,6.233,0l9.881,5.156a6.735,6.735,0,0,0,9.048-2.786l3.576-6.678a6.734,6.734,0,0,1,7.64-3.332l2.614.689a6.721,6.721,0,0,0,8.415-7.08h0a6.75,6.75,0,0,1,3.418-6.434l.331-.187a6.722,6.722,0,0,0,2.6-9.144c-.05-.089-.1-.176-.156-.263Z" transform="translate(-115.793 -196.455)" opacity="0.1" style="isolation: isolate"/>
        <path id="Path_2371-2" data-name="Path 2371-2" d="M198.136,528.657a7.669,7.669,0,0,0-15.324,0v.431a3.923,3.923,0,0,0,2.241,2.872,12.022,12.022,0,0,0,10.843,0,3.948,3.948,0,0,0,2.24-2.872v-.431Z" transform="translate(-120.723 -242.114)" fill="#37474f"/>
        <path id="Path_2372-2" data-name="Path 2372-2" d="M196.039,532.147a3.951,3.951,0,0,0,2.24-2.872v-.432a7.653,7.653,0,0,0-3.992-6.505c0,.086,3.82,4.811,1.034,7.971-1.924,2.183-8.618,2.584-11.489.861a5.165,5.165,0,0,0,1.321,1.019,12.021,12.021,0,0,0,10.887-.043Z" transform="translate(-120.867 -242.257)" fill="#263238"/>
        <path id="Path_2373-2" data-name="Path 2373-2" d="M184.452,533.515a5.415,5.415,0,0,0-10.814,0v.3a2.772,2.772,0,0,0,1.577,2.057,8.459,8.459,0,0,0,7.654,0,2.772,2.772,0,0,0,1.577-2.057.6.6,0,0,0,0-.157.508.508,0,0,0,0-.144Z" transform="translate(-119.434 -243.109)" fill="#455a64"/>
        <path id="Path_2374-2" data-name="Path 2374-2" d="M182.893,536.414a2.772,2.772,0,0,0,1.577-2.057.6.6,0,0,0,0-.157.508.508,0,0,0,0-.144,5.331,5.331,0,0,0-.359-1.8c.129,2.312-.96,3.72-4.381,4.165s-5.659-1.019-5.946-1.551a3.077,3.077,0,0,0,1.44,1.538,8.463,8.463,0,0,0,7.669,0Z" transform="translate(-119.455 -243.652)" fill="#37474f"/>
        <path id="Path_2375-2" data-name="Path 2375-2" d="M230.637,527.219a5.371,5.371,0,0,0-10.729,0,.509.509,0,0,0,0,.144.6.6,0,0,0,0,.157,2.7,2.7,0,0,0,1.566,2.04,8.429,8.429,0,0,0,7.6,0,2.745,2.745,0,0,0,1.566-2.04v-.3Z" transform="translate(-125.937 -242.227)" fill="#455a64"/>
        <path id="Path_2376-2" data-name="Path 2376-2" d="M229.1,530.1a2.743,2.743,0,0,0,1.566-2.039v-.3a5.177,5.177,0,0,0-.359-1.782c.13,2.3-.96,3.691-4.308,4.122s-5.616-1.006-5.9-1.522a3.1,3.1,0,0,0,1.44,1.522A8.429,8.429,0,0,0,229.1,530.1Z" transform="translate(-125.963 -242.769)" fill="#37474f"/>
      </g>
      <g id="pine--inject-125-3" transform="translate(61.857 432.227)">
        <path id="Path_2386" data-name="Path 2386" d="M216.865,527.852a8.287,8.287,0,0,1,16.559,0v.46a4.308,4.308,0,0,1-2.413,3.159,12.926,12.926,0,0,1-11.722,0,4.31,4.31,0,0,1-2.427-3.159Z" transform="translate(-187.366 -519.911)" fill="#37474f"/>
        <path id="Path_2387" data-name="Path 2387" d="M219.293,531.622a4.308,4.308,0,0,1-2.428-3.159V528a8.274,8.274,0,0,1,4.308-7.023c0,.069-4.122,5.184-1.105,8.617,2.082,2.356,9.235,2.786,12.365.933a6.873,6.873,0,0,1-1.44,1.106,12.922,12.922,0,0,1-11.7-.015Z" transform="translate(-187.366 -520.061)" fill="#263238"/>
        <path id="Path_2388" data-name="Path 2388" d="M232.506,533.041a5.845,5.845,0,0,1,11.69,0v0a.692.692,0,0,1,0,.158.72.72,0,0,1,0,.172,2.976,2.976,0,0,1-1.709,2.226,9.134,9.134,0,0,1-8.272,0,3.046,3.046,0,0,1-1.709-2.225Z" transform="translate(-189.565 -520.934)" fill="#455a64"/>
        <path id="Path_2389" data-name="Path 2389" d="M234.148,536.238a3.044,3.044,0,0,1-1.709-2.226v-.33a5.817,5.817,0,0,1,.4-1.939c-.144,2.513,1.034,4.021,4.739,4.5s6.1-1.091,6.42-1.666a3.346,3.346,0,0,1-1.577,1.666,9.135,9.135,0,0,1-8.272,0Z" transform="translate(-189.555 -521.574)" fill="#37474f"/>
        <path id="Path_2390" data-name="Path 2390" d="M182.557,526.248a5.8,5.8,0,0,1,11.591,0,.888.888,0,0,1,0,.316,2.874,2.874,0,0,1-1.695,2.212,9.064,9.064,0,0,1-8.2,0,2.974,2.974,0,0,1-1.695-2.212.888.888,0,0,1,0-.316Z" transform="translate(-182.543 -519.987)" fill="#455a64"/>
        <path id="Path_2391" data-name="Path 2391" d="M184.252,529.409a2.974,2.974,0,0,1-1.695-2.212.884.884,0,0,1,0-.315,5.614,5.614,0,0,1,.388-1.924c-.144,2.485,1.033,3.992,4.7,4.467s6.06-1.092,6.375-1.666a3.346,3.346,0,0,1-1.565,1.651A9.062,9.062,0,0,1,184.252,529.409Z" transform="translate(-182.543 -520.62)" fill="#37474f"/>
      </g>
      <g id="Plants--inject-125" transform="translate(223.53 373.808)">
        <path id="Path_2392" data-name="Path 2392" d="M413.587,532,422,527.188s4.036-22.231,1.02-41.346c-4.308-26.871-22.533-36.134-29.183-33.463s-8.2,10.625,3.791,26.153C404.712,487.695,413.875,507.111,413.587,532Z" transform="translate(-373.194 -451.938)" fill="#1b764e"/>
        <path id="Path_2393" data-name="Path 2393" d="M413.587,532,422,527.188s4.036-22.231,1.02-41.346c-4.308-26.871-22.533-36.134-29.183-33.463s-8.2,10.625,3.791,26.153C404.712,487.695,413.875,507.111,413.587,532Z" transform="translate(-373.194 -451.938)" opacity="0.3" style="isolation: isolate"/>
        <path id="Path_2394" data-name="Path 2394" d="M418.141,521.962h-.086a.6.6,0,0,1-.517-.675c3.476-25.161-6.634-52.721-18.009-63.823a.6.6,0,0,1,0-.847.588.588,0,0,1,.832-.015l.015.015c11.576,11.317,21.888,39.322,18.354,64.857A.616.616,0,0,1,418.141,521.962Z" transform="translate(-374.689 -452.57)" fill="#fff"/>
        <path id="Path_2395" data-name="Path 2395" d="M387.711,549.239c-1.322.775-4.064-.905-5.113-1.608a12.62,12.62,0,0,1-4.222-4.84,11.847,11.847,0,0,1-1.049-7.181,26.44,26.44,0,0,1,.905-3.791c.343-1.234.7-2.456,1.049-3.691a9.164,9.164,0,0,0,.548-3.719c-.316-2.514-2.556-4.308-4.593-5.745s-4.593-3.907-4.581-6.936a10.732,10.732,0,0,1,2.673-6.362c1.44-1.838,3.174-3.461,4.5-5.4a7.459,7.459,0,0,0,1.522-4.711,8.1,8.1,0,0,0-1.02-2.945,41.415,41.415,0,0,1-3.231-5.9,5.989,5.989,0,0,1,1.019-6.29,6.994,6.994,0,0,1,5.228-1.293,12.014,12.014,0,0,1,4.854,1.709c4.811,2.674,7.568,8.387,12.681,10.441a47.2,47.2,0,0,0,6.176,1.508,7.667,7.667,0,0,1,5.113,3.5c1.867,3.748-1.609,8.358-.287,12.338,1.165,3.519,4.581,4.867,6.505,8.043a7.509,7.509,0,0,1,.891,4.61,22.254,22.254,0,0,1-1.938,7.784,54.621,54.621,0,0,1-4.308,7.023C410.976,535.839,387.927,549.125,387.711,549.239Z" transform="translate(-370.655 -455.705)" fill="#5db48e"/>
        <path id="Path_2396" data-name="Path 2396" d="M387.711,549.239c-1.322.775-4.064-.905-5.113-1.608a12.62,12.62,0,0,1-4.222-4.84,11.847,11.847,0,0,1-1.049-7.181,26.44,26.44,0,0,1,.905-3.791c.343-1.234.7-2.456,1.049-3.691a9.164,9.164,0,0,0,.548-3.719c-.316-2.514-2.556-4.308-4.593-5.745s-4.593-3.907-4.581-6.936a10.732,10.732,0,0,1,2.673-6.362c1.44-1.838,3.174-3.461,4.5-5.4a7.459,7.459,0,0,0,1.522-4.711,8.1,8.1,0,0,0-1.02-2.945,41.415,41.415,0,0,1-3.231-5.9,5.989,5.989,0,0,1,1.019-6.29,6.994,6.994,0,0,1,5.228-1.293,12.014,12.014,0,0,1,4.854,1.709c4.811,2.674,7.568,8.387,12.681,10.441a47.2,47.2,0,0,0,6.176,1.508,7.667,7.667,0,0,1,5.113,3.5c1.867,3.748-1.609,8.358-.287,12.338,1.165,3.519,4.581,4.867,6.505,8.043a7.509,7.509,0,0,1,.891,4.61,22.254,22.254,0,0,1-1.938,7.784,54.621,54.621,0,0,1-4.308,7.023C410.976,535.839,387.927,549.125,387.711,549.239Z" transform="translate(-370.655 -455.705)" opacity="0.15" style="isolation: isolate"/>
        <path id="Path_2397" data-name="Path 2397" d="M403.26,542.6h0a.616.616,0,0,1-.589-.632c.991-23.812-10.226-50.093-18.383-57.734a.589.589,0,0,1-.015-.833l.015-.015a.6.6,0,0,1,.847,0c8.33,7.8,19.776,34.468,18.77,58.667a.617.617,0,0,1-.646.548Z" transform="translate(-372.546 -456.334)" fill="#fff"/>
        <path id="Path_2398" data-name="Path 2398" d="M399.284,518.925a.455.455,0,0,1-.186,0,80.871,80.871,0,0,0-17.234-2.786.6.6,0,1,1-.186-1.192.61.61,0,0,1,.186,0,82.245,82.245,0,0,1,17.578,2.872.632.632,0,0,1,.4.761.6.6,0,0,1-.56.343Z" transform="translate(-372.133 -460.793)" fill="#fff"/>
      </g>
    </g>
    <g id="Group_219" data-name="Group 219" transform="translate(676.563 93.491)">
      <path id="Path_2399" data-name="Path 2399" d="M781.412,109.351A2.965,2.965,0,0,0,779.835,107a8.018,8.018,0,0,0-7.7,0,2.98,2.98,0,0,0-1.594,2.352h0V405.008c0,1.837,2.427,3.334,5.429,3.334s5.442-1.562,5.442-3.334h0V109.351Z" transform="translate(-770.526 -106.002)" fill="#37474f"/>
      <ellipse id="Ellipse_30" data-name="Ellipse 30" cx="5.443" cy="3.348" rx="5.443" ry="3.348" transform="translate(0 0)" fill="#455a64"/>
    </g>
    <g id="question-marks--inject-125" transform="translate(490.038 52.429)">
      <g id="question-marks--inject-125-2">
        <path id="Path_2415" data-name="Path 2415" d="M568.673,59.576a26.613,26.613,0,0,1,7.451-1.333,20.522,20.522,0,0,1,7.181.96,16.34,16.34,0,0,1,5.96,3.476,15.953,15.953,0,0,1,4.668,11.933,17.08,17.08,0,0,1-1.135,4.955A27.117,27.117,0,0,1,590.6,84c-.862,1.44-1.68,2.742-2.442,4.007a22.993,22.993,0,0,0-1.868,3.776,6.786,6.786,0,0,0-.388,3.663,3.136,3.136,0,0,1-.215,1.709,1.811,1.811,0,0,1-1.192,1.091l-5.917,1.953a2.253,2.253,0,0,1-1.723-.13,1.822,1.822,0,0,1-1.077-1.278,14.352,14.352,0,0,1-.474-5.745,19.793,19.793,0,0,1,1.364-5.026A29.077,29.077,0,0,1,579,83.572q1.35-2.068,2.456-3.964a18.737,18.737,0,0,0,1.666-3.576,5.19,5.19,0,0,0,0-3.332,6.176,6.176,0,0,0-4.107-4.035,11.141,11.141,0,0,0-7.253.274q-6.607,2.183-7.54,9.837a4.32,4.32,0,0,1-.4,1.551,2.009,2.009,0,0,1-1.293.905l-6.29,2.068a1.767,1.767,0,0,1-1.349-.068,1.7,1.7,0,0,1-.92-1.077,12.624,12.624,0,0,1-.172-6.118,20.426,20.426,0,0,1,2.585-6.563,24.388,24.388,0,0,1,5.073-5.86,21.24,21.24,0,0,1,7.223-4.035ZM586.4,102.79a2.254,2.254,0,0,1,2.785,1.439l2.269,6.865a2.139,2.139,0,0,1-.13,1.68,2.179,2.179,0,0,1-1.278,1.12l-6.693,2.212a2.254,2.254,0,0,1-2.8-1.44l-2.269-6.851a2.24,2.24,0,0,1,1.44-2.8Z" transform="translate(-553.495 -58.222)" fill="#a76814"/>
        <path id="Path_2416" data-name="Path 2416" d="M624.984,133.319a18.7,18.7,0,0,1,4.94-1.752,14.2,14.2,0,0,1,4.969-.158,11.171,11.171,0,0,1,4.437,1.709,9.749,9.749,0,0,1,3.332,3.776,10.053,10.053,0,0,1,1.207,3.82,12.231,12.231,0,0,1-.2,3.49,19.2,19.2,0,0,1-1.005,3.317l-1.206,3a16.936,16.936,0,0,0-.847,2.786,4.6,4.6,0,0,0,.157,2.541,2.1,2.1,0,0,1,0,1.192,1.277,1.277,0,0,1-.689.876l-3.806,2a1.622,1.622,0,0,1-1.192.115,1.234,1.234,0,0,1-.876-.761,9.771,9.771,0,0,1-.977-3.863,13.941,13.941,0,0,1,.359-3.576,19.185,19.185,0,0,1,1.091-3.291c.445-1.048.847-2.039,1.22-2.987a13.178,13.178,0,0,0,.733-2.614,3.745,3.745,0,0,0-.359-2.283,4.307,4.307,0,0,0-3.26-2.284,7.706,7.706,0,0,0-4.912,1.006,7.44,7.44,0,0,0-4.021,7.554,2.877,2.877,0,0,1-.1,1.106,1.438,1.438,0,0,1-.775.761l-4.064,2.14a1.23,1.23,0,0,1-.933.1,1.192,1.192,0,0,1-.747-.632,8.831,8.831,0,0,1-.8-4.15,13.859,13.859,0,0,1,1.019-4.754,16.616,16.616,0,0,1,2.785-4.566,14.839,14.839,0,0,1,4.524-3.619Zm16.961,27.434a1.536,1.536,0,0,1,2.068.646l2.327,4.409a1.548,1.548,0,0,1-.646,2.069l-4.308,2.254a1.558,1.558,0,0,1-2.068-.632L637,165.071a1.537,1.537,0,0,1,.633-2.057Z" transform="translate(-562.371 -68.488)" fill="#a76814" opacity="0.78"/>
        <g id="Group_216" data-name="Group 216" transform="translate(54.273 62.774)" opacity="0.2">
          <path id="Path_2417" data-name="Path 2417" d="M624.984,133.319a18.7,18.7,0,0,1,4.94-1.752,14.2,14.2,0,0,1,4.969-.158,11.171,11.171,0,0,1,4.437,1.709,9.749,9.749,0,0,1,3.332,3.776,10.053,10.053,0,0,1,1.207,3.82,12.231,12.231,0,0,1-.2,3.49,19.2,19.2,0,0,1-1.005,3.317l-1.206,3a16.936,16.936,0,0,0-.847,2.786,4.6,4.6,0,0,0,.157,2.541,2.1,2.1,0,0,1,0,1.192,1.277,1.277,0,0,1-.689.876l-3.806,2a1.621,1.621,0,0,1-1.192.115,1.234,1.234,0,0,1-.876-.761,9.771,9.771,0,0,1-.977-3.863,13.941,13.941,0,0,1,.359-3.576,19.185,19.185,0,0,1,1.091-3.291c.445-1.048.847-2.039,1.22-2.987a13.178,13.178,0,0,0,.733-2.614,3.745,3.745,0,0,0-.359-2.283,4.307,4.307,0,0,0-3.26-2.284,7.706,7.706,0,0,0-4.912,1.006,7.44,7.44,0,0,0-4.021,7.554,2.877,2.877,0,0,1-.1,1.106,1.438,1.438,0,0,1-.775.761l-4.064,2.14a1.23,1.23,0,0,1-.933.1,1.192,1.192,0,0,1-.747-.632,8.831,8.831,0,0,1-.8-4.15,13.859,13.859,0,0,1,1.019-4.754,16.616,16.616,0,0,1,2.785-4.566,14.839,14.839,0,0,1,4.524-3.619Zm16.961,27.434a1.536,1.536,0,0,1,2.068.646l2.327,4.409a1.548,1.548,0,0,1-.646,2.069l-4.308,2.254a1.558,1.558,0,0,1-2.068-.632L637,165.071a1.537,1.537,0,0,1,.633-2.057Z" transform="translate(-616.644 -131.262)" fill="#d18219"/>
        </g>
        <path id="Path_2418" data-name="Path 2418" d="M661.661,104.353a1.735,1.735,0,0,1,1.062.876,1.781,1.781,0,0,1,.143,1.44l-1.723,5.644a1.851,1.851,0,0,1-2.269,1.207l-5.514-1.68a1.766,1.766,0,0,1-1.062-.891,1.725,1.725,0,0,1-.144-1.44l1.723-5.644a1.876,1.876,0,0,1,2.327-1.207Zm8.617-37.239a21.833,21.833,0,0,1,5.616,2.627,16.6,16.6,0,0,1,4.308,4.021,13.429,13.429,0,0,1,2.327,5.127,11.828,11.828,0,0,1-.343,5.96,11.969,11.969,0,0,1-2.169,4.208,14.459,14.459,0,0,1-3.085,2.786,23.909,23.909,0,0,1-3.576,1.924l-3.564,1.551a17.739,17.739,0,0,0-3.017,1.637,5.381,5.381,0,0,0-2,2.269,2.543,2.543,0,0,1-.948,1.033,1.439,1.439,0,0,1-1.307.173l-4.883-1.44a1.852,1.852,0,0,1-1.091-.891,1.521,1.521,0,0,1-.115-1.44,11.859,11.859,0,0,1,2.4-4.064,16.2,16.2,0,0,1,3.291-2.714,21.984,21.984,0,0,1,3.662-1.868c1.25-.5,2.413-1.006,3.5-1.44a15.954,15.954,0,0,0,2.8-1.581,4.316,4.316,0,0,0,1.594-2.226,5.073,5.073,0,0,0-.834-4.629,9.086,9.086,0,0,0-4.969-3.245,8.832,8.832,0,0,0-9.694,3,3.912,3.912,0,0,1-.991.862,1.771,1.771,0,0,1-1.307,0l-5.2-1.577a1.61,1.61,0,0,1-.877-.689,1.442,1.442,0,0,1-.1-1.165,10.343,10.343,0,0,1,2.786-4.165A16.436,16.436,0,0,1,657.323,68a19.815,19.815,0,0,1,6.147-1.522,17.609,17.609,0,0,1,6.808.632Z" transform="translate(-567.007 -59.37)" fill="#e6f9ff"/>
        <g id="Group_217" data-name="Group 217" transform="translate(82.627 7.018)" opacity="0.6">
          <path id="Path_2419" data-name="Path 2419" d="M661.661,104.353a1.737,1.737,0,0,1,1.063.876,1.781,1.781,0,0,1,.143,1.44l-1.723,5.644a1.851,1.851,0,0,1-2.269,1.207l-5.514-1.68a1.767,1.767,0,0,1-1.063-.891,1.725,1.725,0,0,1-.143-1.44l1.723-5.644a1.876,1.876,0,0,1,2.326-1.207Zm8.618-37.239a21.835,21.835,0,0,1,5.616,2.627,16.6,16.6,0,0,1,4.308,4.021,13.4,13.4,0,0,1,2.327,5.127,11.819,11.819,0,0,1-.342,5.96,11.984,11.984,0,0,1-2.169,4.208,14.46,14.46,0,0,1-3.085,2.786,23.905,23.905,0,0,1-3.576,1.924l-3.564,1.551a17.739,17.739,0,0,0-3.017,1.637,5.38,5.38,0,0,0-2,2.269,2.543,2.543,0,0,1-.948,1.033,1.439,1.439,0,0,1-1.307.173l-4.883-1.44a1.853,1.853,0,0,1-1.091-.891,1.521,1.521,0,0,1-.115-1.44,11.847,11.847,0,0,1,2.4-4.064,16.2,16.2,0,0,1,3.291-2.714,21.987,21.987,0,0,1,3.662-1.868c1.25-.5,2.413-1.006,3.5-1.44a15.942,15.942,0,0,0,2.8-1.581,4.313,4.313,0,0,0,1.6-2.226,5.076,5.076,0,0,0-.834-4.629A9.09,9.09,0,0,0,667.88,74.9a8.832,8.832,0,0,0-9.694,3,3.9,3.9,0,0,1-.992.862,1.768,1.768,0,0,1-1.306,0l-5.2-1.577a1.608,1.608,0,0,1-.876-.689,1.439,1.439,0,0,1-.1-1.165,10.335,10.335,0,0,1,2.786-4.165A16.435,16.435,0,0,1,657.324,68a19.815,19.815,0,0,1,6.147-1.522,17.609,17.609,0,0,1,6.808.632Z" transform="translate(-649.634 -66.388)" fill="#a76814"/>
        </g>
      </g>
    </g>
    <g id="Character--inject-125" transform="translate(450.419 133)">
      <g id="character--inject-125-2" transform="translate(0 0)">
        <path id="Path_2420" data-name="Path 2420" d="M568.048,508.847a17.23,17.23,0,0,1-.632,7.741c-1.523,4.05-4.593,5.845-6.419,7.426a30.728,30.728,0,0,0-5.329,6.2A26.248,26.248,0,0,1,550.1,536.9c-1.723,1.439-6.491,1.439-8.773.459s-3.045-1.9-2.872-5.573,11.389-4.71,11.389-4.71Z" transform="translate(-513.477 -206.426)" fill="#455a64"/>
        <path id="Path_2421" data-name="Path 2421" d="M540.15,520.126c-.959.342-1.233,2.154-1.44,5.744-.172,2.73-1.44,6.693,2.327,8.488,3,1.44,7.855.632,9.967-1.91,2.614-3.145,4.394-5.932,8.114-9.781,3.232-3.332,6.549-4.409,8.088-11.159.992-4.308.316-6.175-2.584-7.482-4.007-1.8-10.455,3.69-13.641,4.51C548.235,509.24,541.183,519.767,540.15,520.126Z" transform="translate(-513.469 -205.698)" fill="#f19b1e"/>
        <path id="Path_2422" data-name="Path 2422" d="M540.15,520.126c-.959.342-1.233,2.154-1.44,5.744-.172,2.73-1.44,6.693,2.327,8.488,3,1.44,7.855.632,9.967-1.91,2.614-3.145,4.394-5.932,8.114-9.781,3.232-3.332,6.549-4.409,8.088-11.159.992-4.308.316-6.175-2.584-7.482-4.007-1.8-10.455,3.69-13.641,4.51C548.235,509.24,541.183,519.767,540.15,520.126Z" transform="translate(-513.469 -205.698)" opacity="0.2" style="isolation: isolate"/>
        <path id="Path_2423" data-name="Path 2423" d="M552.766,509.288l.548-.173a10.413,10.413,0,0,1,8.617,5.9c.517,1.207-1.165,2.1-2.125,1.149a11.128,11.128,0,0,0-8.618-5.873,4.686,4.686,0,0,1,1.577-1.006Z" transform="translate(-515.271 -206.464)" fill="#fafafa"/>
        <path id="Path_2424" data-name="Path 2424" d="M549.788,511.655a10.352,10.352,0,0,1,8,5.845c.517,1.192-1.165,2.082-2.125,1.148a10.643,10.643,0,0,0-7.181-5.586C548.882,512.631,549.326,512.072,549.788,511.655Z" transform="translate(-514.891 -206.821)" fill="#fafafa"/>
        <path id="Path_2425" data-name="Path 2425" d="M622.759,574.038c.56,3.074-.589,4.638-4.567,6.836s-10.2,2.872-16.657.834-9.522-4.926-12.207-5.659-9.378-.92-12.035-1.752-2.585-2.212-2.513-5.429Z" transform="translate(-518.583 -214.862)" fill="#455a64"/>
        <path id="Path_2426" data-name="Path 2426" d="M577.691,550.923a73.48,73.48,0,0,0-2.1,7.184c-.6,2.674-1.44,7.181-.574,9.149s4.524,3.4,10.2,3.475c3.662,0,9.335,2.657,13.2,4.912s8.387,2.442,12.667,2.025c5.055-.5,10.34-3.318,11.187-5.386s1.105-3.633-10.671-8.933c-.115,0-13.686-5.357-19.3-11.819Z" transform="translate(-518.568 -212.34)" fill="#f19b1e"/>
        <g id="Group_218" data-name="Group 218" transform="translate(56.08 338.583)" opacity="0.2">
          <path id="Path_2427" data-name="Path 2427" d="M577.691,550.923a73.48,73.48,0,0,0-2.1,7.184c-.6,2.674-1.44,7.181-.574,9.149s4.524,3.4,10.2,3.475c3.662,0,9.335,2.657,13.2,4.912s8.387,2.442,12.667,2.025c5.055-.5,10.34-3.318,11.187-5.386s1.105-3.633-10.671-8.933c-.115,0-13.686-5.357-19.3-11.819Z" transform="translate(-574.648 -550.923)"/>
        </g>
        <path id="Path_2428" data-name="Path 2428" d="M604.173,578.406s1.221-10.182,9.565-12.925c7.554-2.485,13.973,3.188,13.155,8C626.333,576.725,617.07,583.906,604.173,578.406Z" transform="translate(-522.718 -214.301)" fill="#fafafa"/>
        <path id="Path_2429" data-name="Path 2429" d="M611.2,563.064a9.665,9.665,0,0,0-5.745,2.4c-2.428,1.953-2.528,3.291-2.528,3.291a1.25,1.25,0,0,1-2.14-1.077s.661-5.128,7.454-6.046a2.786,2.786,0,0,1,2.958,1.44Z" transform="translate(-522.24 -213.838)" fill="#fafafa"/>
        <path id="Path_2430" data-name="Path 2430" d="M605.753,560.313a8.444,8.444,0,0,0-5.745,2.155c-2.427,1.967-2.467,3.547-2.467,3.547a1.25,1.25,0,0,1-2.14-1.077s.646-5.141,7.439-6.046a2.757,2.757,0,0,1,2.915,1.422Z" transform="translate(-521.482 -213.454)" fill="#fafafa"/>
        <path id="Path_2431" data-name="Path 2431" d="M600.285,557.053a8.459,8.459,0,0,0-5.888,1.753c-2.557,1.795-2.715,3.359-2.715,3.359a1.264,1.264,0,0,1-2.068-1.221s1.02-5.072,7.855-5.529a2.758,2.758,0,0,1,2.815,1.637Z" transform="translate(-520.668 -212.969)" fill="#fafafa"/>
        <path id="Path_2432" data-name="Path 2432" d="M540.552,516.016l-.143,6.923a10.841,10.841,0,0,0,11.173.517c.2-.417.905-7.182.905-7.182Z" transform="translate(-513.756 -207.434)" fill="#ffa8a7"/>
        <path id="Path_2433" data-name="Path 2433" d="M578.286,545.36s0,3.274-.115,5.155,2.112,4.711,7.855,4.625c4.021,0,6.865-1.091,6.765-4.409l.1-4.783Z" transform="translate(-519.063 -211.558)" fill="#ffa8a7"/>
        <path id="Path_2434" data-name="Path 2434" d="M533.262,428.735c.676-14.591,3.806-20.924,3.806-20.924s-.761-18.053-2.742-40.213c-3.016-33.678-.343-38.661,6.581-53.64,0,0,55.823-6.089,57.073,17.449,1.566,29.312.632,88.838-.359,99.095s-.775.775-3.705,21.656c-2.327,16.5-7.324,61.109-7.324,61.109a15.513,15.513,0,0,1-14.606-.589s-3.532-54.775-2.8-66.7c.876-14.549,1.783-18.239,1.783-18.239s-5.745-47.293-6.534-54.907c0,0-1.192,13.572-2.184,23.9s-1.091,18.67-3.69,39.983c-2.04,16.745-6.907,52.865-6.907,52.865a13.89,13.89,0,0,1-12.307-1.149S532.7,440.469,533.262,428.735Z" transform="translate(-512.729 -178.935)" fill="#455a64"/>
        <path id="Path_2435" data-name="Path 2435" d="M567.724,516.371s-.144-8.088-11.043-9.435l-.633.342a9.452,9.452,0,0,1,5.458-4.035c3.648-.905,6.491.086,8.344,2.585S569.649,514.835,567.724,516.371Z" transform="translate(-515.954 -205.592)" fill="#fafafa"/>
        <path id="Path_2436" data-name="Path 2436" d="M566.581,379.662,565.863,370a78.353,78.353,0,0,1-17.234-8.618,23.167,23.167,0,0,0,13.9,10.541l1.74,9.494.144,22.189Z" transform="translate(-514.911 -185.7)" fill="#37474f"/>
        <path id="Path_2437" data-name="Path 2437" d="M541.018,161.978c-3.059,3.82-25.679,40.212-28.981,47.063s-4.107,11.242,1.12,16.76c7.855,8.287,27.661,28.279,27.661,28.279L551.9,227.625,531.34,214.7l20.107-42.553Z" transform="translate(-509.397 -157.674)" fill="#ffa8a7"/>
        <path id="Path_2438" data-name="Path 2438" d="M533.271,222.906s-5.63-1.982-10.326,1.062c0,0,3.7-5.227,11.374-3.26Z" transform="translate(-511.302 -165.866)" fill="#f28f8f"/>
        <path id="Path_2439" data-name="Path 2439" d="M554.013,234.443l-18.2-9.076c-6.706-.96-15.439,9.522-15.194,17.564L536.577,257Z" transform="translate(-510.974 -166.575)" fill="#455a64"/>
        <path id="Path_2440" data-name="Path 2440" d="M562.027,220.247,560.879,232.9h0c-2.872.891-2.341,4.9-.661,7.368l-.331,3.719,18.671,1.68,2.8-21.355Z" transform="translate(-516.347 -165.864)" fill="#ffa8a7"/>
        <path id="Path_2441" data-name="Path 2441" d="M537.989,244.1c2.068-5.616,10.225-9.94,15.18-9.55l4.151.359c-1.149,2.3.517,3.935,3.532,4.811,3.878,1.121,11.016,1.752,15.223-.731l.13-1.077s7.941,2.269,10.282,3.145c6.581,2.467,8.747,3.748,15.553,21.427,2.872,7.568,1.121,15.411-6.721,19.69-.589,4.681-1.25,12.049-1.25,12.049a268.631,268.631,0,0,1,4.754,30.4s-4.136,9.378-32.787,7.8c-22.189-1.221-32.515-12.452-32.515-12.452.548-5.443,3.992-14.132,11.059-30.533C536.194,265.855,534.916,252.513,537.989,244.1Z" transform="translate(-512.788 -167.87)" fill="#37474f"/>
        <path id="Path_2458" data-name="Path 2458" d="M667.009,237.275a9.115,9.115,0,0,0-2.585-2.758l1.191,3.791c.933,2.8-1.105,6.477-3.13,8.617-1.365,1.44-3.922,3.085-4.137,2.571-.287-.732.143-4.308-.589-7.554-.891-3.878-3.188-2-3.792.919-.33,1.594-2.056,5.659-2.541,8.746-.6,3.777.172,7.009-.96,9.734-.876,2.14-10.053,13.658-15.423,19.834-5.515-7.353-12.925-16.931-19.4-25.161-9.034-11.575-10.887-14-18.124-14.233-5.745,16.574,4.093,33.262,4.093,33.262s13.586,16.5,22.045,25.176c8.157,8.373,11.029,7.654,14.95,4.308s14.046-18.354,18.354-26.669,8.918-14.606,11.489-19.014C672.753,251.434,671.5,243.651,667.009,237.275Z" transform="translate(-521.529 -167.869)" fill="#ffa8a7"/>
        <path id="Path_2459" data-name="Path 2459" d="M594.631,242.068s6.778-.96,11.359,2.7a59.022,59.022,0,0,1,7.8,8.619c6.333,8.473,18.139,24.214,18.139,24.214a29.746,29.746,0,0,1-18.469,14.361s-11.6-12.133-15.942-18.153C589.849,263.194,590.639,248,594.631,242.068Z" transform="translate(-520.96 -168.915)" fill="#455a64"/>
        <path id="Path_2460" data-name="Path 2460" d="M557.963,234.868s-9.277,4.108-11.143,10.054L538.1,243.83a20.392,20.392,0,0,1,11.072-8.961,16.025,16.025,0,0,1,8.789,0Z" transform="translate(-513.432 -167.832)" fill="#d18219"/>
        <path id="Path_2461" data-name="Path 2461" d="M557.963,234.868s-9.277,4.108-11.143,10.054L538.1,243.83a20.392,20.392,0,0,1,11.072-8.961,16.025,16.025,0,0,1,8.789,0Z" transform="translate(-513.432 -167.832)" opacity="0.2" style="isolation: isolate"/>
        <path id="Path_2462" data-name="Path 2462" d="M583.174,254.028s3.619-10.986,8.99-12.422a20.421,20.421,0,0,0-9.723-2.944,25.851,25.851,0,0,0-8.33,10.2Z" transform="translate(-518.493 -168.452)" fill="#d18219"/>
        <path id="Path_2463" data-name="Path 2463" d="M583.174,254.028s3.619-10.986,8.99-12.422a20.421,20.421,0,0,0-9.723-2.944,25.851,25.851,0,0,0-8.33,10.2Z" transform="translate(-518.493 -168.452)" opacity="0.2" style="isolation: isolate"/>
        <path id="Path_2464" data-name="Path 2464" d="M540.356,242.087c-5.17-.069-15.355,6.477-17.162,10.512s-8.948,57.307-4.51,62.645c5.558,6.693,31.092,21.858,43.084,21.428,9.852-.343,19.532-7.815,21.025-10.455,2.442-4.308-.861-63.191-4.007-68.205C573.646,250.029,546.963,242.2,540.356,242.087Z" transform="translate(-510.501 -168.933)" fill="#eaa430"/>
        <path id="Path_2465" data-name="Path 2465" d="M580.179,254.937l-5.114,3.447c-5.155,2.973-7.941,10.8-7.855,29.544s-.274,44.133,2.729,46.819,9.048.847,9.408.746c5.385-2.3,9.464-5.745,10.426-7.439,2.442-4.308-.861-63.191-4.006-68.205A17.664,17.664,0,0,0,580.179,254.937Z" transform="translate(-517.523 -169.88)" opacity="0.2" style="isolation: isolate"/>
        <path id="Path_2466" data-name="Path 2466" d="M580.991,328.261c-3.519,3.275-11.346,8.172-19.273,8.459-11.933.417-37.483-14.75-43.084-21.442-4.423-5.329,2.614-58.408,4.51-62.645s11.991-10.57,17.162-10.513,23.495,5.256,32.8,11.016l-5.113,3.447c-5.141,2.973-7.942,10.8-7.841,29.556s-.288,44.133,2.714,46.8,9.048.847,9.407.747A31.613,31.613,0,0,0,580.991,328.261Z" transform="translate(-510.494 -168.938)" opacity="0.1" style="isolation: isolate"/>
        <path id="Path_2467" data-name="Path 2467" d="M540.1,242.087c-5.745,0-14.275,4.624-17.162,9.105s-4.955,17.506-2.872,21.341,16.214,11.489,25.851,15.367c7.684,3.145,11.7,2.327,14.361.388,1.723-1.233,2.025-4.911,2.154-7.64.343-7.009-.229-10.757,3.992-14.879s11.763-7.583,13.04-4.481c0,0,1.709-4.667-7.036-9.176C558.023,244.671,547.108,242.087,540.1,242.087Z" transform="translate(-510.778 -168.933)" fill="#d18219"/>
        <path id="Path_2468" data-name="Path 2468" d="M552.872,285.065l5.085,1.924s-.676,15.467-.646,21.542c0,0-1.192,2.6-2.3,3.03s-2.556-2.485-2.786-4.681S552.341,290.307,552.872,285.065Z" transform="translate(-515.407 -174.974)" fill="#455a64"/>
        <path id="Path_2469" data-name="Path 2469" d="M552.684,285.692l5.17,1.783a.876.876,0,0,0,1.15-.461.9.9,0,0,0,.071-.344l.2-2.485a1.439,1.439,0,0,0-.861-1.321L553.23,281a.863.863,0,0,0-1.207.775l-.187,2.614A1.44,1.44,0,0,0,552.684,285.692Z" transform="translate(-515.362 -174.392)" fill="#37474f"/>
        <path id="Path_2470" data-name="Path 2470" d="M554.861,307.424a2.47,2.47,0,0,1,1.44,2.155,1,1,0,0,1-1.44,1.048,2.441,2.441,0,0,1-1.44-2.154C553.453,307.571,554.085,307.108,554.861,307.424Z" transform="translate(-515.585 -178.102)" fill="#e0e0e0"/>
        <path id="Path_2471" data-name="Path 2471" d="M527.983,272.165l4.969,2.2s-1.44,15.41-1.752,21.455c0,0-1.321,2.542-2.442,2.872s-2.427-2.614-2.556-4.811S527.192,277.364,527.983,272.165Z" transform="translate(-511.758 -173.161)" fill="#455a64"/>
        <path id="Path_2472" data-name="Path 2472" d="M527.929,272.759l5.055,2.057a.876.876,0,0,0,1.174-.4.867.867,0,0,0,.09-.337l.33-2.485a1.438,1.438,0,0,0-.775-1.349l-5.084-2.141a.862.862,0,0,0-1.158.38.88.88,0,0,0-.092.339l-.33,2.6a1.333,1.333,0,0,0,.79,1.335Z" transform="translate(-511.89 -172.577)" fill="#37474f"/>
        <path id="Path_2473" data-name="Path 2473" d="M529.012,294.585a2.5,2.5,0,0,1,1.307,2.226,1.006,1.006,0,0,1-1.44.977,2.415,2.415,0,0,1-1.293-2.226C527.59,294.657,528.251,294.225,529.012,294.585Z" transform="translate(-511.954 -176.294)" fill="#e0e0e0"/>
        <path id="Path_2474" data-name="Path 2474" d="M521.917,306.066c0,6.19-.172,8.746.1,11.721a7.181,7.181,0,0,0,3.575,5.99c3,2.125,15.942,8.933,19.762,10.756,4.681,2.212,9.781,3.691,9.708,0V322.3c0-2.872-1.44-4.7-7.182-7.382-5.5-2.542-17.754-9.436-21.14-10.973C523.871,302.691,521.932,304.214,521.917,306.066Z" transform="translate(-511.149 -177.563)" fill="#d18219"/>
        <path id="Path_2475" data-name="Path 2475" d="M590.768,187.415s9.781-12.613,2.513-19.446c-8.617-8.089-20.034-7.913-34.959-2.715-6.98,2.442-17.134,9.523-18.038,23.223-.69,10.584,28.809,18.383,28.134,25.621Z" transform="translate(-513.737 -157.618)" fill="#263238"/>
        <path id="Path_2476" data-name="Path 2476" d="M601.951,198.039s3.992,6.405,3.433,7.066a10.047,10.047,0,0,1-3.232,1.293Z" transform="translate(-522.406 -162.742)" fill="#f28f8f"/>
        <path id="Path_2477" data-name="Path 2477" d="M583.115,174.068c3.992,2.211,10.9,6.277,12.294,21.256,1.439,15.381-2.112,20.623-4.308,22.576-1.44,1.307-8.732,1.609-12.495.33-4.724-1.609-14.878-6.965-19.488-15.008-5.429-9.464-6.262-21.915.416-26.6C568.983,170.033,579.725,172.216,583.115,174.068Z" transform="translate(-515.776 -159.108)" fill="#ffa8a7"/>
        <path id="Path_2478" data-name="Path 2478" d="M584.79,225.8a22.808,22.808,0,0,0,9.766-.359,17.951,17.951,0,0,1-9.622-2.757Z" transform="translate(-519.994 -166.206)" fill="#f28f8f"/>
        <path id="Path_2479" data-name="Path 2479" d="M587.363,191.167a15.255,15.255,0,0,0,9.768-12.294c1.508-9.752-10.686-13.888-10.686-13.888Z" transform="translate(-520.226 -158.097)" fill="#263238"/>
        <path id="Path_2480" data-name="Path 2480" d="M579.257,204.871c-.8,1.279-3.949,2.486-7.266-.959s-3.2-9.708,1.565-11.159,7.051,4.076,7.051,4.076c4.48-8.717,1.321-22.806,1.321-22.806s-10.4-10.7-27.287-5.586c-9.062,2.742-13.715,12.207-14.721,19.262s-3.719,19.646-.2,24.213,17.1,11.633,29.312,11.044,12.235-3,12.235-3l-1.867-15.41A1.289,1.289,0,0,1,579.257,204.871Z" transform="translate(-513.414 -158.387)" fill="#263238"/>
        <path id="Path_2481" data-name="Path 2481" d="M545.823,161.275c4.74-5.745,12.251-4.409,18.1-3.446s14.362,1.783,12.925,5.745-5.744,7.511-15.8,6.534-11.907,0-14.161,2.657C546.829,172.678,540.252,170.035,545.823,161.275Z" transform="translate(-514.202 -156.97)" fill="#ffa8a7"/>
      </g>
    </g>
    <g id="Group_223" data-name="Group 223" transform="translate(635.525 102.863)">
      <path id="Path_2408" data-name="Path 2408" d="M823.6,188.839l-5.329,3.077V167.268L823.6,164.2Z" transform="translate(-736.196 -123.551)" fill="#b8ae83"/>
      <g id="Group_222" data-name="Group 222" transform="translate(0 0)">
        <path id="Path_2405" data-name="Path 2405" d="M804.421,161.563l-70.976-41.016-10.671,6.161,10.671,18.5,70.976,41Z" transform="translate(-722.774 -117.416)" fill="#fcf2c8" stroke="#707070" stroke-width="0.5"/>
        <path id="Path_2406" data-name="Path 2406" d="M735.19,120.035,740.4,116.9l71.09,41.074-5.329,3.073Z" transform="translate(-724.519 -116.904)" fill="#e7daa4"/>
        <g id="Group_214" data-name="Group 214" transform="translate(10.671)" opacity="0.4">
          <path id="Path_2407" data-name="Path 2407" d="M735.19,120.035,740.4,116.9l71.09,41.074-5.329,3.073Z" transform="translate(-735.19 -116.904)" fill="#fff"/>
        </g>
        <path id="Path_2409" data-name="Path 2409" d="M823.1,189.339l-5.329,3.077V167.768L823.1,164.7Z" transform="translate(-736.126 -123.621)" opacity="0.1" style="isolation: isolate"/>
        <g id="Group_221" data-name="Group 221" transform="translate(21.869 19.554)">
          <g id="Group_220" data-name="Group 220">
            <path id="Path_2482" data-name="Path 2482" d="M748.219,145.559l.91-.64a4.644,4.644,0,0,0,2.079,2.376c1.359.768,2.241.571,2.628-.114,1.086-1.92-4.36-3.4-2.71-6.317.685-1.213,2.212-1.712,4.278-.544a5.31,5.31,0,0,1,2.132,2.124l-.878.688a4.661,4.661,0,0,0-1.794-1.858c-1.336-.755-2.226-.517-2.613.167-1.086,1.92,4.353,3.409,2.722,6.295-.679,1.2-2.229,1.689-4.306.514A5.357,5.357,0,0,1,748.219,145.559Z" transform="translate(-748.219 -139.656)" fill="#603813"/>
            <path id="Path_2483" data-name="Path 2483" d="M764.049,152.066a3.321,3.321,0,0,1-4.729,1.341,2.92,2.92,0,0,1-1.531-2.14l-1.739,3.076-1.078-.608,4.595-8.128,1.033.584-.534.943a2.914,2.914,0,0,1,2.687.2A3.317,3.317,0,0,1,764.049,152.066Zm-1.088-.616a2.3,2.3,0,1,0-3.2.963A2.259,2.259,0,0,0,762.961,151.449Z" transform="translate(-749.168 -140.492)" fill="#603813"/>
            <path id="Path_2484" data-name="Path 2484" d="M766.564,153.452a3.553,3.553,0,1,1,1.378,4.794A3.4,3.4,0,0,1,766.564,153.452Zm5.1,2.882a2.3,2.3,0,1,0-3.185.969A2.242,2.242,0,0,0,771.659,156.334Z" transform="translate(-750.729 -141.344)" fill="#603813"/>
            <path id="Path_2485" data-name="Path 2485" d="M780.2,157.075l-.59,1.044a2.374,2.374,0,0,0-.241-.151,2.039,2.039,0,0,0-3.011.95l-1.677,2.963-1.078-.609,3.365-5.949,1.033.584-.565,1A2.608,2.608,0,0,1,780.2,157.075Z" transform="translate(-751.787 -141.858)" fill="#603813"/>
            <path id="Path_2486" data-name="Path 2486" d="M782.84,165.758a2.34,2.34,0,0,1-1.537-.321,1.952,1.952,0,0,1-.833-2.931l1.848-3.266-1.011-.572.5-.887,1.011.572.736-1.3,1.078.609-.736,1.3,1.705.964-.5.887-1.706-.964-1.821,3.221a1.008,1.008,0,0,0,.366,1.526,1.557,1.557,0,0,0,1,.2Z" transform="translate(-752.702 -142.101)" fill="#603813"/>
            <path id="Path_2487" data-name="Path 2487" d="M784.1,166.487l.931-.6a4.395,4.395,0,0,0,1.739,1.8c1,.565,1.586.5,1.872-.009.755-1.336-3.66-2.306-2.32-4.675.6-1.067,1.963-1.245,3.489-.382a4.982,4.982,0,0,1,1.862,1.764l-.944.592a3.563,3.563,0,0,0-1.45-1.442c-.944-.534-1.6-.445-1.867.026-.794,1.4,3.626,2.391,2.318,4.7-.609,1.078-1.984,1.2-3.567.309A4.923,4.923,0,0,1,784.1,166.487Z" transform="translate(-753.262 -142.807)" fill="#603813"/>
          </g>
        </g>
      </g>
    </g>
    <g id="Group_229" data-name="Group 229" transform="translate(656.346 152.519)">
      <path id="Path_2401" data-name="Path 2401" d="M753,175.291l70.975,40.945,10.67,18.486-10.671,6.161L753,199.935Z" transform="translate(-747.843 -174.767)" fill="#fcf2c8"/>
      <g id="Group_228" data-name="Group 228" transform="translate(0)">
        <g id="Group_225" data-name="Group 225">
          <path id="Path_2400" data-name="Path 2400" d="M834.2,234.124l-10.671-18.5L752.55,174.681l-5.371,3.1v24.645l70.974,40.944,5.472-3.016Z" transform="translate(-747.025 -174.681)" fill="#f0e8c8"/>
          <g id="Group_224" data-name="Group 224">
            <g id="Group_213" data-name="Group 213" transform="translate(0 3.103)" opacity="0.3">
              <path id="Path_2402" data-name="Path 2402" d="M747,178.291l70.975,40.945,10.7,18.541-10.7,6.1L747,202.935Z" transform="translate(-747 -178.291)"/>
            </g>
            <path id="Path_2403" data-name="Path 2403" d="M823.524,215.626l-5.371,3.1-70.974-40.945,5.371-3.1Z" transform="translate(-747.025 -174.681)" opacity="0.1" style="isolation: isolate"/>
            <path id="Path_2404" data-name="Path 2404" d="M829.76,225.424l5.371-3.1,10.671,18.5-5.342,3.145Z" transform="translate(-758.632 -181.377)" fill="#a59c76" opacity="0.2" style="isolation: isolate"/>
          </g>
        </g>
        <g id="Group_227" data-name="Group 227" transform="translate(9.719 18.866)">
          <g id="Group_226" data-name="Group 226" opacity="0.79">
            <path id="Path_2488" data-name="Path 2488" d="M767.545,202.958c-.965,1.706-2.785,2.04-4.828.885l-1.942-1.1-1.346,2.38-1.122-.635,4.443-7.858,3.064,1.733C767.859,199.52,768.51,201.251,767.545,202.958Zm-1.123-.635c.635-1.122.244-2.187-1.193-3l-1.907-1.079-1.994,3.525,1.909,1.079C764.674,203.66,765.788,203.445,766.422,202.322Z" transform="translate(-758.308 -196.632)" fill="#603813"/>
            <path id="Path_2489" data-name="Path 2489" d="M774.138,209.067l-2.031,3.593-1.022-.578.444-.786a2.536,2.536,0,0,1-2.436-.251c-1.347-.761-1.795-1.962-1.21-3,.54-.954,1.6-1.391,3.375-.388l1.706.965.121-.213a1.567,1.567,0,0,0-.782-2.339,3.459,3.459,0,0,0-2.247-.426l.008-1.062a4.556,4.556,0,0,1,2.889.627C774.582,206.133,775.058,207.439,774.138,209.067Zm-2.081,1.165.469-.831-1.661-.939c-1.067-.6-1.605-.358-1.891.146-.336.595-.052,1.245.767,1.709A1.983,1.983,0,0,0,772.057,210.232Z" transform="translate(-759.619 -197.744)" fill="#603813"/>
            <path id="Path_2490" data-name="Path 2490" d="M774.723,213.361l.932-.6a4.391,4.391,0,0,0,1.739,1.8c1,.565,1.587.5,1.872-.009.755-1.336-3.66-2.306-2.32-4.675.6-1.066,1.963-1.245,3.489-.382a4.968,4.968,0,0,1,1.862,1.764l-.944.593a3.559,3.559,0,0,0-1.45-1.443c-.944-.533-1.6-.445-1.867.027-.794,1.4,3.626,2.39,2.318,4.7-.609,1.078-1.984,1.2-3.567.309A4.935,4.935,0,0,1,774.723,213.361Z" transform="translate(-760.615 -198.363)" fill="#603813"/>
            <path id="Path_2491" data-name="Path 2491" d="M781.26,217.054l.932-.6a4.394,4.394,0,0,0,1.739,1.8c1,.565,1.587.5,1.872-.009.755-1.336-3.66-2.306-2.32-4.675.6-1.067,1.963-1.246,3.489-.382a4.977,4.977,0,0,1,1.862,1.764l-.943.593a3.568,3.568,0,0,0-1.451-1.443c-.944-.534-1.6-.446-1.867.026-.794,1.4,3.626,2.391,2.318,4.7-.609,1.078-1.984,1.2-3.567.309A4.935,4.935,0,0,1,781.26,217.054Z" transform="translate(-761.534 -198.882)" fill="#603813"/>
            <path id="Path_2492" data-name="Path 2492" d="M791.629,215.39l1.078.609-3.364,5.949-1.078-.609Zm.85-1.949a.814.814,0,0,1,1.129-.294.8.8,0,0,1,.343,1.1.839.839,0,0,1-1.472-.8Z" transform="translate(-762.518 -198.937)" fill="#603813"/>
            <path id="Path_2493" data-name="Path 2493" d="M793.15,220.643a3.553,3.553,0,1,1,1.378,4.794A3.4,3.4,0,0,1,793.15,220.643Zm5.1,2.882a2.3,2.3,0,1,0-3.185.969A2.242,2.242,0,0,0,798.245,223.525Z" transform="translate(-763.137 -199.755)" fill="#603813"/>
            <path id="Path_2494" data-name="Path 2494" d="M807.8,228.246l-1.935,3.423-1.078-.609,1.866-3.3a1.72,1.72,0,0,0-.62-2.647,2.03,2.03,0,0,0-3,.909l-1.733,3.064-1.078-.609,3.364-5.949,1.033.584-.508.9a2.928,2.928,0,0,1,2.683.259A2.647,2.647,0,0,1,807.8,228.246Z" transform="translate(-764.198 -200.271)" fill="#603813"/>
          </g>
        </g>
      </g>
    </g>
    <g id="Group_235" data-name="Group 235" transform="translate(656.346 238.464)">
      <path id="Path_2401-2" data-name="Path 2401" d="M753,275.291l70.975,40.945,10.67,18.486-10.671,6.161L753,299.935Z" transform="translate(-747.843 -274.767)" fill="#fcf2c8"/>
      <g id="Group_234" data-name="Group 234" transform="translate(0)">
        <g id="Group_231" data-name="Group 231">
          <path id="Path_2400-2" data-name="Path 2400" d="M834.2,334.124l-10.671-18.5L752.55,274.681l-5.371,3.1v24.645l70.974,40.944,5.472-3.016Z" transform="translate(-747.025 -274.681)" fill="#f0e8c8"/>
          <g id="Group_230" data-name="Group 230">
            <g id="Group_213-2" data-name="Group 213" transform="translate(0 3.103)" opacity="0.3">
              <path id="Path_2402-2" data-name="Path 2402" d="M747,278.291l70.975,40.945,10.7,18.541-10.7,6.1L747,302.935Z" transform="translate(-747 -278.291)"/>
            </g>
            <path id="Path_2403-2" data-name="Path 2403" d="M823.524,315.626l-5.371,3.1-70.974-40.945,5.371-3.1Z" transform="translate(-747.025 -274.681)" opacity="0.1" style="isolation: isolate"/>
            <path id="Path_2404-2" data-name="Path 2404" d="M829.76,325.424l5.371-3.1,10.671,18.5-5.342,3.145Z" transform="translate(-758.632 -281.377)" fill="#a59c76" opacity="0.2" style="isolation: isolate"/>
          </g>
        </g>
        <g id="Group_233" data-name="Group 233" transform="translate(15.061 23.179)">
          <g id="Group_232" data-name="Group 232" opacity="0.79">
            <path id="Path_2495" data-name="Path 2495" d="M764.524,307.553l.911-.641a4.643,4.643,0,0,0,2.079,2.376c1.359.767,2.24.57,2.628-.115,1.085-1.919-4.361-3.4-2.71-6.317.685-1.212,2.212-1.711,4.278-.544a5.312,5.312,0,0,1,2.132,2.125l-.878.688a4.67,4.67,0,0,0-1.794-1.859c-1.336-.755-2.226-.517-2.614.168-1.086,1.919,4.354,3.409,2.723,6.295-.679,1.2-2.229,1.688-4.306.514A5.366,5.366,0,0,1,764.524,307.553Z" transform="translate(-764.524 -301.65)" fill="#603813"/>
            <path id="Path_2496" data-name="Path 2496" d="M776.379,314.889a2.329,2.329,0,0,1-1.537-.321,1.951,1.951,0,0,1-.833-2.93l1.848-3.267-1.011-.571.5-.887,1.011.572.736-1.3,1.078.609-.736,1.3,1.705.964-.5.887-1.706-.965-1.821,3.222a1.007,1.007,0,0,0,.366,1.526,1.56,1.56,0,0,0,1,.2Z" transform="translate(-765.807 -302.287)" fill="#603813"/>
            <path id="Path_2497" data-name="Path 2497" d="M784.908,315.761l-2.032,3.592-1.021-.578.444-.786a2.537,2.537,0,0,1-2.436-.252c-1.348-.762-1.794-1.962-1.211-3,.54-.954,1.6-1.391,3.375-.388l1.706.964.121-.213a1.565,1.565,0,0,0-.781-2.338,3.454,3.454,0,0,0-2.247-.427l.007-1.061a4.548,4.548,0,0,1,2.89.627C785.352,312.827,785.828,314.134,784.908,315.761Zm-2.081,1.165.469-.83-1.661-.94c-1.067-.6-1.6-.358-1.89.147-.337.595-.052,1.244.767,1.708A1.983,1.983,0,0,0,782.827,316.926Z" transform="translate(-766.475 -302.998)" fill="#603813"/>
            <path id="Path_2498" data-name="Path 2498" d="M792.533,316.824l-.59,1.044a2.375,2.375,0,0,0-.241-.151,2.04,2.04,0,0,0-3.011.95l-1.677,2.963-1.077-.609,3.364-5.949,1.033.584-.566,1A2.608,2.608,0,0,1,792.533,316.824Z" transform="translate(-767.534 -303.536)" fill="#603813"/>
            <path id="Path_2499" data-name="Path 2499" d="M795.146,325.491a2.338,2.338,0,0,1-1.537-.321,1.951,1.951,0,0,1-.833-2.93l1.847-3.267-1.01-.572.5-.887,1.009.572.738-1.3,1.078.609-.737,1.3,1.708.965-.5.887-1.707-.965-1.821,3.222a1.007,1.007,0,0,0,.367,1.526,1.551,1.551,0,0,0,1,.2Z" transform="translate(-768.445 -303.777)" fill="#603813"/>
            <path id="Path_2500" data-name="Path 2500" d="M805.942,324.389l-3.364,5.95-1.022-.578.508-.9a2.784,2.784,0,0,1-2.566-.177,2.686,2.686,0,0,1-1.093-4.04l1.936-3.424,1.078.609-1.866,3.3a1.732,1.732,0,0,0,.615,2.659,2.012,2.012,0,0,0,2.958-.935l1.739-3.076Z" transform="translate(-769.216 -304.401)" fill="#603813"/>
            <path id="Path_2501" data-name="Path 2501" d="M813.381,332.717a3.321,3.321,0,0,1-4.729,1.342,2.921,2.921,0,0,1-1.531-2.14l-1.739,3.076-1.078-.609,4.595-8.127,1.034.584-.535.943a2.909,2.909,0,0,1,2.687.2A3.316,3.316,0,0,1,813.381,332.717Zm-1.088-.615a2.3,2.3,0,1,0-3.2.964A2.259,2.259,0,0,0,812.293,332.1Z" transform="translate(-770.115 -305.109)" fill="#603813"/>
          </g>
        </g>
      </g>
    </g>
    <g id="Group_240" data-name="Group 240" transform="translate(620.596 182.045)">
      <path id="Path_2410" data-name="Path 2410" d="M787.048,253.694l-70.974-41.017L705.4,218.838l10.671,18.5,70.975,41Z" transform="translate(-705.403 -209.547)" fill="#fcf2c8"/>
      <g id="Group_236" data-name="Group 236" transform="translate(10.671)">
        <path id="Path_2411" data-name="Path 2411" d="M717.819,212.165l5.227-3.13,71.076,41.074-5.329,3.073Z" transform="translate(-717.819 -209.035)" fill="#e7daa4"/>
        <g id="Group_215" data-name="Group 215" opacity="0.4">
          <path id="Path_2412" data-name="Path 2412" d="M717.819,212.165l5.227-3.13,71.076,41.074-5.329,3.073Z" transform="translate(-717.819 -209.035)" fill="#fff"/>
        </g>
      </g>
      <g id="Group_237" data-name="Group 237" transform="translate(81.645 41.074)">
        <path id="Path_2413" data-name="Path 2413" d="M805.729,281.47l-5.329,3.073V259.9l5.329-3.073Z" transform="translate(-800.4 -256.826)" fill="#b8ae83"/>
        <path id="Path_2414" data-name="Path 2414" d="M805.729,281.47l-5.329,3.073V259.9l5.329-3.073Z" transform="translate(-800.4 -256.826)" opacity="0.1" style="isolation: isolate"/>
      </g>
      <g id="Group_239" data-name="Group 239" transform="translate(12.633 14.62)">
        <g id="Group_238" data-name="Group 238">
          <path id="Path_2502" data-name="Path 2502" d="M729.35,232.406c-.977,1.7-2.8,2.021-4.834.851l-1.934-1.112-1.363,2.37-1.117-.643,4.5-7.825,3.053,1.755C729.688,228.971,730.327,230.707,729.35,232.406Zm-1.118-.643c.643-1.118.26-2.186-1.171-3.009l-1.9-1.092-2.018,3.51,1.9,1.093C726.474,233.087,727.589,232.881,728.232,231.763Z" transform="translate(-720.102 -226.046)" fill="#603813"/>
          <path id="Path_2503" data-name="Path 2503" d="M735.675,235.174l-.6,1.039a2.275,2.275,0,0,0-.24-.152,2.04,2.04,0,0,0-3.018.927l-1.7,2.951-1.073-.617,3.407-5.925,1.029.591-.572,1A2.606,2.606,0,0,1,735.675,235.174Z" transform="translate(-721.359 -227.079)" fill="#603813"/>
          <path id="Path_2504" data-name="Path 2504" d="M737.72,236.037l1.073.617-3.406,5.925-1.074-.617Zm.865-1.942a.816.816,0,0,1,1.133-.287.807.807,0,1,1-1.133.287Z" transform="translate(-722.099 -227.12)" fill="#603813"/>
          <path id="Path_2505" data-name="Path 2505" d="M746.838,241.419l-6,4.433-1.1-.629.813-7.417,1.118.643-.7,5.922,4.81-3.556Z" transform="translate(-722.862 -227.699)" fill="#603813"/>
          <path id="Path_2506" data-name="Path 2506" d="M751.778,247.682l-2.058,3.577-1.018-.584.45-.783a2.537,2.537,0,0,1-2.434-.269c-1.341-.771-1.78-1.975-1.189-3,.547-.95,1.611-1.379,3.378-.364l1.7.977.123-.212a1.565,1.565,0,0,0-.765-2.344,3.46,3.46,0,0,0-2.244-.443l.016-1.062a4.546,4.546,0,0,1,2.884.648C752.243,244.751,752.71,246.061,751.778,247.682Zm-2.089,1.149.475-.828-1.654-.951c-1.061-.61-1.6-.37-1.891.133-.341.592-.061,1.244.755,1.713A1.981,1.981,0,0,0,749.689,248.831Z" transform="translate(-723.64 -228.448)" fill="#603813"/>
          <path id="Path_2507" data-name="Path 2507" d="M756.425,254.316a2.334,2.334,0,0,1-1.534-.332,1.951,1.951,0,0,1-.811-2.936l1.87-3.253-1.006-.578.508-.884,1.006.578.746-1.3,1.073.616-.746,1.3,1.7.977-.508.883-1.7-.976-1.844,3.208a1.007,1.007,0,0,0,.356,1.528,1.553,1.553,0,0,0,1,.2Z" transform="translate(-724.827 -228.797)" fill="#603813"/>
          <path id="Path_2508" data-name="Path 2508" d="M764.861,256.512l-4.807-2.764a2.314,2.314,0,0,0,1.15,2.967,2.554,2.554,0,0,0,2.122.268l.194,1.033a3.725,3.725,0,0,1-4.333-5.243,3.347,3.347,0,0,1,4.709-1.309,3.3,3.3,0,0,1,1.174,4.737A3.665,3.665,0,0,1,764.861,256.512Zm-4.363-3.536,3.8,2.186a2.206,2.206,0,0,0-3.8-2.186Z" transform="translate(-725.525 -229.55)" fill="#603813"/>
          <path id="Path_2509" data-name="Path 2509" d="M768.774,260.468l1.086-.387a2.249,2.249,0,0,0,1.1,1.866c.884.508,1.65.236,2.254-.816l2.527-4.394-2.828-1.626.558-.973L777.4,256.4l-3.053,5.311c-1,1.743-2.348,2.115-3.946,1.2A3.148,3.148,0,0,1,768.774,260.468Z" transform="translate(-726.943 -229.994)" fill="#603813"/>
          <path id="Path_2510" data-name="Path 2510" d="M777.329,263.2a3.553,3.553,0,1,1,1.344,4.8A3.4,3.4,0,0,1,777.329,263.2Zm5.075,2.918a2.3,2.3,0,1,0-3.191.946A2.241,2.241,0,0,0,782.4,266.118Z" transform="translate(-728.075 -231.019)" fill="#603813"/>
          <path id="Path_2511" data-name="Path 2511" d="M792.151,271.248a3.328,3.328,0,0,1-4.739,1.307,2.887,2.887,0,0,1-1.534-2.221l-.54.939-1.029-.591,4.77-8.295,1.073.616-1.878,3.264a2.911,2.911,0,0,1,2.615.239A3.318,3.318,0,0,1,792.151,271.248Zm-1.085-.623a2.305,2.305,0,1,0-3.2.939A2.253,2.253,0,0,0,791.066,270.625Z" transform="translate(-729.126 -231.154)" fill="#603813"/>
        </g>
      </g>
    </g>
    <g id="Group_244" data-name="Group 244" transform="translate(616.298 260.255)">
      <path id="Path_2410-2" data-name="Path 2410" d="M782.048,344.694l-70.974-41.017L700.4,309.838l10.671,18.5,70.975,41Z" transform="translate(-700.403 -300.547)" fill="#fcf2c8"/>
      <g id="Group_241" data-name="Group 241" transform="translate(10.671)">
        <path id="Path_2411-2" data-name="Path 2411" d="M712.819,303.165l5.227-3.13,71.076,41.074-5.329,3.073Z" transform="translate(-712.819 -300.035)" fill="#e7daa4"/>
        <g id="Group_215-2" data-name="Group 215" opacity="0.4">
          <path id="Path_2412-2" data-name="Path 2412" d="M712.819,303.165l5.227-3.13,71.076,41.074-5.329,3.073Z" transform="translate(-712.819 -300.035)" fill="#fff"/>
        </g>
      </g>
      <path id="Path_2414-2" data-name="Path 2414" d="M800.729,372.47l-5.329,3.073V350.9l5.329-3.073Z" transform="translate(-713.755 -306.752)" opacity="0.1" style="isolation: isolate"/>
      <g id="Group_243" data-name="Group 243" transform="translate(10.519 13.67)">
        <g id="Group_242" data-name="Group 242">
          <path id="Path_2512" data-name="Path 2512" d="M720.126,318.515l-2.994,5.219-.746-.427,1.334-2.327-3-1.719-1.335,2.327-.746-.427,2.994-5.22.745.428-1.288,2.244,3,1.719,1.287-2.244Z" transform="translate(-712.642 -315.94)" fill="#603813"/>
          <path id="Path_2513" data-name="Path 2513" d="M721.834,321.136l.716.411-2.267,3.953-.715-.41Zm.575-1.3a.544.544,0,0,1,.755-.192.537.537,0,1,1-.755.192Z" transform="translate(-713.615 -316.45)" fill="#603813"/>
          <path id="Path_2514" data-name="Path 2514" d="M727.909,325.032l-1.959,3.416a2.07,2.07,0,0,1-3.214.852,3.371,3.371,0,0,1-1.549-1.672l.658-.355a2.785,2.785,0,0,0,1.227,1.388,1.352,1.352,0,0,0,2.119-.55l.18-.313a2.087,2.087,0,0,1-1.776-.205,2.208,2.208,0,1,1,2.194-3.825,2.076,2.076,0,0,1,1.09,1.487l.351-.612Zm-1.776,1.47a1.571,1.571,0,0,0-2.721-1.561,1.571,1.571,0,0,0,2.721,1.561Z" transform="translate(-713.843 -316.991)" fill="#603813"/>
          <path id="Path_2515" data-name="Path 2515" d="M733.028,329.792l-1.3,2.274-.717-.411,1.257-2.192a1.148,1.148,0,0,0-.4-1.768,1.354,1.354,0,0,0-2.006.595l-1.167,2.036-.716-.411,3.173-5.533.717.41-1.228,2.141a1.973,1.973,0,0,1,1.736.2A1.765,1.765,0,0,1,733.028,329.792Z" transform="translate(-714.797 -317.127)" fill="#603813"/>
          <path id="Path_2516" data-name="Path 2516" d="M738.533,333.979l-3.207-1.839a1.543,1.543,0,0,0,.769,1.978,1.7,1.7,0,0,0,1.415.177l.13.688a2.483,2.483,0,0,1-2.893-3.492,2.231,2.231,0,0,1,3.139-.876,2.2,2.2,0,0,1,.786,3.157C738.637,333.831,738.58,333.916,738.533,333.979Zm-2.912-2.353,2.536,1.454a1.471,1.471,0,0,0-2.536-1.454Z" transform="translate(-715.702 -317.957)" fill="#603813"/>
          <path id="Path_2517" data-name="Path 2517" d="M743.615,333.855l-.4.694a1.247,1.247,0,0,0-.16-.1,1.358,1.358,0,0,0-2.009.621l-1.13,1.969-.715-.411,2.266-3.953.687.394-.382.664A1.739,1.739,0,0,1,743.615,333.855Z" transform="translate(-716.375 -318.292)" fill="#603813"/>
          <path id="Path_2518" data-name="Path 2518" d="M749.361,341.388l-.373.649-3.788-2.173,2.994-5.219,3.683,2.112-.373.649-2.938-1.685-.92,1.6,2.618,1.5-.364.634-2.618-1.5-.966,1.685Z" transform="translate(-717.218 -318.569)" fill="#603813"/>
          <path id="Path_2519" data-name="Path 2519" d="M757.83,339.951l-3.174,5.534-.687-.394.36-.627a1.922,1.922,0,0,1-1.795-.137,2.326,2.326,0,0,1,2.314-4.034,1.937,1.937,0,0,1,1.015,1.425l1.25-2.177Zm-2.749,3.151a1.536,1.536,0,1,0-2.126.633A1.5,1.5,0,0,0,755.081,343.1Z" transform="translate(-718.082 -319.257)" fill="#603813"/>
          <path id="Path_2520" data-name="Path 2520" d="M762.807,344.87l-2.268,3.953-.678-.389.342-.6a1.85,1.85,0,0,1-1.71-.128,1.791,1.791,0,0,1-.712-2.7l1.3-2.274.716.41-1.257,2.193a1.154,1.154,0,0,0,.4,1.775,1.341,1.341,0,0,0,1.976-.611l1.172-2.044Z" transform="translate(-718.939 -319.706)" fill="#603813"/>
          <path id="Path_2521" data-name="Path 2521" d="M763.487,348.006a2.278,2.278,0,0,1,3.244-.816,2.033,2.033,0,0,1,1.128,1.767l-.746.038a1.418,1.418,0,0,0-.749-1.183,1.6,1.6,0,0,0-1.6,2.781,1.42,1.42,0,0,0,1.4.05l.347.655a2.036,2.036,0,0,1-2.1-.074A2.283,2.283,0,0,1,763.487,348.006Z" transform="translate(-719.742 -320.281)" fill="#603813"/>
          <path id="Path_2522" data-name="Path 2522" d="M772.115,352.4l-1.367,2.386-.679-.389.3-.523a1.688,1.688,0,0,1-1.622-.177c-.9-.513-1.189-1.315-.795-2,.363-.634,1.074-.921,2.252-.245l1.133.65.082-.142a1.045,1.045,0,0,0-.511-1.562,2.3,2.3,0,0,0-1.5-.294l.01-.708a3.042,3.042,0,0,1,1.923.43A1.7,1.7,0,0,1,772.115,352.4Zm-1.391.767.316-.551-1.1-.633c-.709-.407-1.068-.247-1.262.089-.226.395-.04.829.505,1.141A1.321,1.321,0,0,0,770.724,353.165Z" transform="translate(-720.392 -320.638)" fill="#603813"/>
          <path id="Path_2523" data-name="Path 2523" d="M775.211,356.82a1.558,1.558,0,0,1-1.024-.22,1.3,1.3,0,0,1-.541-1.956l1.245-2.17-.671-.385.337-.589.671.384.5-.865.716.411-.5.865,1.134.65-.338.59-1.134-.651-1.227,2.141a.671.671,0,0,0,.238,1.018,1.039,1.039,0,0,0,.667.134Z" transform="translate(-721.182 -320.87)" fill="#603813"/>
          <path id="Path_2524" data-name="Path 2524" d="M778.633,353.769l.717.411-2.268,3.953-.715-.411Zm.575-1.3a.545.545,0,0,1,.755-.193.537.537,0,1,1-.755.193Z" transform="translate(-721.598 -321.037)" fill="#603813"/>
          <path id="Path_2525" data-name="Path 2525" d="M779.634,357.282a2.369,2.369,0,1,1,.9,3.2A2.268,2.268,0,0,1,779.634,357.282Zm3.386,1.941a1.537,1.537,0,1,0-2.127.633A1.5,1.5,0,0,0,783.02,359.223Z" transform="translate(-722.011 -321.585)" fill="#603813"/>
          <path id="Path_2526" data-name="Path 2526" d="M789.349,362.408l-1.3,2.275-.716-.411,1.257-2.192a1.147,1.147,0,0,0-.4-1.768,1.354,1.354,0,0,0-2.005.594l-1.168,2.036-.715-.41,2.266-3.953.686.393-.342.6a1.956,1.956,0,0,1,1.789.183A1.765,1.765,0,0,1,789.349,362.408Z" transform="translate(-722.713 -321.933)" fill="#603813"/>
        </g>
      </g>
    </g>
  </g>
</svg>
